<svg width="76" height="80" viewBox="0 0 76 80" fill="none" xmlns="http://www.w3.org/2000/svg">
<g clip-path="url(#clip0)">
<path d="M21.6196 63.628C21.437 63.8407 21.2252 64.1385 20.9827 64.5185C20.7402 64.8984 20.505 65.2945 20.2771 65.7053C20.0492 66.116 19.8344 66.5121 19.6285 66.8921C19.4239 67.2735 19.2676 67.5845 19.1624 67.8281C18.9506 68.3005 18.7446 68.7728 18.5489 69.2437C18.3516 69.7161 18.1778 70.1959 18.0259 70.6829C17.9046 71.1391 17.8476 71.5162 17.8549 71.814C17.8623 72.1103 17.9499 72.3054 18.1164 72.3964C18.283 72.4873 18.5255 72.4609 18.844 72.3172C19.1624 72.1719 19.5715 71.88 20.0711 71.4384C20.5561 70.9968 21.0105 70.5098 21.4356 69.9773C21.8592 69.4447 22.223 68.8887 22.5269 68.3107C22.9359 68.1127 23.1784 68.2344 23.2544 68.676C22.9052 69.3156 22.5108 69.9509 22.0725 70.5831C21.6328 71.2154 21.1478 71.7978 20.6175 72.3304C19.7994 73.1974 19.0602 73.7725 18.3999 74.0541C17.741 74.3358 17.1683 74.3695 16.6833 74.1568C16.1676 73.9441 15.8229 73.5979 15.649 73.1182C15.4752 72.6385 15.3948 72.147 15.4109 71.6453C15.4416 70.702 15.6081 69.7689 15.9105 68.8477C16.2129 67.9264 16.5927 67.0623 17.0471 66.2554C17.3203 65.7684 17.6197 65.274 17.9455 64.7708C18.2713 64.2691 18.6467 63.8422 19.0704 63.4915C19.2223 63.3698 19.4108 63.2744 19.6387 63.2055C19.8666 63.1365 20.1047 63.1072 20.3545 63.1145C20.6043 63.1218 20.8439 63.1644 21.0704 63.2407C21.3012 63.3155 21.4838 63.4446 21.6196 63.628ZM21.5977 61.4817C21.2647 61.3746 20.9754 61.1736 20.7343 60.8758C20.4918 60.5795 20.4086 60.2171 20.4845 59.7917C20.5444 59.4264 20.6467 59.0758 20.7913 58.7413C20.936 58.4068 21.1975 58.2014 21.5758 58.1251C21.7876 58.0943 21.9966 58.0943 22.2011 58.1251C22.4056 58.1559 22.6072 58.2088 22.803 58.285C23.2573 58.4376 23.5495 58.643 23.678 58.9012C23.8066 59.1609 23.8782 59.3501 23.8942 59.4719C23.9249 59.777 23.8972 60.0734 23.8154 60.3624C23.7321 60.6514 23.5845 60.9022 23.3712 61.1164C23.1287 61.3453 22.8483 61.4861 22.5298 61.5389C22.2113 61.5917 21.9001 61.5727 21.5977 61.4817Z" fill="url(#paint0_linear)"/>
<path d="M34.0343 68.3092C34.5032 68.1112 34.7472 68.233 34.7618 68.6745C34.3075 69.5415 33.8137 70.3602 33.2834 71.1289C32.7531 71.8976 32.1541 72.6018 31.4865 73.2414C31.1987 73.5157 30.8642 73.771 30.4858 74.0057C30.106 74.2419 29.7203 74.4092 29.3259 74.5074C28.9314 74.6057 28.537 74.6145 28.144 74.5309C27.7496 74.4473 27.3931 74.2155 27.0746 73.8341C26.8015 73.5304 26.6349 73.1798 26.575 72.7837C26.5137 72.3876 26.518 71.9768 26.5867 71.5499C26.6554 71.1245 26.7606 70.7049 26.9052 70.2941C27.0498 69.8834 27.1901 69.5034 27.3259 69.1528C27.6283 68.4677 27.9819 67.809 28.3836 67.1782C28.7853 66.5473 29.1535 65.8886 29.4866 65.2035C29.0468 65.5542 28.5735 65.9649 28.0651 66.4358C27.5567 66.9082 27.1287 67.3571 26.781 67.7826C26.3267 68.3313 25.8942 68.8902 25.4852 69.4609C25.0762 70.0315 24.6744 70.614 24.28 71.2081C24.0828 71.5132 23.8928 71.814 23.7117 72.1103C23.5291 72.4067 23.3552 72.7074 23.1887 73.0125C23.0981 73.149 22.9842 73.3206 22.8483 73.526C22.7124 73.7314 22.5225 73.8267 22.28 73.8121C22.0974 73.8121 21.9163 73.7593 21.7337 73.6522C21.551 73.5465 21.3889 73.416 21.2443 73.2634C21.1011 73.1108 20.9871 72.948 20.9039 72.7719C20.8206 72.5974 20.7943 72.4404 20.825 72.304C21.0675 71.1934 21.4809 70.124 22.0638 69.0956C22.6467 68.0687 23.2427 67.074 23.849 66.116C24.1061 65.7199 24.353 65.3092 24.5882 64.8823C24.8234 64.4568 25.0849 64.0446 25.3727 63.6485C25.5086 63.4504 25.6868 63.314 25.9074 63.2377C26.1265 63.1614 26.4333 63.2377 26.8278 63.4666C27.0104 63.5737 27.1492 63.6764 27.2485 63.7747C27.3464 63.8744 27.396 63.9962 27.396 64.14C27.396 64.2852 27.3391 64.4642 27.2251 64.6769C27.1112 64.8896 26.9402 65.1566 26.7138 65.4764C26.502 65.7654 26.2785 66.116 26.0433 66.5268C25.8081 66.9376 25.6079 67.3117 25.4414 67.6461C25.6839 67.3718 25.9761 67.0447 26.3164 66.6647C26.6568 66.2847 27.0177 65.9033 27.396 65.5234C27.7744 65.1434 28.1572 64.7928 28.5443 64.473C28.9314 64.1532 29.2908 63.9096 29.6239 63.7424C30.0329 63.5297 30.5136 63.4534 31.0672 63.5135C31.6209 63.5751 32.1162 63.8187 32.5573 64.2441C32.6786 64.3659 32.7312 64.4686 32.7166 64.5522C32.702 64.6358 32.6552 64.7546 32.5807 64.9057C32.4449 65.2256 32.2856 65.5454 32.103 65.8652C31.9204 66.1997 31.7319 66.5312 31.5347 66.8584C31.3375 67.1855 31.1476 67.5244 30.9664 67.875C30.7079 68.3474 30.4318 68.8462 30.1367 69.3714C29.8416 69.8966 29.5874 70.4188 29.3755 70.9352C29.1476 71.5602 29.0834 72.0164 29.1827 72.3054C29.2806 72.5944 29.4778 72.7353 29.7744 72.7279C30.0695 72.7206 30.4376 72.5724 30.8773 72.282C31.3171 71.993 31.7641 71.5734 32.2184 71.0262C32.5369 70.6301 32.8466 70.212 33.1505 69.7704C33.4514 69.3288 33.7465 68.8418 34.0343 68.3092Z" fill="url(#paint1_linear)"/>
<path d="M45.3357 68.3093C45.8046 68.1112 46.0486 68.233 46.0632 68.6745C45.5329 69.7103 44.9149 70.6844 44.2093 71.5969C43.5037 72.5108 42.766 73.2561 41.9917 73.8341C41.8558 73.9558 41.6776 74.0585 41.457 74.1422C41.2364 74.2258 41.0056 74.2859 40.7631 74.3241C40.5206 74.3622 40.281 74.3769 40.0472 74.3695C39.812 74.3622 39.6031 74.3197 39.422 74.2434C39.0276 74.0908 38.7281 73.8708 38.5235 73.5818C38.319 73.2927 38.1861 72.9685 38.1262 72.612C38.0648 72.2541 38.0619 71.8888 38.1145 71.5162C38.1671 71.1435 38.2547 70.79 38.376 70.454C38.6784 69.587 39.0655 68.7567 39.5359 67.9645C40.0063 67.1738 40.4826 66.3889 40.9691 65.6129C40.8478 65.6891 40.7382 65.7728 40.6389 65.8637C40.5396 65.9547 40.4373 66.0471 40.3321 66.1381C40.0896 66.3508 39.6879 66.7278 39.1269 67.2677C38.5659 67.8075 37.929 68.4633 37.2175 69.232C36.5046 70.0007 35.7625 70.8457 34.9897 71.767C34.2169 72.6883 33.5039 73.636 32.8524 74.6101C32.6858 74.6101 32.5339 74.572 32.3981 74.4957C32.2622 74.4194 32.1439 74.3241 32.046 74.2096C31.9481 74.0952 31.8677 73.9778 31.8079 73.8561C31.748 73.7343 31.71 73.636 31.6939 73.5597C31.6486 73.3764 31.691 73.0918 31.8195 72.703C31.9481 72.3142 32.1146 71.8917 32.3192 71.4355C32.5237 70.9792 32.7472 70.5186 32.9897 70.0535C33.2322 69.59 33.4367 69.1968 33.6033 68.877C34.0883 67.963 34.5806 67.0696 35.0817 66.1938C35.5813 65.318 36.0736 64.4392 36.5601 63.5561C36.6507 63.3888 36.8216 63.0881 37.0714 62.6539C37.3212 62.2196 37.5944 61.756 37.8895 61.2617C38.1846 60.7673 38.4724 60.2993 38.7529 59.8577C39.0334 59.4161 39.2569 59.0963 39.4234 58.8983C39.6966 58.5638 39.999 58.3232 40.3336 58.1794C40.6667 58.0342 40.9924 57.9506 41.3109 57.9286C41.6294 57.9051 41.9318 57.9286 42.221 57.9975C42.5088 58.0665 42.7513 58.1457 42.9486 58.2366C42.8726 58.3276 42.6871 58.5418 42.392 58.8763C42.0969 59.2107 41.7974 59.6068 41.4935 60.0631C40.5995 61.4186 39.701 62.8563 38.7997 64.3791C37.8983 65.9019 36.9838 67.4232 36.059 68.9459C36.2869 68.6877 36.5207 68.4325 36.7646 68.1816C37.0071 67.9308 37.2497 67.6755 37.4922 67.4173C37.9772 66.9302 38.4578 66.4388 38.9355 65.9444C39.4132 65.45 39.9099 64.982 40.4256 64.5405C40.5615 64.4187 40.728 64.2823 40.9252 64.1297C41.1225 63.9771 41.3226 63.829 41.5271 63.6837C41.7317 63.5399 41.9289 63.4138 42.1188 63.3067C42.3087 63.1996 42.4563 63.1321 42.5629 63.1013C42.8054 63.0558 43.0435 63.0514 43.2787 63.0896C43.5139 63.1277 43.7258 63.1996 43.9157 63.3067C44.1056 63.4138 44.2561 63.5385 44.37 63.6837C44.484 63.829 44.5409 63.9771 44.5409 64.1297C44.5409 64.1605 44.4693 64.3043 44.3247 64.5639C44.1801 64.8236 43.9916 65.1507 43.7564 65.5454C43.5212 65.9415 43.2597 66.383 42.9719 66.8701C42.6841 67.3572 42.4037 67.8369 42.1305 68.3093C41.8573 68.7816 41.6031 69.2305 41.3693 69.656C41.1341 70.0829 40.9559 70.4247 40.8347 70.6829C40.6228 71.1098 40.5118 71.4707 40.5045 71.767C40.4972 72.0634 40.5542 72.2805 40.6754 72.4184C40.7967 72.5548 40.9749 72.6164 41.2101 72.6018C41.4453 72.5871 41.7068 72.4727 41.9946 72.26C42.6155 71.8184 43.2261 71.2433 43.8251 70.5362C44.4226 69.8276 44.9266 69.0853 45.3357 68.3093Z" fill="url(#paint2_linear)"/>
<path d="M56.8416 68.3092C57.3105 68.1112 57.5545 68.233 57.5691 68.6745C57.1148 69.5415 56.621 70.3602 56.0907 71.1289C55.5604 71.8976 54.9614 72.6018 54.2938 73.2414C54.006 73.5157 53.6715 73.771 53.2931 74.0057C52.9133 74.2419 52.5276 74.4092 52.1332 74.5074C51.7387 74.6057 51.3443 74.6145 50.9513 74.5309C50.5569 74.4473 50.2004 74.2155 49.8819 73.8341C49.6087 73.5304 49.4422 73.1798 49.3823 72.7837C49.321 72.3876 49.3253 71.9768 49.394 71.5499C49.4627 71.1245 49.5678 70.7049 49.7125 70.2941C49.8571 69.8834 49.9973 69.5034 50.1332 69.1528C50.4356 68.4677 50.7891 67.809 51.1909 67.1782C51.5926 66.5473 51.9608 65.8886 52.2939 65.2035C51.8541 65.5542 51.3808 65.9649 50.8724 66.4358C50.364 66.9082 49.936 67.3571 49.5883 67.7826C49.134 68.3313 48.7015 68.8902 48.2925 69.4609C47.8834 70.0315 47.4817 70.614 47.0873 71.2081C46.89 71.5132 46.7001 71.814 46.519 72.1103C46.3364 72.4067 46.1625 72.7074 45.996 73.0125C45.9054 73.149 45.7914 73.3206 45.6556 73.526C45.5197 73.7314 45.3298 73.8267 45.0873 73.8121C44.9047 73.8121 44.7235 73.7593 44.5409 73.6522C44.3583 73.5465 44.1962 73.416 44.0515 73.2634C43.9084 73.1108 43.7944 72.948 43.7111 72.7719C43.6279 72.5974 43.6016 72.4404 43.6323 72.304C43.8748 71.1934 44.2882 70.124 44.8711 69.0956C45.454 68.0687 46.05 67.074 46.6563 66.116C46.9134 65.7199 47.1603 65.3092 47.3955 64.8823C47.6307 64.4568 47.8922 64.0446 48.18 63.6485C48.3159 63.4504 48.4941 63.314 48.7147 63.2377C48.9338 63.1614 49.2406 63.2377 49.635 63.4666C49.8177 63.5737 49.9564 63.6764 50.0558 63.7747C50.1537 63.8744 50.2033 63.9962 50.2033 64.14C50.2033 64.2852 50.1464 64.4642 50.0324 64.6769C49.9185 64.8896 49.7475 65.1566 49.5211 65.4764C49.3093 65.7654 49.0857 66.116 48.8505 66.5268C48.6153 66.9376 48.4152 67.3117 48.2487 67.6461C48.4912 67.3718 48.7833 67.0447 49.1237 66.6647C49.4641 66.2847 49.825 65.9033 50.2033 65.5234C50.5817 65.1434 50.9644 64.7928 51.3516 64.473C51.7387 64.1532 52.0981 63.9096 52.4312 63.7424C52.8402 63.5297 53.3209 63.4534 53.8745 63.5135C54.4282 63.5751 54.9234 63.8187 55.3646 64.2441C55.4859 64.3659 55.5385 64.4686 55.5239 64.5522C55.5093 64.6358 55.4625 64.7546 55.388 64.9057C55.2521 65.2256 55.0929 65.5454 54.9103 65.8652C54.7277 66.1997 54.5392 66.5312 54.342 66.8584C54.1448 67.1855 53.9549 67.5244 53.7737 67.875C53.5152 68.3474 53.239 68.8462 52.9439 69.3714C52.6488 69.8966 52.3947 70.4188 52.1828 70.9352C51.9549 71.5602 51.8906 72.0164 51.99 72.3054C52.0879 72.5944 52.2851 72.7353 52.5816 72.7279C52.8767 72.7206 53.2449 72.5724 53.6846 72.282C54.1243 71.993 54.5714 71.5734 55.0257 71.0262C55.3442 70.6301 55.6539 70.212 55.9578 69.7704C56.2572 69.3288 56.5538 68.8418 56.8416 68.3092Z" fill="url(#paint3_linear)"/>
<path d="M60.1607 69.4726C59.9942 69.4888 59.8232 69.4917 59.6494 69.4844C59.4755 69.477 59.3046 69.4579 59.1381 69.4271C58.8649 70.2795 58.786 70.9793 58.9 71.5279C59.0139 72.0766 59.271 72.4566 59.6728 72.6693C60.0745 72.882 60.5931 72.9201 61.2301 72.7837C61.867 72.6473 62.5785 72.3275 63.3673 71.8243C64.0043 71.3827 64.5755 70.8458 65.0839 70.2149C65.5923 69.5826 66.0203 68.9474 66.368 68.3078C66.5345 68.2476 66.6894 68.2198 66.834 68.2286C66.9772 68.2359 67.0648 68.3855 67.0955 68.6731C66.7464 69.3435 66.2877 70.0286 65.7194 70.7284C65.1511 71.4282 64.5258 72.0751 63.8436 72.6693C62.7523 73.5832 61.6756 74.1906 60.615 74.4957C59.5544 74.7994 58.6443 74.7084 57.8861 74.2214C57.3105 73.8253 56.8664 73.3118 56.5552 72.6795C56.2441 72.0473 56.1038 71.39 56.1345 70.7049C56.1491 70.0653 56.2674 69.4227 56.4866 68.7758C56.7072 68.1288 56.9979 67.5083 57.3616 66.9141C57.7254 66.32 58.1491 65.7757 58.6355 65.2813C59.1205 64.7869 59.6435 64.3879 60.2045 64.0828C60.7655 63.7791 61.4127 63.5429 62.149 63.3742C62.8838 63.2069 63.5704 63.2069 64.2074 63.3742C64.5258 63.4505 64.7902 63.584 65.0035 63.7732C65.2154 63.9639 65.3702 64.184 65.4696 64.4348C65.5674 64.6857 65.6098 64.9571 65.5952 65.2461C65.5806 65.5351 65.5192 65.8241 65.4126 66.1131C65.154 66.7982 64.742 67.3762 64.1738 67.8486C63.6055 68.321 62.9948 68.6863 62.3433 68.9445C61.6157 69.2526 60.8882 69.4271 60.1607 69.4726ZM62.1168 65.0891C61.5558 65.5762 61.0445 66.1322 60.5814 66.7557C60.1183 67.3806 59.7283 68.0349 59.4098 68.72C59.6377 68.6599 59.8948 68.5763 60.1826 68.4692C60.6369 68.3019 61.0767 68.1009 61.5018 67.8648C61.9254 67.6286 62.3126 67.344 62.6617 67.008C62.9641 66.7337 63.2446 66.4139 63.5032 66.0486C63.7603 65.6833 63.8743 65.2799 63.8436 64.8383C63.8436 64.5947 63.7676 64.4583 63.6157 64.4275C63.4638 64.3967 63.2899 64.4202 63.0927 64.4965C62.8955 64.5727 62.7056 64.671 62.5244 64.7928C62.3433 64.9146 62.2074 65.0129 62.1168 65.0891Z" fill="url(#paint4_linear)"/>
<path d="M72.7346 64.0167C72.9318 63.9405 73.1743 63.9258 73.4621 63.9713C73.9018 64.0622 74.2583 64.2911 74.5315 64.6564C74.8046 65.0217 74.9931 65.4104 75.0997 65.8212C75.2049 66.2628 75.2429 66.7117 75.2137 67.1679C75.183 67.6242 75.1041 68.0819 74.9756 68.5381C74.847 68.9944 74.6834 69.4359 74.4862 69.8629C74.2889 70.2898 74.0771 70.6844 73.8492 71.0497C73.6067 71.4311 73.3335 71.8111 73.0311 72.191C72.7273 72.571 72.3942 72.9216 72.0304 73.2414C71.6667 73.5612 71.2766 73.8238 70.8588 74.0292C70.441 74.2346 69.991 74.352 69.506 74.3828C69.0064 74.4136 68.5506 74.3402 68.1416 74.1656C67.7325 73.9911 67.3761 73.7402 67.0722 73.4116C66.7683 73.0844 66.5258 72.7074 66.3447 72.2805C66.1621 71.8551 66.0496 71.4047 66.0043 70.9338C65.959 70.4013 65.9809 69.8643 66.0729 69.3245C66.1635 68.7846 66.3111 68.255 66.5171 67.7371C66.7216 67.2193 66.9758 66.7322 67.2782 66.276C67.5806 65.8197 67.9224 65.409 68.3008 65.0422C68.6792 64.6916 69.0999 64.3952 69.563 64.1517C70.0246 63.9082 70.514 63.7629 71.0297 63.7175C71.2868 63.6867 71.5644 63.6911 71.8595 63.7292C72.1546 63.7674 72.4234 63.848 72.6674 63.9683L72.7346 64.0167ZM73.6447 66.163C73.5687 65.9048 73.4592 65.695 73.3145 65.5351C73.1699 65.3752 72.9917 65.2197 72.7799 65.0671C72.5067 65.0525 72.2496 65.0745 72.0071 65.1361C71.7645 65.1977 71.5293 65.2887 71.3014 65.4104C70.9231 65.6085 70.5666 65.9019 70.2321 66.2892C69.899 66.6779 69.6068 67.1107 69.357 67.5904C69.1072 68.0701 68.9027 68.5689 68.7434 69.0853C68.5842 69.6032 68.4936 70.0946 68.4703 70.5582C68.4469 71.0233 68.4966 71.434 68.6178 71.792C68.7391 72.1499 68.9582 72.4052 69.2767 72.5563C69.6711 72.7544 70.1298 72.7544 70.6528 72.5563C71.1758 72.3583 71.6725 71.971 72.1429 71.3915C72.7638 70.6301 73.2196 69.8086 73.5074 68.9254C73.6432 68.4838 73.7309 68.0276 73.7689 67.5552C73.8069 67.0843 73.766 66.6193 73.6447 66.163Z" fill="url(#paint5_linear)"/>
<path d="M59.6742 37.0381C60.1417 36.0508 60.3988 35.0517 60.3039 33.991C60.26 33.5084 60.1826 33.0316 59.8335 32.6546C59.4492 32.2409 58.767 32.1939 58.3317 32.5974C57.9197 32.9788 57.8452 33.416 58.1856 33.9265C58.8225 34.8859 59.5077 35.8292 59.6742 37.0381Z" fill="url(#paint6_linear)"/>
<path d="M62.8516 32.8688C62.2366 32.7499 61.8349 33.0727 61.5719 33.5891C61.3981 33.928 61.3119 34.2977 61.2461 34.6776C61.0694 35.7016 60.8999 36.7403 60.428 37.6733C59.1688 40.1614 56.995 41.5389 54.4647 42.3957C52.1945 43.1644 49.8965 43.0852 47.6044 42.3766C47.9273 42.5174 48.2457 42.67 48.573 42.7991C49.1164 43.0118 49.6789 43.157 50.2559 43.2421C55.0052 43.9448 60.0117 42.6025 62.6705 37.8068C63.3118 36.6508 63.8231 35.4317 63.8012 34.0629C63.7881 33.4248 63.493 32.992 62.8516 32.8688Z" fill="url(#paint7_linear)"/>
<path d="M51.4305 42.0128L51.4407 42.0069C53.8059 41.8983 56.0147 41.3409 57.6845 39.5027C58.3638 38.756 58.6969 37.8083 58.5829 36.7637C58.5055 36.0508 58.0234 35.5388 57.4362 35.5593C56.7744 35.5828 56.5772 36.1021 56.4354 36.6302C56.3639 36.8972 56.358 37.1818 56.3113 37.4562C56.2236 37.9784 56.1608 38.5051 55.8891 38.9819C54.8548 40.8083 53.1923 41.5712 51.1617 41.8485L49.6891 42.0128H51.4305Z" fill="url(#paint8_linear)"/>
<path d="M48.8053 48.6511C48.237 48.3606 47.6658 48.0716 47.0843 47.8031C46.2443 47.4158 45.3883 47.0667 44.5249 46.7351C42.2897 45.7713 40.0283 44.8793 37.6207 44.4187C36.3425 44.1737 35.0554 44.0739 33.6223 44.4114C34.9283 44.8133 36.0912 45.1566 37.2453 45.5278C41.0553 46.7527 44.4723 48.7538 47.8104 50.9162C50.3275 52.5475 52.8621 54.1568 55.7036 55.1793C57.3164 55.7603 58.9555 56.2752 60.7056 55.86C62.5288 55.4273 63.6625 54.2126 64.4966 52.4844C64.447 52.5871 63.4901 52.5651 63.3542 52.571C62.9642 52.59 62.5741 52.5974 62.1826 52.5944C61.4185 52.5871 60.6545 52.5372 59.8948 52.4477C58.4047 52.2717 56.9366 51.9401 55.5034 51.4971C54.0659 51.0526 52.6664 50.4966 51.2946 49.879C50.4488 49.499 49.6292 49.0721 48.8053 48.6511Z" fill="url(#paint9_linear)"/>
<path d="M69.7061 44.3703C69.655 42.6539 68.7346 41.2279 67.3775 40.7687C66.4381 40.4504 66.2102 40.6191 66.2467 41.6079C66.2497 41.693 66.2555 41.7766 66.2584 41.8617C66.3782 45.7141 64.1387 48.3973 60.3579 48.9386C57.9416 49.2848 55.5604 49.0164 53.2054 48.478C51.6686 48.1259 50.1522 47.6887 48.627 47.2897C48.6226 47.2999 48.6314 47.2794 48.627 47.2897C47.2991 46.9552 46.0661 46.6853 46.1464 46.7351C46.3173 46.8393 51.4377 48.8066 51.5356 48.8447C52.8884 49.4125 54.2368 49.9949 55.6246 50.4585C58.7319 51.4986 61.9064 51.7054 65.0766 50.7519C68.1941 49.8144 69.7996 47.5479 69.7061 44.3703Z" fill="url(#paint10_linear)"/>
<path d="M63.4214 14.7877C66.0554 14.9153 70.2291 19.9399 70.086 22.6847C69.693 22.315 69.2913 21.9379 68.8895 21.5595C68.8734 21.5873 68.8574 21.6167 68.8413 21.6445C68.9888 22.29 69.1934 22.9282 69.2693 23.5825C69.3482 24.2632 69.0239 24.8837 68.8165 25.5762C68.5418 25.1126 68.3095 24.7238 68.0875 24.3512C67.8347 25.0363 67.5966 25.6833 67.3585 26.3288C67.3044 26.3273 67.2504 26.3258 67.1978 26.3229C67.0955 25.9195 66.9918 25.516 66.8896 25.1126C66.7756 25.7992 66.4045 26.3464 65.9137 26.7498C65.3936 27.1767 64.799 27.5537 64.1782 27.8075C62.8356 28.3562 61.4551 28.8124 60.0891 29.3083C59.2579 29.6105 58.4223 29.901 57.5983 30.2222C57.2682 30.3513 56.9628 30.5465 56.583 30.6404C56.7744 30.4056 56.9292 30.124 57.163 29.9464C57.9782 29.3259 58.786 28.6833 59.6626 28.1611C60.3258 27.765 61.0884 27.5376 61.8071 27.2383C63.9035 26.364 65.0503 24.7077 65.2943 22.5262C65.5645 20.1174 65.1818 17.7731 63.9006 15.6459C63.7428 15.3818 63.6011 15.1089 63.4214 14.7877ZM67.788 22.56C67.8201 22.5145 67.8508 22.4675 67.883 22.4221C67.3906 21.5903 67.0079 20.688 66.2614 20.0059C66.5068 20.7878 66.8063 21.5448 67.1744 22.2666C67.2562 22.4265 67.5776 22.4646 67.788 22.56ZM66.0013 17.7202C65.902 18.0371 66.0919 18.1647 66.2599 18.3144C66.5287 18.5535 66.8004 18.7926 67.0415 19.0582C67.3322 19.3765 67.5922 19.7227 67.8654 20.0557C67.899 20.0264 67.9326 19.9971 67.9648 19.9692C67.5119 19.0684 66.8998 18.3026 66.0013 17.7202ZM66.3213 22.7874C66.0539 23.5649 66.1635 23.9243 66.666 23.9859C66.5462 23.5693 66.4338 23.1776 66.3213 22.7874Z" fill="url(#paint11_linear)"/>
<path d="M58.9043 10.8545C61.4959 9.21441 66.8603 8.94594 68.9275 10.4496C68.5359 10.4496 68.0743 10.435 67.6127 10.454C67.0312 10.4775 66.5827 10.7695 66.2891 11.2594C66.162 11.4707 66.0495 11.4883 65.8362 11.4296C65.2051 11.2565 64.574 11.0819 63.9327 10.9543C63.3556 10.8399 62.8137 11.0291 62.2804 11.2594C64.5229 11.3841 66.6865 11.8154 68.682 12.86C69.4227 13.2487 70.0903 13.7783 70.7915 14.2448C70.7813 14.2903 70.7711 14.3343 70.7594 14.3798C70.6294 14.4062 70.4994 14.4561 70.3708 14.4561C69.9355 14.4532 69.5483 14.5676 69.2255 14.8727C69.0166 15.0693 68.8354 15.0634 68.6148 14.8449C67.3994 13.6346 65.8362 13.0962 64.2526 12.6032C64.1752 12.5798 64.0963 12.5578 64.016 12.5519C63.8597 12.5416 63.7019 12.5431 63.5193 12.5798C66.7434 14.0659 69.858 15.6884 71.8317 18.8469C71.3029 18.7926 70.7594 18.6181 70.2671 18.7149C69.4139 18.8821 69.0472 18.4787 68.6207 17.8317C67.582 16.2532 66.1123 15.1368 64.4119 14.3519C63.9707 14.148 63.4521 14.1099 62.9933 14.0028C62.111 12.3759 60.5639 11.5939 58.9043 10.8545Z" fill="url(#paint12_linear)"/>
<path d="M53.5356 26.3698C53.6554 25.2402 53.7357 24.1532 53.8993 23.0808C54.0045 22.3913 54.1725 21.6974 54.418 21.046C54.7072 20.2743 55.0023 19.4821 55.629 18.8924C55.6685 18.8557 55.7444 18.8587 55.8423 18.8322C55.4055 20.5252 54.9337 22.1756 55.312 23.895C55.3632 23.9052 55.4143 23.9155 55.4654 23.9243C55.5005 23.8216 55.5428 23.7219 55.5706 23.6177C55.8964 22.3678 56.1812 21.1061 56.5625 19.8738C56.732 19.3266 57.0928 18.8381 57.4347 18.354C56.7729 20.1144 56.358 21.8998 56.545 23.7952C57.1688 22.0098 57.7678 20.2157 58.6326 18.5198C58.1754 20.3081 58.6165 21.9702 59.2696 23.6309C59.3295 21.9453 59.3893 20.2831 59.4492 18.621C59.6976 19.7887 60.2045 20.8069 61.1278 21.5932C60.6077 20.2025 60.2177 18.7882 60.2177 17.2845C60.3813 17.7188 60.5478 18.1515 60.7085 18.5873C61.1702 19.8328 61.8115 20.9638 62.7786 21.8895C62.856 21.9629 62.932 22.0847 63.0182 22.0949C63.436 22.1433 63.3966 22.469 63.2607 22.648C62.9276 23.0866 62.5317 23.4842 62.127 23.8598C62.0482 23.9331 61.7589 23.8891 61.6523 23.7981C61.2885 23.4886 60.9613 23.1365 60.6223 22.7962C60.4909 22.6641 60.3681 22.5248 60.1446 22.4177C60.1446 23.9536 60.1446 25.4896 60.1446 27.0271C59.3134 26.6706 58.3492 24.7913 57.7999 22.4221C57.4581 23.1438 57.5428 23.8686 57.4756 24.5625C57.4084 25.2666 57.3879 25.9767 57.347 26.6838C57.3032 26.6941 57.2594 26.7043 57.2156 26.7161C57.0665 26.4461 56.9161 26.1762 56.7671 25.9063C56.301 25.0671 54.8986 24.8339 54.2003 25.5014C53.9636 25.7229 53.7971 26.0192 53.5356 26.3698Z" fill="url(#paint13_linear)"/>
<path d="M44.1538 14.0805C44.6738 12.9055 45.1691 11.7377 46.2779 11.013C46.3991 10.9338 46.5598 10.7225 46.5277 10.6433C46.4722 10.5054 46.2969 10.3807 46.1435 10.322C45.6775 10.146 45.2465 10.2971 44.8725 10.9191C44.4927 11.5499 44.2663 12.2717 43.9171 12.9231C43.6279 13.4629 43.2626 13.9646 42.9208 14.4737C42.8697 14.55 42.7542 14.5837 42.6681 14.638C42.6286 14.6145 42.5906 14.5911 42.5512 14.5691C42.6315 14.3578 42.6885 14.1334 42.7951 13.9382C43.2188 13.1666 43.5738 12.3803 43.7287 11.4971C43.79 11.145 44.05 10.8179 44.2546 10.5025C44.6782 9.84523 45.1267 9.20267 45.5635 8.55424C45.6687 8.39727 45.7856 8.24617 45.8747 8.07893C46.0792 7.6975 46.2794 7.31901 46.7965 7.26179C46.8579 7.62562 47.1267 7.6887 47.4466 7.7107C48.3173 7.77085 49.039 7.40556 49.746 6.95812C50.5291 6.46373 51.3092 5.9576 52.1287 5.53363C52.5159 5.33265 52.995 5.31211 53.4494 5.29157C52.8621 5.57471 52.2339 5.79623 51.7007 6.15859C51.1543 6.53121 50.7015 7.04174 50.2369 7.53613C54.6298 5.77129 58.6808 5.99575 62.2249 9.44033C62.1562 9.39779 62.0891 9.34937 62.016 9.31417C61.5544 9.09705 61.0986 8.86379 60.6267 8.67014C59.7925 8.32979 58.9452 8.05105 58.0322 7.9733C56.5771 7.8486 55.1411 7.89555 53.6919 8.10827C52.0922 8.34299 50.6343 8.93421 49.2362 9.68972C47.9389 10.391 46.833 11.3445 45.8615 12.4639C45.4218 12.97 44.9251 13.4248 44.4459 13.8957C44.3671 13.9778 44.2516 14.0204 44.1538 14.0805Z" fill="url(#paint14_linear)"/>
<path d="M51.0667 12.7749C52.2325 12.505 53.2609 12.0634 53.5882 10.9147C54.5071 10.9367 55.3383 10.9572 56.2557 10.9807C56.171 11.1113 56.1228 11.2198 56.0454 11.2976C55.5735 11.77 55.4274 12.4213 55.7839 12.9583C55.9285 13.1769 56.2776 13.2649 56.545 13.391C56.6458 13.4395 56.7758 13.4262 56.916 13.5216C56.6619 13.614 56.3989 13.6874 56.1549 13.8018C55.4931 14.1158 54.8357 14.4385 54.1886 14.7818C54.0761 14.8405 54.0235 15.0121 53.9431 15.1309C54.0717 15.2175 54.19 15.3495 54.3317 15.3818C55.2083 15.5828 56.0848 15.6019 56.9628 15.3613C57.2491 15.2835 57.5559 15.2762 57.9036 15.2292C57.7356 15.9217 57.3879 16.4337 56.9599 16.8826C56.3375 17.5354 55.6874 18.178 54.8182 18.4919C53.8336 18.8469 52.8314 18.979 51.8336 18.5183C51.7547 18.4816 51.6875 18.4185 51.5415 18.3173C52.3756 18.4611 53.1002 18.4846 53.8277 18.1868C54.583 17.8787 55.0184 17.3212 55.312 16.6112C55.2872 16.5716 55.2609 16.5305 55.236 16.4909C54.6619 16.8136 54.0892 17.1349 53.4786 17.4782C53.5443 17.1202 53.6291 16.843 53.6334 16.5628C53.6349 16.4366 53.48 16.3075 53.3953 16.1799C53.2901 16.2723 53.1353 16.3442 53.09 16.4586C52.9673 16.7696 52.8402 17.0938 52.811 17.4224C52.7774 17.7877 52.6298 17.8669 52.2967 17.8508C51.277 17.8024 50.2544 17.7804 49.2333 17.7511C49.1398 17.7481 49.0433 17.7467 48.9498 17.7613C48.5189 17.8288 48.4984 17.754 48.5715 17.3462C48.7146 16.554 49.4422 16.6082 49.9286 16.3134C50.3391 16.064 50.8052 15.8762 51.1558 15.5593C51.8848 14.8991 51.8541 14.3167 51.4012 13.3588C51.3092 13.1681 51.1894 12.9891 51.0667 12.7749ZM53.9212 13.0727C53.1543 13.281 52.2149 14.5779 51.968 15.6209C52.5714 14.9813 53.296 14.2126 54.06 13.4028C54.0425 13.3602 53.9811 13.215 53.9212 13.0727Z" fill="url(#paint15_linear)"/>
<path d="M61.7444 7.69456C60.9467 7.37622 60.1461 7.10335 59.3938 6.73219C59.1352 6.60456 58.938 6.25541 58.8182 5.96347C58.5582 5.33265 58.678 4.66368 58.7422 4.00645C58.7627 3.79227 58.7904 3.57808 58.8211 3.30081C58.0366 4.18983 58.0264 5.26223 57.8496 6.29355C57.2624 5.35759 57.2989 4.32627 57.3529 3.28028C56.6225 4.10915 56.5641 5.11993 56.5567 6.15272C56.0104 5.03631 56.2193 3.85388 56.2032 2.6832C55.5312 3.74386 55.3763 4.90134 55.5254 6.16885C55.4494 6.06029 55.3398 5.96347 55.3018 5.84171C54.7189 3.99619 54.9951 2.21521 55.7357 0.475317C55.7956 0.334482 55.9227 0.222988 56.0951 0C56.1156 0.205384 56.136 0.305142 56.1345 0.4049C56.1258 1.00932 56.3157 1.27925 56.8796 1.51544C58.0819 2.01716 59.2857 2.00689 60.4938 1.54918C60.5786 1.51691 60.6662 1.49344 60.8518 1.43329C60.618 1.84846 60.4515 2.20788 60.2294 2.52916C59.4537 3.65143 59.3324 4.82359 59.9124 6.06176C59.9343 6.10724 59.9679 6.14832 60.0629 6.29502C60.3112 4.92775 60.5742 3.6529 61.7444 2.86951C61.2871 3.59422 61.1132 4.20744 61.0796 5.45441C61.5281 4.46417 62.111 3.72625 63.1936 3.42991C62.5727 4.07687 62.2045 4.79278 61.9854 5.64806C63.3689 4.41722 63.9386 4.16636 64.2249 4.64021C62.8882 5.22409 62.4675 6.56935 61.7444 7.69456Z" fill="url(#paint16_linear)"/>
<path d="M44.9427 17.5427C43.8164 16.9911 43.2291 15.9979 42.8755 14.7407C43.1517 14.7818 43.3956 14.8478 43.6381 14.8449C43.8397 14.8434 44.0808 14.817 44.2371 14.7055C45.1063 14.0864 45.8543 13.347 46.5555 12.5314C47.1735 11.814 47.9463 11.2301 48.6694 10.6081C49.3107 10.0565 49.9565 9.50194 50.8052 9.28335C51.4217 9.12491 52.0382 8.96648 52.6547 8.80804C52.6649 8.84325 52.6766 8.87992 52.6868 8.91513C52.6605 8.9386 52.6357 8.97968 52.608 8.98115C51.4948 9.04863 50.8242 9.78948 50.2121 10.5963C49.9039 11.0042 50.0762 11.4003 50.5934 11.4003C51.0068 11.4003 51.4582 11.3137 51.8235 11.1289C52.3552 10.8589 52.8256 10.4672 53.3778 10.0888C53.2741 10.3514 53.2098 10.5978 53.0842 10.8076C52.9323 11.0585 52.719 11.2726 52.5466 11.5118C51.9958 12.2702 51.2216 12.4565 50.3889 12.2262C49.058 11.8595 47.974 12.2658 47.1019 13.2253C46.5088 13.8766 45.9653 14.6087 45.5621 15.3906C45.2363 16.0214 45.1531 16.7755 44.9427 17.5427Z" fill="url(#paint17_linear)"/>
<path d="M63.4185 25.5146C63.1848 25.4163 63.0445 25.3737 62.9189 25.3033C62.3608 24.9908 62.3039 24.7796 62.6676 24.272C63.4419 23.1923 64.0029 22.0245 64.0891 20.6778C64.1592 19.5848 63.9386 18.53 63.5193 17.5266C63.3075 17.019 63.0694 16.5055 62.5537 16.2151C62.3477 16.0992 62.1285 16.0097 61.8948 15.8997C61.9094 15.8776 61.9343 15.8351 61.9635 15.797C62.6165 14.971 62.7509 14.9857 63.4273 15.819C64.0555 16.5921 64.4178 17.4782 64.6676 18.4303C65.0752 19.9839 65.0386 21.5506 64.6091 23.0676C64.3637 23.9272 63.8232 24.7033 63.4185 25.5146Z" fill="url(#paint18_linear)"/>
<path d="M58.6122 14.5559C57.4844 14.9153 56.488 14.9842 55.5209 14.4561C56.4544 14.5485 57.1717 14.0937 57.8744 13.5817C58.8109 12.8981 59.8247 12.9715 60.8429 13.35C61.0358 13.4218 61.1804 13.6199 61.3294 13.8326C60.8517 13.6331 60.4207 13.7549 60.0219 13.95C59.7663 14.0747 59.5238 14.2698 59.3412 14.4884C59.1542 14.7128 59.2404 14.9842 59.515 15.0781C59.8934 15.2087 60.2922 15.3128 60.6881 15.3451C60.8546 15.3583 61.0387 15.1588 61.214 15.0561C61.0898 14.9608 60.9744 14.8493 60.8386 14.7715C60.6486 14.6629 60.4441 14.5793 60.2104 14.4693C60.6443 14.236 61.0928 14.2316 61.512 14.415C61.8071 14.5441 61.9664 14.817 61.8962 15.1852C61.7472 15.9613 61.1088 16.4307 60.2966 16.1564C59.4463 15.8688 58.7962 16.0258 58.1768 16.617C58.0234 16.7623 57.8058 16.84 57.5647 16.9809C57.8233 16.5716 58.0789 16.2576 58.2338 15.8982C58.3989 15.5226 58.4646 15.1045 58.6122 14.5559Z" fill="url(#paint19_linear)"/>
<path d="M52.8037 9.38018C54.9016 8.10826 57.835 7.853 60.1111 9.27308C59.9971 9.32443 59.9007 9.34643 59.8321 9.40218C59.404 9.74106 58.9877 10.0961 58.5523 10.4247C58.4544 10.4995 58.2514 10.5655 58.174 10.5157C56.8898 9.69265 55.4421 9.51074 53.9724 9.41392C53.6072 9.39045 53.242 9.39191 52.8037 9.38018Z" fill="url(#paint20_linear)"/>
<path d="M45.3911 17.7496C45.1107 16.4278 46.9017 13.8605 48.4678 13.2238C48.4123 13.5935 48.3451 13.9456 48.31 14.3006C48.2472 14.9343 48.8812 15.4258 49.4904 15.238C49.7008 15.1735 49.9287 15.1632 50.1361 15.0943C50.345 15.0253 50.5393 14.9138 50.7804 14.8625C50.5685 15.2615 50.2515 15.5828 49.8717 15.7955C49.5108 15.9965 49.096 16.0537 48.6635 16.1094C47.7607 16.2253 46.8111 16.3412 46.1304 17.1012C45.9156 17.3403 45.6439 17.531 45.3911 17.7496Z" fill="url(#paint21_linear)"/>
<path d="M63.1848 21.2308C62.8166 20.7628 62.4967 20.3888 62.2133 19.9868C61.8875 19.5247 61.5705 19.0523 61.2914 18.5594C61.0811 18.1882 60.8342 17.7877 60.7991 17.3828C60.7772 17.1217 61.0709 16.7931 61.2944 16.5657C61.4857 16.3706 61.7443 16.3632 62.0161 16.573C63.2447 17.5207 63.4711 18.8381 63.4214 20.2655C63.4156 20.4254 63.3834 20.5853 63.3484 20.7423C63.3235 20.8611 63.2739 20.9726 63.1848 21.2308Z" fill="url(#paint22_linear)"/>
<path d="M60.7275 27.1488C60.4528 25.9063 60.2615 24.6886 60.6062 23.3727C61.4097 24.206 62.1548 24.9776 62.894 25.742C62.5142 26.4006 61.4506 27.0916 60.7275 27.1488Z" fill="url(#paint23_linear)"/>
<path d="M45.0318 5.21822C45.584 5.65832 45.6614 6.58402 45.2159 7.11068C44.6885 7.73417 44.0136 8.09359 43.248 8.31071C43.1969 8.32538 43.1443 8.34152 43.0947 8.35912C42.4168 8.60412 42.0618 9.01342 42.0852 9.52101C42.1115 10.0653 42.6053 10.6492 43.1911 10.8252C43.3065 10.8604 43.4234 10.8927 43.6133 10.9484C43.5402 11.277 43.4686 11.6057 43.3839 11.9886C42.6476 11.613 41.9917 11.2228 41.6615 10.5465C40.9983 9.18799 41.7813 8.10093 43.0128 7.66082C43.7053 7.41289 44.3788 7.10922 45.061 6.83195C45.4248 6.68378 45.4788 6.39037 45.3824 6.06616C45.2947 5.77275 45.1574 5.49402 45.042 5.20795L45.0318 5.21822Z" fill="url(#paint24_linear)"/>
<path d="M51.6773 23.1292C52.0966 23.3155 52.491 23.2583 52.8782 23.0617C53.4377 22.7771 53.6145 21.891 53.2638 21.2837C53.2171 21.2015 53.1557 21.1281 53.1134 21.0431C52.7744 20.3624 52.494 20.2333 51.7883 20.7159C50.3464 21.7032 48.4079 20.9858 47.7709 19.3457C47.4875 18.6151 47.3998 17.8083 47.2348 17.0322C47.2187 16.9574 47.264 16.8121 47.3195 16.7887C47.6482 16.6493 47.9827 16.4806 48.3655 16.6757C48.0806 17.5339 48.1624 18.3701 48.4181 19.2005C48.8622 20.6484 50.3976 20.999 51.5824 20.622C51.6963 20.5853 51.7986 20.5047 51.914 20.4885C52.3274 20.4269 52.7525 20.1599 53.1031 20.691C53.5502 21.3687 53.8088 22.0685 53.3471 22.7991C53.0257 23.3111 52.0995 23.5605 51.6773 23.1292Z" fill="url(#paint25_linear)"/>
<path d="M59.7765 12.7235C59.3295 12.7426 58.881 12.7969 58.4369 12.7705C58.0892 12.7499 57.8511 12.4903 57.7561 12.1631C57.6524 11.7993 57.61 11.4091 57.8759 11.0893C57.9548 10.9939 58.1739 10.9015 58.2514 10.9455C58.472 11.0687 58.7554 11.2286 58.827 11.4384C59.0096 11.9739 59.2725 12.4023 59.7765 12.7235Z" fill="url(#paint26_linear)"/>
<path d="M49.8776 12.7705C49.7694 13.0096 49.6336 13.2429 49.5635 13.4952C49.5226 13.6448 49.5883 13.8223 49.6073 13.9881C49.7417 13.9676 49.9506 13.9911 49.9944 13.9177C50.0645 13.8003 50.0251 13.617 50.0368 13.35C50.1639 13.3661 50.4473 13.3221 50.5452 13.438C50.6708 13.5862 50.7088 13.8708 50.6737 14.0791C50.6168 14.4209 50.3801 14.6439 50.0149 14.6952C49.6029 14.7539 49.2859 14.5735 49.0039 14.2991C48.9762 14.2713 48.9441 14.2404 48.9324 14.2052C48.7629 13.6859 49.3239 12.8409 49.8776 12.7705Z" fill="url(#paint27_linear)"/>
<path d="M57.8452 13.0199C57.4172 13.039 56.9789 13.1079 56.5538 13.0624C56.0279 13.0067 55.8117 12.2468 56.1667 11.7978C56.266 11.6717 56.3858 11.5529 56.5202 11.4678C56.7087 11.3475 56.8796 11.3137 56.9848 11.6071C57.1031 11.9357 57.2594 12.2556 57.4332 12.5592C57.5326 12.7294 57.6991 12.8614 57.8452 13.0199Z" fill="url(#paint28_linear)"/>
<path d="M57.9197 28.3914C58.1608 27.6711 58.4018 26.9508 58.6429 26.2305C58.6867 26.2363 58.732 26.2422 58.7758 26.2495C58.973 26.5811 59.1615 26.9185 59.3704 27.2427C59.5019 27.4466 59.4478 27.5787 59.2784 27.7195C59.0213 27.9322 58.7919 28.1831 58.5216 28.3767C58.3916 28.4692 58.1944 28.4648 58.0278 28.5044C57.9928 28.4677 57.9563 28.4295 57.9197 28.3914Z" fill="url(#paint29_linear)"/>
<path d="M57.1016 11.0365C56.5275 10.8604 55.9782 10.6902 55.4289 10.523C55.4713 10.0726 55.8511 9.80122 56.2382 9.94939C56.4384 10.0271 56.6268 10.1342 56.8269 10.2135C57.3762 10.4306 57.3938 10.4746 57.1016 11.0365Z" fill="url(#paint30_linear)"/>
<path d="M61.6479 13.7079C61.5149 13.5348 61.4112 13.3191 61.2403 13.1974C60.8488 12.9201 60.428 12.6795 60.0102 12.4404C59.756 12.2952 59.591 12.1162 59.7502 11.8228C59.9197 11.5118 60.1388 11.6878 60.3258 11.814C60.9846 12.2556 61.439 12.8658 61.7954 13.5553C61.7458 13.6067 61.6975 13.658 61.6479 13.7079Z" fill="url(#paint31_linear)"/>
<path d="M55.4741 9.91711C55.3222 10.234 55.1937 10.5054 55.0578 10.7885C54.5801 10.5758 54.1243 10.3734 53.6685 10.1694C53.6743 10.1254 53.6787 10.0814 53.6846 10.0359C54.266 9.95965 54.8372 9.77774 55.4741 9.91711Z" fill="url(#paint32_linear)"/>
<path d="M47.1457 17.9154C46.6592 17.9887 46.1873 18.0591 45.7155 18.131C45.695 18.0914 45.676 18.0503 45.6556 18.0107C46.0193 17.663 46.3831 17.3153 46.8111 16.906C46.9412 17.2963 47.0376 17.5867 47.1457 17.9154Z" fill="url(#paint33_linear)"/>
<path d="M45.0406 5.21088C44.5599 4.86907 44.0851 4.57126 43.4511 4.872C43.1662 5.00697 42.9383 5.17127 42.9588 5.47935C42.969 5.63926 43.1429 5.82117 43.289 5.93266C43.5227 6.11311 43.771 6.04709 43.9829 5.85198C44.0194 5.81823 44.0574 5.78889 44.164 5.6994C43.771 6.25394 43.2816 6.27008 42.9164 5.81677C42.7426 5.60111 42.8156 5.16247 43.0611 4.94682C43.603 4.47004 44.5541 4.54485 45.026 5.10526C45.0449 5.12873 45.0303 5.18154 45.0318 5.21969C45.0318 5.21822 45.0406 5.21088 45.0406 5.21088Z" fill="url(#paint34_linear)"/>
<path d="M51.9476 22.5629C52.0352 22.3472 52.1857 22.1551 52.1419 22.0333C52.101 21.9145 51.803 21.7604 51.7182 21.8074C51.5342 21.9086 51.3603 22.1052 51.2843 22.3032C51.2288 22.4485 51.3369 22.6568 51.3749 22.8504C50.9688 22.3663 51.0973 21.8338 51.6715 21.69C51.8146 21.6533 52.0323 21.7516 52.158 21.8573C52.2602 21.9438 52.3464 22.1551 52.3113 22.2739C52.2777 22.3898 52.0849 22.4617 51.9476 22.5629Z" fill="url(#paint35_linear)"/>
<path d="M39.6236 24.1209C40.541 23.9888 41.4702 23.9067 42.3964 23.8906C43.3284 23.873 44.2648 23.9331 45.1954 24.0153C46.1099 24.0959 47.0201 24.2456 47.9316 24.3644C43.2393 23.1761 38.6521 23.3756 34.2066 25.4221C35.0978 25.1713 35.9831 24.8955 36.8815 24.6784C37.7887 24.4583 38.7018 24.2529 39.6236 24.1209Z" fill="url(#paint36_linear)"/>
<path d="M45.3328 25.4852C45.1969 25.5292 45.0596 25.5512 44.9456 25.6143C44.6111 25.7992 44.6096 26.2026 44.9383 26.3933C45.191 26.5415 45.4555 26.5385 45.7111 26.3962C45.901 26.2906 45.9668 26.1454 45.9346 25.94C45.6278 26.0031 45.362 25.9503 45.3328 25.4852Z" fill="url(#paint37_linear)"/>
<path d="M45.118 23.8994C44.9018 23.8495 44.6841 23.8055 44.465 23.7659C43.774 23.6441 43.0772 23.5825 42.3774 23.5605C42.0735 23.5517 41.7711 23.5678 41.4673 23.581C40.9852 23.603 40.506 23.6558 40.0283 23.7277C39.425 23.8201 38.8304 23.9507 38.246 24.1135C37.8706 23.9551 37.2628 23.6118 36.6522 22.9062C35.5521 21.6343 34.4346 23.2054 34.0898 21.8631C34.0898 21.8631 33.9671 22.8049 34.7341 22.9326C35.0306 22.981 35.0628 23.1732 34.6712 23.2142C34.2929 23.2539 33.9715 23.0543 33.9715 23.0543C33.9715 23.0543 34.2242 23.628 35.0817 23.471C35.5595 23.383 36.0839 23.4563 36.0766 23.7996C36.0649 24.2558 35.1314 23.9844 33.9978 23.8553C32.8641 23.7262 32.1907 24.6065 31.5289 23.9566C31.5289 23.9566 31.339 24.8192 32.4916 24.7502C32.8495 24.7282 32.6128 25.359 30.5048 25.2637C30.5048 25.2637 31.114 26.3053 32.3236 26.4549L32.2783 26.4755C31.8766 26.4608 31.4237 26.5341 30.9694 26.7923C30.9694 26.7923 31.488 26.8745 31.301 27.3645C31.1081 27.8691 30.5077 28.2476 29.8722 28.6907C29.0337 29.276 28.6962 30.4408 29.0834 31.2301C29.0834 31.2301 29.0804 30.501 29.2893 30.5435C29.4091 30.5685 29.3697 30.969 29.3697 30.969L29.9044 32.5401C29.9087 32.8878 29.938 33.2341 29.9964 33.5817C30.1469 34.4884 30.4756 35.326 30.9387 36.1138C30.9489 36.2268 31.0278 36.3045 31.0848 36.3926C31.0964 36.4116 31.1184 36.4248 31.1388 36.4072C31.1476 36.4014 31.1505 36.3764 31.1447 36.3676C31.0862 36.2708 31.0891 36.1432 31 36.061C30.9883 36.0243 30.9781 35.9862 30.965 35.9495C30.6816 35.1515 30.4887 34.3343 30.4405 33.4834C30.4171 33.058 30.4449 32.6399 30.5033 32.2218C30.6377 31.2756 31.003 30.4218 31.542 29.6384C31.7246 29.3728 31.9233 29.1234 32.1351 28.8843H32.1337C32.1322 28.8872 36.3805 23.5883 45.118 23.8994Z" fill="url(#paint38_linear)"/>
<path d="M68.2087 30.8017C68.1897 30.6022 68.1634 30.4042 68.1283 30.2061C68.0232 29.6105 67.8303 29.0061 67.4154 28.5674C67.0005 28.1288 66.3227 27.8985 65.7749 28.1508C65.3527 28.3445 65.0839 28.7816 64.9743 29.2349C64.8647 29.6883 64.8925 30.1606 64.9188 30.6257C65.0298 32.5886 65.0882 34.6145 64.4075 36.4586C63.8085 38.0855 62.6617 39.4675 61.325 40.5663C59.0869 42.4045 56.2543 43.4666 53.3749 43.647C50.9162 43.8011 48.4385 43.4196 46.5613 41.7047C45.7242 40.9404 43.6907 39.086 44.1318 37.7833C44.1874 37.6205 44.2998 37.4855 44.4167 37.3608C45.3283 36.3808 46.6679 36.0478 47.6204 35.1339C47.6643 35.0928 47.7154 35.059 47.7797 35.0092C47.3414 35.0092 46.9499 34.9857 46.5628 35.015C45.8688 35.0664 45.1822 35.2014 44.5701 35.5417C43.828 35.9539 43.042 36.1843 42.202 36.2444C41.3109 36.3075 40.4373 36.2224 39.6031 35.8806C39.0392 35.6503 38.5556 35.3172 38.2693 34.7524C38.1524 34.5236 38.1539 34.5221 37.8909 34.5764C37.0977 34.7392 36.4315 35.1427 35.853 35.6957C35.2643 36.2576 34.8392 36.9104 34.8202 37.7687C34.8041 37.7584 34.7968 37.7554 34.7953 37.751C34.7895 37.7349 34.7836 37.7188 34.7807 37.7026C34.6259 37.0366 34.7661 36.4263 35.1445 35.8674C35.5024 35.3393 35.9918 34.9534 36.5309 34.6277C37.7113 33.9148 39.0027 33.4937 40.3379 33.2047C41.0581 33.0478 41.793 32.9627 42.519 32.835C43.5387 32.6561 44.5175 32.3274 45.4846 31.9636C45.5694 31.9313 45.6629 31.902 45.752 31.9064C46.2063 31.9313 46.6621 31.9563 47.115 32.0047C47.6292 32.059 48.1405 32.1397 48.6737 32.2115C48.345 31.767 47.9725 31.39 47.5226 31.0702C48.4911 30.5714 49.3764 29.9978 50.1624 29.279C50.9892 28.522 51.6656 27.6564 52.0235 26.5796C52.1258 26.2716 52.193 25.94 52.2091 25.6158C52.2266 25.2505 51.9125 25.007 51.559 25.0877C51.3632 25.1317 51.147 25.208 51.0024 25.3385C50.7482 25.5688 50.5407 25.8505 50.3187 26.1131C50.1507 26.3112 50.0017 26.5268 49.8191 26.7087C49.708 26.8173 49.5473 26.876 49.3735 26.9772C49.4305 26.5958 49.4597 26.273 49.5327 25.9576C49.5956 25.6833 49.6861 25.4119 49.8015 25.1566C49.9038 24.9336 50.1025 24.8075 50.3625 24.8221C50.4429 24.8265 50.5218 24.8515 50.6196 24.8705C50.3654 24.652 50.1186 24.6021 49.8585 24.762C49.6701 24.8779 49.486 25.0246 49.3516 25.1992C49.1105 25.5087 48.9046 25.8461 48.6898 26.1747C48.459 26.5268 48.2486 26.895 47.9988 27.2339C47.7899 27.5171 47.5386 27.7679 47.3063 28.0335C47.5386 27.6476 47.7841 27.2779 48.0105 26.8965C48.1829 26.6046 48.2384 26.2804 48.2019 25.9415C48.1507 25.4544 47.7943 25.2153 47.3458 25.4016C47.1661 25.475 47.0069 25.6158 46.8622 25.7522C46.703 25.9019 46.573 26.0838 46.424 26.2451C46.1245 26.5694 45.7505 26.7249 45.3122 26.7234C44.8564 26.7205 44.6066 26.54 44.4532 26.1102C44.4109 25.9899 44.3729 25.8681 44.3188 25.7537C44.237 25.5791 44.1041 25.5043 43.9229 25.5615C43.7389 25.6187 43.5387 25.6833 43.3926 25.8021C43.0698 26.0618 42.7747 26.3566 42.4723 26.6412C42.4036 26.7058 42.3481 26.7835 42.2604 26.8833C42.2765 26.6075 42.2897 26.3728 42.3028 26.1381C42.2531 26.1689 42.2312 26.2026 42.2122 26.2378C41.8266 26.9449 41.717 27.6975 41.8251 28.4912C42.0048 29.8115 43.0186 30.9132 44.313 31.1861C45.2304 31.3783 46.1143 31.233 46.982 30.9235C47.0098 30.9132 47.0361 30.9015 47.0638 30.8942C47.0887 30.8868 47.1164 30.8854 47.1427 30.8824C46.123 31.4003 45.061 31.7186 43.9098 31.569C42.5994 31.3988 41.6381 30.7343 41.1326 29.4843C40.7455 28.5264 40.7937 27.5449 41.0479 26.565C41.1356 26.2275 41.2554 25.8975 41.362 25.5644C40.2853 26.8349 39.9493 28.2564 40.5015 29.8614C39.6352 29.0941 39.4468 28.0232 39.1999 26.9787C38.7952 28.6833 39.5198 29.9655 40.728 31.0687C40.4738 30.9924 40.2298 30.903 39.98 30.8487C39.7273 30.7929 39.4687 30.7577 39.2101 30.7372C38.1597 30.6536 37.1371 30.8164 36.1364 31.123C34.7632 31.5426 33.4995 32.1719 32.4462 33.1739C32.1979 33.4101 31.9817 33.6815 31.7392 33.9485C31.7786 33.5407 31.9174 33.1739 32.1175 32.8365C32.3147 32.5035 32.5237 32.1749 32.7632 31.8712C33.0057 31.5631 33.2775 31.2741 33.5638 31.0057C33.8443 30.7401 34.1467 30.4937 34.4608 30.2707C34.7734 30.0477 35.1138 29.8643 35.4863 29.6384C33.7537 30.1606 32.3031 31.0335 31.2395 32.4639C30.2257 33.8282 30.0314 35.2879 30.8729 36.8254C30.9021 36.8782 30.886 36.9809 30.8539 37.0381C30.3718 37.8552 30.268 38.7237 30.5062 39.6347C30.6172 40.0616 30.8042 40.4562 31.0818 40.8435C31.1782 39.8562 31.672 39.2063 32.5383 38.8851C32.3396 38.6694 32.1336 38.4655 31.9495 38.244C31.764 38.021 31.5989 37.7789 31.4251 37.5457C31.4368 37.5354 31.4499 37.5251 31.4616 37.5149C31.6427 37.6821 31.8224 37.8479 32.0036 38.0136C32.4565 38.4288 32.9079 38.844 33.4542 39.1345C34.5046 39.6905 35.6383 39.8914 36.8099 39.9208C37.7375 39.9443 38.6491 39.7961 39.5651 39.6714C39.8763 39.6288 40.1889 39.5936 40.5015 39.5672C41.717 39.4616 42.4182 40.5897 43.1793 41.3159C44.0807 42.1756 45.0931 42.9165 46.1785 43.5209C52.3683 46.9699 60.5171 45.5615 65.002 40.0279C66.3884 38.3173 67.4052 36.3031 67.9209 34.1568C68.1751 33.0507 68.3124 31.9167 68.2087 30.8017ZM46.3758 29.7821C44.7761 29.6809 43.7389 28.5308 43.8514 26.8774C43.8703 26.5958 43.9317 26.317 43.9741 26.0368C43.977 26.0163 43.9931 25.9972 44.0164 25.9473C44.0369 26.2202 44.0281 26.4681 44.0778 26.7029C44.1611 27.096 44.237 27.5024 44.3963 27.8677C44.8652 28.9327 45.8338 29.3259 46.871 29.21C48.0456 29.078 49.0097 28.4956 49.8965 27.7518C49.9272 27.7268 49.9549 27.699 49.9856 27.6711C49.7606 28.1567 49.429 28.5601 49.0185 28.8946C48.2486 29.521 47.3706 29.8467 46.3758 29.7821Z" fill="url(#paint39_linear)"/>
<path d="M50.1945 53.8414C46.2487 51.3929 42.3627 48.8389 38.0385 47.0784C34.5864 45.673 31.0496 44.7385 27.2659 45.0847C24.3033 45.3561 21.2851 46.4124 19.0747 48.4677C17.2706 50.146 16.3122 52.4536 15.1844 54.5955C13.9251 56.9838 12.5577 59.3193 11.2502 61.6812C9.90331 64.1121 8.69954 66.7791 7.10279 69.0604C6.98154 69.2276 6.86467 69.3875 6.75072 69.5401C6.63677 69.6927 6.5199 69.8526 6.39865 70.0198C6.32268 70.0051 6.2248 69.967 6.10355 69.9054C5.39064 69.6472 4.62221 69.5093 3.79535 69.4946C2.96849 69.4799 2.22928 69.6237 1.57773 69.9289C0.95539 70.2179 0.517125 70.6286 0.258548 71.1626C-2.82745e-05 71.6952 -0.0643072 72.2204 0.0657115 72.7382C0.194269 73.2561 0.520047 73.7006 1.04304 74.0747C1.56604 74.4473 2.29648 74.6116 3.23729 74.5661C3.96481 74.506 4.64997 74.3226 5.29568 74.0175C5.93993 73.7138 6.53451 73.3397 7.08088 72.8981C7.64186 73.4468 8.18677 74.0101 8.71853 74.5881C9.24883 75.1661 9.7879 75.7442 10.3328 76.3236C10.7419 76.7652 11.1743 77.1833 11.6286 77.5794C12.0829 77.9755 12.5607 78.3364 13.0617 78.6635C13.5614 78.9907 14.0887 79.2694 14.6424 79.4968C15.1961 79.7257 15.7834 79.8768 16.4042 79.9531C17.6781 80.1056 18.7241 79.8988 19.5422 79.3369C20.3603 78.7736 20.8526 77.8978 21.0206 76.7109C20.1412 77.0454 19.2427 77.1789 18.3268 77.11C17.4093 77.041 16.5489 76.8239 15.7454 76.4586C14.9726 76.1388 14.2553 75.7309 13.5964 75.2366C12.9376 74.7422 12.2889 74.2126 11.652 73.6492C11.167 73.2385 10.6893 72.8306 10.2189 72.4272C9.74846 72.0238 9.24883 71.6467 8.71853 71.2961C9.08229 70.8854 9.43144 70.4629 9.76453 70.0286C10.0976 69.5944 10.4161 69.1645 10.7199 68.7391C10.9522 68.4002 13.7118 63.3859 16.3181 58.6415C18.1675 55.2762 21.0718 51.8008 24.35 49.7821C31.0934 45.6261 38.3175 50.702 44.2531 54.0439C46.1537 55.1148 48.1186 56.0376 50.2822 56.4366C51.6203 56.6845 52.9512 56.7388 54.2426 56.1769C52.8562 55.3833 51.5005 54.6527 50.1945 53.8414ZM4.02033 72.1998C3.63319 72.4213 3.21246 72.5915 2.75812 72.7133C2.333 72.8204 1.99262 72.8204 1.7355 72.7133C1.47693 72.6076 1.31039 72.458 1.23588 72.2688C1.15991 72.078 1.18329 71.8624 1.30454 71.6174C1.4258 71.3739 1.64493 71.1685 1.9634 71.0013C2.44841 70.7577 2.96703 70.6932 3.5207 70.8076C4.07438 70.922 4.6076 71.123 5.12329 71.412C4.7756 71.7172 4.40746 71.9798 4.02033 72.1998Z" fill="url(#paint40_linear)"/>
</g>
<defs>
<linearGradient id="paint0_linear" x1="38.1991" y1="-5.5248" x2="17.8792" y2="74.828" gradientUnits="userSpaceOnUse">
<stop offset="0.0757" stop-color="#F6D46B"/>
<stop offset="0.12" stop-color="#BF8033"/>
<stop offset="0.2182" stop-color="#9E6031"/>
<stop offset="0.3091" stop-color="#C88B30"/>
<stop offset="0.5273" stop-color="#F2DA75"/>
<stop offset="0.6909" stop-color="#27AAE1"/>
<stop offset="0.8135" stop-color="#8BCBF0"/>
<stop offset="0.8848" stop-color="#00AEEF"/>
<stop offset="1" stop-color="#2B3990"/>
</linearGradient>
<linearGradient id="paint1_linear" x1="46.3366" y1="-3.467" x2="26.0167" y2="76.8858" gradientUnits="userSpaceOnUse">
<stop offset="0.0757" stop-color="#F6D46B"/>
<stop offset="0.12" stop-color="#BF8033"/>
<stop offset="0.2182" stop-color="#9E6031"/>
<stop offset="0.3091" stop-color="#C88B30"/>
<stop offset="0.5273" stop-color="#F2DA75"/>
<stop offset="0.6909" stop-color="#27AAE1"/>
<stop offset="0.8135" stop-color="#8BCBF0"/>
<stop offset="0.8848" stop-color="#00AEEF"/>
<stop offset="1" stop-color="#2B3990"/>
</linearGradient>
<linearGradient id="paint2_linear" x1="56.8632" y1="-0.804938" x2="36.5433" y2="79.5478" gradientUnits="userSpaceOnUse">
<stop offset="0.0757" stop-color="#F6D46B"/>
<stop offset="0.12" stop-color="#BF8033"/>
<stop offset="0.2182" stop-color="#9E6031"/>
<stop offset="0.3091" stop-color="#C88B30"/>
<stop offset="0.5273" stop-color="#F2DA75"/>
<stop offset="0.6909" stop-color="#27AAE1"/>
<stop offset="0.8135" stop-color="#8BCBF0"/>
<stop offset="0.8848" stop-color="#00AEEF"/>
<stop offset="1" stop-color="#2B3990"/>
</linearGradient>
<linearGradient id="paint3_linear" x1="67.7829" y1="1.95644" x2="47.463" y2="82.3092" gradientUnits="userSpaceOnUse">
<stop offset="0.0757" stop-color="#F6D46B"/>
<stop offset="0.12" stop-color="#BF8033"/>
<stop offset="0.2182" stop-color="#9E6031"/>
<stop offset="0.3091" stop-color="#C88B30"/>
<stop offset="0.5273" stop-color="#F2DA75"/>
<stop offset="0.6909" stop-color="#27AAE1"/>
<stop offset="0.8135" stop-color="#8BCBF0"/>
<stop offset="0.8848" stop-color="#00AEEF"/>
<stop offset="1" stop-color="#2B3990"/>
</linearGradient>
<linearGradient id="paint4_linear" x1="77.8835" y1="4.51075" x2="57.5636" y2="84.8635" gradientUnits="userSpaceOnUse">
<stop offset="0.0757" stop-color="#F6D46B"/>
<stop offset="0.12" stop-color="#BF8033"/>
<stop offset="0.2182" stop-color="#9E6031"/>
<stop offset="0.3091" stop-color="#C88B30"/>
<stop offset="0.5273" stop-color="#F2DA75"/>
<stop offset="0.6909" stop-color="#27AAE1"/>
<stop offset="0.8135" stop-color="#8BCBF0"/>
<stop offset="0.8848" stop-color="#00AEEF"/>
<stop offset="1" stop-color="#2B3990"/>
</linearGradient>
<linearGradient id="paint5_linear" x1="86.1438" y1="6.59963" x2="65.8238" y2="86.9524" gradientUnits="userSpaceOnUse">
<stop offset="0.0757" stop-color="#F6D46B"/>
<stop offset="0.12" stop-color="#BF8033"/>
<stop offset="0.2182" stop-color="#9E6031"/>
<stop offset="0.3091" stop-color="#C88B30"/>
<stop offset="0.5273" stop-color="#F2DA75"/>
<stop offset="0.6909" stop-color="#27AAE1"/>
<stop offset="0.8135" stop-color="#8BCBF0"/>
<stop offset="0.8848" stop-color="#00AEEF"/>
<stop offset="1" stop-color="#2B3990"/>
</linearGradient>
<linearGradient id="paint6_linear" x1="67.2504" y1="1.82174" x2="46.9305" y2="82.1746" gradientUnits="userSpaceOnUse">
<stop offset="0.0757" stop-color="#F6D46B"/>
<stop offset="0.12" stop-color="#BF8033"/>
<stop offset="0.2182" stop-color="#9E6031"/>
<stop offset="0.3091" stop-color="#C88B30"/>
<stop offset="0.5273" stop-color="#F2DA75"/>
<stop offset="0.6909" stop-color="#27AAE1"/>
<stop offset="0.8135" stop-color="#8BCBF0"/>
<stop offset="0.8848" stop-color="#00AEEF"/>
<stop offset="1" stop-color="#2B3990"/>
</linearGradient>
<linearGradient id="paint7_linear" x1="65.0628" y1="1.26856" x2="44.7429" y2="81.6213" gradientUnits="userSpaceOnUse">
<stop offset="0.0757" stop-color="#F6D46B"/>
<stop offset="0.12" stop-color="#BF8033"/>
<stop offset="0.2182" stop-color="#9E6031"/>
<stop offset="0.3091" stop-color="#C88B30"/>
<stop offset="0.5273" stop-color="#F2DA75"/>
<stop offset="0.6909" stop-color="#27AAE1"/>
<stop offset="0.8135" stop-color="#8BCBF0"/>
<stop offset="0.8848" stop-color="#00AEEF"/>
<stop offset="1" stop-color="#2B3990"/>
</linearGradient>
<linearGradient id="paint8_linear" x1="63.8858" y1="0.970912" x2="43.5658" y2="81.3237" gradientUnits="userSpaceOnUse">
<stop offset="0.0757" stop-color="#F6D46B"/>
<stop offset="0.12" stop-color="#BF8033"/>
<stop offset="0.2182" stop-color="#9E6031"/>
<stop offset="0.3091" stop-color="#C88B30"/>
<stop offset="0.5273" stop-color="#F2DA75"/>
<stop offset="0.6909" stop-color="#27AAE1"/>
<stop offset="0.8135" stop-color="#8BCBF0"/>
<stop offset="0.8848" stop-color="#00AEEF"/>
<stop offset="1" stop-color="#2B3990"/>
</linearGradient>
<linearGradient id="paint9_linear" x1="61.139" y1="0.276345" x2="40.8191" y2="80.6291" gradientUnits="userSpaceOnUse">
<stop offset="0.0757" stop-color="#F6D46B"/>
<stop offset="0.12" stop-color="#BF8033"/>
<stop offset="0.2182" stop-color="#9E6031"/>
<stop offset="0.3091" stop-color="#C88B30"/>
<stop offset="0.5273" stop-color="#F2DA75"/>
<stop offset="0.6909" stop-color="#27AAE1"/>
<stop offset="0.8135" stop-color="#8BCBF0"/>
<stop offset="0.8848" stop-color="#00AEEF"/>
<stop offset="1" stop-color="#2B3990"/>
</linearGradient>
<linearGradient id="paint10_linear" x1="68.9391" y1="2.24883" x2="48.6191" y2="82.6016" gradientUnits="userSpaceOnUse">
<stop offset="0.0757" stop-color="#F6D46B"/>
<stop offset="0.12" stop-color="#BF8033"/>
<stop offset="0.2182" stop-color="#9E6031"/>
<stop offset="0.3091" stop-color="#C88B30"/>
<stop offset="0.5273" stop-color="#F2DA75"/>
<stop offset="0.6909" stop-color="#27AAE1"/>
<stop offset="0.8135" stop-color="#8BCBF0"/>
<stop offset="0.8848" stop-color="#00AEEF"/>
<stop offset="1" stop-color="#2B3990"/>
</linearGradient>
<linearGradient id="paint11_linear" x1="67.7196" y1="5.35793" x2="50.8769" y2="86.5192" gradientUnits="userSpaceOnUse">
<stop offset="0.0757" stop-color="#F6D46B"/>
<stop offset="0.12" stop-color="#BF8033"/>
<stop offset="0.2182" stop-color="#9E6031"/>
<stop offset="0.3091" stop-color="#C88B30"/>
<stop offset="0.5273" stop-color="#F2DA75"/>
<stop offset="0.6909" stop-color="#27AAE1"/>
<stop offset="0.8135" stop-color="#8BCBF0"/>
<stop offset="0.8848" stop-color="#00AEEF"/>
<stop offset="1" stop-color="#2B3990"/>
</linearGradient>
<linearGradient id="paint12_linear" x1="67.3401" y1="5.27918" x2="50.4975" y2="86.4405" gradientUnits="userSpaceOnUse">
<stop offset="0.0757" stop-color="#F6D46B"/>
<stop offset="0.12" stop-color="#BF8033"/>
<stop offset="0.2182" stop-color="#9E6031"/>
<stop offset="0.3091" stop-color="#C88B30"/>
<stop offset="0.5273" stop-color="#F2DA75"/>
<stop offset="0.6909" stop-color="#27AAE1"/>
<stop offset="0.8135" stop-color="#8BCBF0"/>
<stop offset="0.8848" stop-color="#00AEEF"/>
<stop offset="1" stop-color="#2B3990"/>
</linearGradient>
<linearGradient id="paint13_linear" x1="62.4249" y1="4.25915" x2="45.5822" y2="85.4205" gradientUnits="userSpaceOnUse">
<stop offset="0.0757" stop-color="#F6D46B"/>
<stop offset="0.12" stop-color="#BF8033"/>
<stop offset="0.2182" stop-color="#9E6031"/>
<stop offset="0.3091" stop-color="#C88B30"/>
<stop offset="0.5273" stop-color="#F2DA75"/>
<stop offset="0.6909" stop-color="#27AAE1"/>
<stop offset="0.8135" stop-color="#8BCBF0"/>
<stop offset="0.8848" stop-color="#00AEEF"/>
<stop offset="1" stop-color="#2B3990"/>
</linearGradient>
<linearGradient id="paint14_linear" x1="54.3295" y1="2.5792" x2="37.4868" y2="83.7405" gradientUnits="userSpaceOnUse">
<stop offset="0.0757" stop-color="#F6D46B"/>
<stop offset="0.12" stop-color="#BF8033"/>
<stop offset="0.2182" stop-color="#9E6031"/>
<stop offset="0.3091" stop-color="#C88B30"/>
<stop offset="0.5273" stop-color="#F2DA75"/>
<stop offset="0.6909" stop-color="#27AAE1"/>
<stop offset="0.8135" stop-color="#8BCBF0"/>
<stop offset="0.8848" stop-color="#00AEEF"/>
<stop offset="1" stop-color="#2B3990"/>
</linearGradient>
<linearGradient id="paint15_linear" x1="55.9888" y1="2.92355" x2="39.1462" y2="84.0849" gradientUnits="userSpaceOnUse">
<stop offset="0.0757" stop-color="#F6D46B"/>
<stop offset="0.12" stop-color="#BF8033"/>
<stop offset="0.2182" stop-color="#9E6031"/>
<stop offset="0.3091" stop-color="#C88B30"/>
<stop offset="0.5273" stop-color="#F2DA75"/>
<stop offset="0.6909" stop-color="#27AAE1"/>
<stop offset="0.8135" stop-color="#8BCBF0"/>
<stop offset="0.8848" stop-color="#00AEEF"/>
<stop offset="1" stop-color="#2B3990"/>
</linearGradient>
<linearGradient id="paint16_linear" x1="59.6443" y1="3.68212" x2="42.8016" y2="84.8434" gradientUnits="userSpaceOnUse">
<stop offset="0.0757" stop-color="#F6D46B"/>
<stop offset="0.12" stop-color="#BF8033"/>
<stop offset="0.2182" stop-color="#9E6031"/>
<stop offset="0.3091" stop-color="#C88B30"/>
<stop offset="0.5273" stop-color="#F2DA75"/>
<stop offset="0.6909" stop-color="#27AAE1"/>
<stop offset="0.8135" stop-color="#8BCBF0"/>
<stop offset="0.8848" stop-color="#00AEEF"/>
<stop offset="1" stop-color="#2B3990"/>
</linearGradient>
<linearGradient id="paint17_linear" x1="50.3238" y1="1.74794" x2="33.4812" y2="82.9092" gradientUnits="userSpaceOnUse">
<stop offset="0.0757" stop-color="#F6D46B"/>
<stop offset="0.12" stop-color="#BF8033"/>
<stop offset="0.2182" stop-color="#9E6031"/>
<stop offset="0.3091" stop-color="#C88B30"/>
<stop offset="0.5273" stop-color="#F2DA75"/>
<stop offset="0.6909" stop-color="#27AAE1"/>
<stop offset="0.8135" stop-color="#8BCBF0"/>
<stop offset="0.8848" stop-color="#00AEEF"/>
<stop offset="1" stop-color="#2B3990"/>
</linearGradient>
<linearGradient id="paint18_linear" x1="66.235" y1="5.04982" x2="49.3923" y2="86.2112" gradientUnits="userSpaceOnUse">
<stop offset="0.0757" stop-color="#F6D46B"/>
<stop offset="0.12" stop-color="#BF8033"/>
<stop offset="0.2182" stop-color="#9E6031"/>
<stop offset="0.3091" stop-color="#C88B30"/>
<stop offset="0.5273" stop-color="#F2DA75"/>
<stop offset="0.6909" stop-color="#27AAE1"/>
<stop offset="0.8135" stop-color="#8BCBF0"/>
<stop offset="0.8848" stop-color="#00AEEF"/>
<stop offset="1" stop-color="#2B3990"/>
</linearGradient>
<linearGradient id="paint19_linear" x1="60.947" y1="3.95246" x2="44.1043" y2="85.1138" gradientUnits="userSpaceOnUse">
<stop offset="0.0757" stop-color="#F6D46B"/>
<stop offset="0.12" stop-color="#BF8033"/>
<stop offset="0.2182" stop-color="#9E6031"/>
<stop offset="0.3091" stop-color="#C88B30"/>
<stop offset="0.5273" stop-color="#F2DA75"/>
<stop offset="0.6909" stop-color="#27AAE1"/>
<stop offset="0.8135" stop-color="#8BCBF0"/>
<stop offset="0.8848" stop-color="#00AEEF"/>
<stop offset="1" stop-color="#2B3990"/>
</linearGradient>
<linearGradient id="paint20_linear" x1="57.7024" y1="3.27915" x2="40.8598" y2="84.4404" gradientUnits="userSpaceOnUse">
<stop offset="0.0757" stop-color="#F6D46B"/>
<stop offset="0.12" stop-color="#BF8033"/>
<stop offset="0.2182" stop-color="#9E6031"/>
<stop offset="0.3091" stop-color="#C88B30"/>
<stop offset="0.5273" stop-color="#F2DA75"/>
<stop offset="0.6909" stop-color="#27AAE1"/>
<stop offset="0.8135" stop-color="#8BCBF0"/>
<stop offset="0.8848" stop-color="#00AEEF"/>
<stop offset="1" stop-color="#2B3990"/>
</linearGradient>
<linearGradient id="paint21_linear" x1="50.9878" y1="1.88572" x2="34.1451" y2="83.0471" gradientUnits="userSpaceOnUse">
<stop offset="0.0757" stop-color="#F6D46B"/>
<stop offset="0.12" stop-color="#BF8033"/>
<stop offset="0.2182" stop-color="#9E6031"/>
<stop offset="0.3091" stop-color="#C88B30"/>
<stop offset="0.5273" stop-color="#F2DA75"/>
<stop offset="0.6909" stop-color="#27AAE1"/>
<stop offset="0.8135" stop-color="#8BCBF0"/>
<stop offset="0.8848" stop-color="#00AEEF"/>
<stop offset="1" stop-color="#2B3990"/>
</linearGradient>
<linearGradient id="paint22_linear" x1="65.0055" y1="4.7947" x2="48.1629" y2="85.956" gradientUnits="userSpaceOnUse">
<stop offset="0.0757" stop-color="#F6D46B"/>
<stop offset="0.12" stop-color="#BF8033"/>
<stop offset="0.2182" stop-color="#9E6031"/>
<stop offset="0.3091" stop-color="#C88B30"/>
<stop offset="0.5273" stop-color="#F2DA75"/>
<stop offset="0.6909" stop-color="#27AAE1"/>
<stop offset="0.8135" stop-color="#8BCBF0"/>
<stop offset="0.8848" stop-color="#00AEEF"/>
<stop offset="1" stop-color="#2B3990"/>
</linearGradient>
<linearGradient id="paint23_linear" x1="65.7803" y1="4.95553" x2="48.9377" y2="86.1167" gradientUnits="userSpaceOnUse">
<stop offset="0.0757" stop-color="#F6D46B"/>
<stop offset="0.12" stop-color="#BF8033"/>
<stop offset="0.2182" stop-color="#9E6031"/>
<stop offset="0.3091" stop-color="#C88B30"/>
<stop offset="0.5273" stop-color="#F2DA75"/>
<stop offset="0.6909" stop-color="#27AAE1"/>
<stop offset="0.8135" stop-color="#8BCBF0"/>
<stop offset="0.8848" stop-color="#00AEEF"/>
<stop offset="1" stop-color="#2B3990"/>
</linearGradient>
<linearGradient id="paint24_linear" x1="44.9605" y1="0.634945" x2="28.1179" y2="81.7962" gradientUnits="userSpaceOnUse">
<stop offset="0.0757" stop-color="#F6D46B"/>
<stop offset="0.12" stop-color="#BF8033"/>
<stop offset="0.2182" stop-color="#9E6031"/>
<stop offset="0.3091" stop-color="#C88B30"/>
<stop offset="0.5273" stop-color="#F2DA75"/>
<stop offset="0.6909" stop-color="#27AAE1"/>
<stop offset="0.8135" stop-color="#8BCBF0"/>
<stop offset="0.8848" stop-color="#00AEEF"/>
<stop offset="1" stop-color="#2B3990"/>
</linearGradient>
<linearGradient id="paint25_linear" x1="53.9238" y1="2.495" x2="37.0811" y2="83.6563" gradientUnits="userSpaceOnUse">
<stop offset="0.0757" stop-color="#F6D46B"/>
<stop offset="0.12" stop-color="#BF8033"/>
<stop offset="0.2182" stop-color="#9E6031"/>
<stop offset="0.3091" stop-color="#C88B30"/>
<stop offset="0.5273" stop-color="#F2DA75"/>
<stop offset="0.6909" stop-color="#27AAE1"/>
<stop offset="0.8135" stop-color="#8BCBF0"/>
<stop offset="0.8848" stop-color="#00AEEF"/>
<stop offset="1" stop-color="#2B3990"/>
</linearGradient>
<linearGradient id="paint26_linear" x1="60.4353" y1="3.84629" x2="43.5926" y2="85.0076" gradientUnits="userSpaceOnUse">
<stop offset="0.0757" stop-color="#F6D46B"/>
<stop offset="0.12" stop-color="#BF8033"/>
<stop offset="0.2182" stop-color="#9E6031"/>
<stop offset="0.3091" stop-color="#C88B30"/>
<stop offset="0.5273" stop-color="#F2DA75"/>
<stop offset="0.6909" stop-color="#27AAE1"/>
<stop offset="0.8135" stop-color="#8BCBF0"/>
<stop offset="0.8848" stop-color="#00AEEF"/>
<stop offset="1" stop-color="#2B3990"/>
</linearGradient>
<linearGradient id="paint27_linear" x1="52.2271" y1="2.14291" x2="35.3844" y2="83.3043" gradientUnits="userSpaceOnUse">
<stop offset="0.0757" stop-color="#F6D46B"/>
<stop offset="0.12" stop-color="#BF8033"/>
<stop offset="0.2182" stop-color="#9E6031"/>
<stop offset="0.3091" stop-color="#C88B30"/>
<stop offset="0.5273" stop-color="#F2DA75"/>
<stop offset="0.6909" stop-color="#27AAE1"/>
<stop offset="0.8135" stop-color="#8BCBF0"/>
<stop offset="0.8848" stop-color="#00AEEF"/>
<stop offset="1" stop-color="#2B3990"/>
</linearGradient>
<linearGradient id="paint28_linear" x1="58.7964" y1="3.50618" x2="41.9537" y2="84.6675" gradientUnits="userSpaceOnUse">
<stop offset="0.0757" stop-color="#F6D46B"/>
<stop offset="0.12" stop-color="#BF8033"/>
<stop offset="0.2182" stop-color="#9E6031"/>
<stop offset="0.3091" stop-color="#C88B30"/>
<stop offset="0.5273" stop-color="#F2DA75"/>
<stop offset="0.6909" stop-color="#27AAE1"/>
<stop offset="0.8135" stop-color="#8BCBF0"/>
<stop offset="0.8848" stop-color="#00AEEF"/>
<stop offset="1" stop-color="#2B3990"/>
</linearGradient>
<linearGradient id="paint29_linear" x1="63.5092" y1="4.48417" x2="46.6667" y2="85.6456" gradientUnits="userSpaceOnUse">
<stop offset="0.0757" stop-color="#F6D46B"/>
<stop offset="0.12" stop-color="#BF8033"/>
<stop offset="0.2182" stop-color="#9E6031"/>
<stop offset="0.3091" stop-color="#C88B30"/>
<stop offset="0.5273" stop-color="#F2DA75"/>
<stop offset="0.6909" stop-color="#27AAE1"/>
<stop offset="0.8135" stop-color="#8BCBF0"/>
<stop offset="0.8848" stop-color="#00AEEF"/>
<stop offset="1" stop-color="#2B3990"/>
</linearGradient>
<linearGradient id="paint30_linear" x1="57.849" y1="3.30958" x2="41.0062" y2="84.4708" gradientUnits="userSpaceOnUse">
<stop offset="0.0757" stop-color="#F6D46B"/>
<stop offset="0.12" stop-color="#BF8033"/>
<stop offset="0.2182" stop-color="#9E6031"/>
<stop offset="0.3091" stop-color="#C88B30"/>
<stop offset="0.5273" stop-color="#F2DA75"/>
<stop offset="0.6909" stop-color="#27AAE1"/>
<stop offset="0.8135" stop-color="#8BCBF0"/>
<stop offset="0.8848" stop-color="#00AEEF"/>
<stop offset="1" stop-color="#2B3990"/>
</linearGradient>
<linearGradient id="paint31_linear" x1="62.493" y1="4.27329" x2="45.6503" y2="85.4347" gradientUnits="userSpaceOnUse">
<stop offset="0.0757" stop-color="#F6D46B"/>
<stop offset="0.12" stop-color="#BF8033"/>
<stop offset="0.2182" stop-color="#9E6031"/>
<stop offset="0.3091" stop-color="#C88B30"/>
<stop offset="0.5273" stop-color="#F2DA75"/>
<stop offset="0.6909" stop-color="#27AAE1"/>
<stop offset="0.8135" stop-color="#8BCBF0"/>
<stop offset="0.8848" stop-color="#00AEEF"/>
<stop offset="1" stop-color="#2B3990"/>
</linearGradient>
<linearGradient id="paint32_linear" x1="56.0306" y1="2.93222" x2="39.1879" y2="84.0936" gradientUnits="userSpaceOnUse">
<stop offset="0.0757" stop-color="#F6D46B"/>
<stop offset="0.12" stop-color="#BF8033"/>
<stop offset="0.2182" stop-color="#9E6031"/>
<stop offset="0.3091" stop-color="#C88B30"/>
<stop offset="0.5273" stop-color="#F2DA75"/>
<stop offset="0.6909" stop-color="#27AAE1"/>
<stop offset="0.8135" stop-color="#8BCBF0"/>
<stop offset="0.8848" stop-color="#00AEEF"/>
<stop offset="1" stop-color="#2B3990"/>
</linearGradient>
<linearGradient id="paint33_linear" x1="49.7629" y1="1.63156" x2="32.9203" y2="82.7928" gradientUnits="userSpaceOnUse">
<stop offset="0.0757" stop-color="#F6D46B"/>
<stop offset="0.12" stop-color="#BF8033"/>
<stop offset="0.2182" stop-color="#9E6031"/>
<stop offset="0.3091" stop-color="#C88B30"/>
<stop offset="0.5273" stop-color="#F2DA75"/>
<stop offset="0.6909" stop-color="#27AAE1"/>
<stop offset="0.8135" stop-color="#8BCBF0"/>
<stop offset="0.8848" stop-color="#00AEEF"/>
<stop offset="1" stop-color="#2B3990"/>
</linearGradient>
<linearGradient id="paint34_linear" x1="44.899" y1="0.622173" x2="28.0564" y2="81.7835" gradientUnits="userSpaceOnUse">
<stop offset="0.0757" stop-color="#F6D46B"/>
<stop offset="0.12" stop-color="#BF8033"/>
<stop offset="0.2182" stop-color="#9E6031"/>
<stop offset="0.3091" stop-color="#C88B30"/>
<stop offset="0.5273" stop-color="#F2DA75"/>
<stop offset="0.6909" stop-color="#27AAE1"/>
<stop offset="0.8135" stop-color="#8BCBF0"/>
<stop offset="0.8848" stop-color="#00AEEF"/>
<stop offset="1" stop-color="#2B3990"/>
</linearGradient>
<linearGradient id="paint35_linear" x1="55.7156" y1="2.86688" x2="38.873" y2="84.0282" gradientUnits="userSpaceOnUse">
<stop offset="0.0757" stop-color="#F6D46B"/>
<stop offset="0.12" stop-color="#BF8033"/>
<stop offset="0.2182" stop-color="#9E6031"/>
<stop offset="0.3091" stop-color="#C88B30"/>
<stop offset="0.5273" stop-color="#F2DA75"/>
<stop offset="0.6909" stop-color="#27AAE1"/>
<stop offset="0.8135" stop-color="#8BCBF0"/>
<stop offset="0.8848" stop-color="#00AEEF"/>
<stop offset="1" stop-color="#2B3990"/>
</linearGradient>
<linearGradient id="paint36_linear" x1="48.0708" y1="-3.02843" x2="27.7509" y2="77.3243" gradientUnits="userSpaceOnUse">
<stop offset="0.0757" stop-color="#F6D46B"/>
<stop offset="0.12" stop-color="#BF8033"/>
<stop offset="0.2182" stop-color="#9E6031"/>
<stop offset="0.3091" stop-color="#C88B30"/>
<stop offset="0.5273" stop-color="#F2DA75"/>
<stop offset="0.6909" stop-color="#27AAE1"/>
<stop offset="0.8135" stop-color="#8BCBF0"/>
<stop offset="0.8848" stop-color="#00AEEF"/>
<stop offset="1" stop-color="#2B3990"/>
</linearGradient>
<linearGradient id="paint37_linear" x1="52.3322" y1="-1.9508" x2="32.0122" y2="78.4019" gradientUnits="userSpaceOnUse">
<stop offset="0.0757" stop-color="#F6D46B"/>
<stop offset="0.12" stop-color="#BF8033"/>
<stop offset="0.2182" stop-color="#9E6031"/>
<stop offset="0.3091" stop-color="#C88B30"/>
<stop offset="0.5273" stop-color="#F2DA75"/>
<stop offset="0.6909" stop-color="#27AAE1"/>
<stop offset="0.8135" stop-color="#8BCBF0"/>
<stop offset="0.8848" stop-color="#00AEEF"/>
<stop offset="1" stop-color="#2B3990"/>
</linearGradient>
<linearGradient id="paint38_linear" x1="44.7768" y1="-3.86144" x2="24.4569" y2="76.4913" gradientUnits="userSpaceOnUse">
<stop offset="0.0757" stop-color="#F6D46B"/>
<stop offset="0.12" stop-color="#BF8033"/>
<stop offset="0.2182" stop-color="#9E6031"/>
<stop offset="0.3091" stop-color="#C88B30"/>
<stop offset="0.5273" stop-color="#F2DA75"/>
<stop offset="0.6909" stop-color="#27AAE1"/>
<stop offset="0.8135" stop-color="#8BCBF0"/>
<stop offset="0.8848" stop-color="#00AEEF"/>
<stop offset="1" stop-color="#2B3990"/>
</linearGradient>
<linearGradient id="paint39_linear" x1="57.8666" y1="-0.551229" x2="37.5466" y2="79.8015" gradientUnits="userSpaceOnUse">
<stop offset="0.0757" stop-color="#F6D46B"/>
<stop offset="0.12" stop-color="#BF8033"/>
<stop offset="0.2182" stop-color="#9E6031"/>
<stop offset="0.3091" stop-color="#C88B30"/>
<stop offset="0.5273" stop-color="#F2DA75"/>
<stop offset="0.6909" stop-color="#27AAE1"/>
<stop offset="0.8135" stop-color="#8BCBF0"/>
<stop offset="0.8848" stop-color="#00AEEF"/>
<stop offset="1" stop-color="#2B3990"/>
</linearGradient>
<linearGradient id="paint40_linear" x1="44.1911" y1="-4.00953" x2="23.8712" y2="76.3432" gradientUnits="userSpaceOnUse">
<stop offset="0.0757" stop-color="#F6D46B"/>
<stop offset="0.12" stop-color="#BF8033"/>
<stop offset="0.2182" stop-color="#9E6031"/>
<stop offset="0.3091" stop-color="#C88B30"/>
<stop offset="0.5273" stop-color="#F2DA75"/>
<stop offset="0.6909" stop-color="#27AAE1"/>
<stop offset="0.8135" stop-color="#8BCBF0"/>
<stop offset="0.8848" stop-color="#00AEEF"/>
<stop offset="1" stop-color="#2B3990"/>
</linearGradient>
<clipPath id="clip0">
<rect width="75.2239" height="80" fill="white"/>
</clipPath>
</defs>
</svg>
