<svg width="113" height="120" viewBox="0 0 113 120" fill="none" xmlns="http://www.w3.org/2000/svg">
<g clip-path="url(#clip0)">
<path d="M32.4295 95.4422C32.1556 95.7613 31.8378 96.208 31.4741 96.7779C31.1103 97.3479 30.7575 97.942 30.4156 98.5582C30.0738 99.1743 29.7517 99.7685 29.4427 100.338C29.1359 100.911 28.9014 101.377 28.7437 101.742C28.4259 102.451 28.1169 103.16 27.8233 103.866C27.5275 104.574 27.2667 105.294 27.0388 106.025C26.8569 106.709 26.7715 107.275 26.7824 107.721C26.7934 108.166 26.9249 108.458 27.1747 108.595C27.4245 108.731 27.7882 108.692 28.2659 108.476C28.7437 108.258 29.3572 107.82 30.1067 107.158C30.8342 106.496 31.5157 105.765 32.1534 104.966C32.7888 104.167 33.3345 103.333 33.7903 102.466C34.4039 102.169 34.7676 102.352 34.8816 103.014C34.3578 103.974 33.7662 104.927 33.1088 105.875C32.4492 106.823 31.7217 107.697 30.9262 108.496C29.6991 109.796 28.5903 110.659 27.5998 111.081C26.6115 111.504 25.7525 111.555 25.025 111.236C24.2514 110.916 23.7343 110.397 23.4735 109.678C23.2127 108.958 23.0922 108.221 23.1163 107.468C23.1623 106.053 23.4122 104.654 23.8658 103.272C24.3194 101.89 24.8891 100.594 25.5706 99.3834C25.9804 98.6528 26.4296 97.9112 26.9183 97.1564C27.4069 96.4039 27.9701 95.7635 28.6056 95.2376C28.8335 95.0549 29.1162 94.9119 29.458 94.8085C29.7999 94.705 30.1571 94.661 30.5318 94.672C30.9065 94.683 31.2659 94.7468 31.6055 94.8613C31.9518 94.9735 32.2257 95.1671 32.4295 95.4422ZM32.3966 92.2228C31.897 92.0622 31.4631 91.7607 31.1015 91.314C30.7378 90.8695 30.6129 90.326 30.7268 89.6878C30.8167 89.1399 30.97 88.6139 31.187 88.1122C31.4039 87.6105 31.7962 87.3024 32.3637 87.188C32.6815 87.1418 32.9948 87.1418 33.3016 87.188C33.6084 87.2342 33.9108 87.3134 34.2044 87.4278C34.8859 87.6567 35.3242 87.9648 35.5171 88.3521C35.7099 88.7416 35.8173 89.0254 35.8414 89.2081C35.8874 89.6658 35.8458 90.1103 35.723 90.5438C35.5981 90.9773 35.3768 91.3536 35.0569 91.6749C34.6931 92.0182 34.2724 92.2294 33.7947 92.3086C33.317 92.3879 32.8502 92.3593 32.3966 92.2228Z" fill="url(#paint0_linear)"/>
<path d="M51.0514 102.464C51.7549 102.167 52.1208 102.349 52.1427 103.012C51.4612 104.312 50.7206 105.54 49.9251 106.693C49.1297 107.846 48.2312 108.902 47.2298 109.862C46.7981 110.273 46.2963 110.656 45.7287 111.008C45.159 111.363 44.5805 111.614 43.9888 111.761C43.3971 111.908 42.8055 111.922 42.216 111.796C41.6244 111.671 41.0897 111.323 40.612 110.751C40.2022 110.295 39.9524 109.769 39.8625 109.175C39.7705 108.581 39.7771 107.965 39.8801 107.325C39.9831 106.687 40.1408 106.057 40.3578 105.441C40.5747 104.825 40.7851 104.255 40.9889 103.729C41.4425 102.701 41.9728 101.713 42.5754 100.767C43.178 99.8208 43.7302 98.8328 44.2298 97.8051C43.5703 98.331 42.8603 98.9472 42.0977 99.6536C41.3351 100.362 40.693 101.036 40.1715 101.674C39.49 102.497 38.8414 103.335 38.2278 104.191C37.6142 105.047 37.0116 105.921 36.42 106.812C36.1241 107.27 35.8393 107.721 35.5675 108.165C35.2936 108.61 35.0328 109.061 34.783 109.519C34.6472 109.723 34.4763 109.981 34.2725 110.289C34.0687 110.597 33.7838 110.74 33.42 110.718C33.1461 110.718 32.8744 110.639 32.6005 110.478C32.3266 110.32 32.0833 110.124 31.8664 109.895C31.6516 109.666 31.4807 109.422 31.3558 109.158C31.2309 108.896 31.1915 108.66 31.2375 108.456C31.6012 106.79 32.2214 105.186 33.0957 103.643C33.9701 102.103 34.8641 100.611 35.7735 99.1739C36.1592 98.5797 36.5295 97.9636 36.8823 97.3232C37.2351 96.685 37.6274 96.0667 38.0591 95.4725C38.2629 95.1755 38.5302 94.9708 38.8611 94.8564C39.1898 94.742 39.65 94.8564 40.2416 95.1997C40.5155 95.3603 40.7237 95.5144 40.8727 95.6618C41.0196 95.8114 41.0941 95.9941 41.0941 96.2097C41.0941 96.4276 41.0086 96.696 40.8377 97.0151C40.6667 97.3342 40.4104 97.7347 40.0707 98.2144C39.753 98.6479 39.4177 99.1739 39.0649 99.79C38.7121 100.406 38.4119 100.967 38.1621 101.469C38.5258 101.058 38.9641 100.567 39.4747 99.9969C39.9852 99.4269 40.5265 98.8548 41.0941 98.2848C41.6616 97.7149 42.2357 97.189 42.8164 96.7092C43.3971 96.2295 43.9362 95.8642 44.4358 95.6134C45.0494 95.2943 45.7703 95.1799 46.6009 95.2701C47.4314 95.3625 48.1742 95.7278 48.836 96.366C49.0179 96.5486 49.0968 96.7026 49.0749 96.8281C49.053 96.9535 48.9828 97.1317 48.8711 97.3584C48.6673 97.8381 48.4284 98.3178 48.1545 98.7976C47.8806 99.2993 47.5979 99.7966 47.3021 100.287C47.0063 100.778 46.7214 101.286 46.4497 101.812C46.0618 102.521 45.6476 103.269 45.205 104.057C44.7623 104.845 44.381 105.628 44.0633 106.403C43.7215 107.34 43.625 108.024 43.774 108.458C43.9209 108.891 44.2167 109.103 44.6615 109.092C45.1042 109.081 45.6564 108.858 46.316 108.423C46.9756 107.989 47.6461 107.36 48.3276 106.539C48.8053 105.945 49.2699 105.318 49.7257 104.655C50.1771 103.993 50.6198 103.262 51.0514 102.464Z" fill="url(#paint1_linear)"/>
<path d="M68.0035 102.464C68.7069 102.167 69.0728 102.35 69.0947 103.012C68.2993 104.566 67.3724 106.027 66.3139 107.396C65.2555 108.767 64.1489 109.884 62.9875 110.751C62.7837 110.934 62.5164 111.088 62.1855 111.214C61.8546 111.339 61.5084 111.429 61.1446 111.486C60.7808 111.544 60.4215 111.566 60.0709 111.555C59.7181 111.544 59.4047 111.48 59.133 111.365C58.5413 111.136 58.0921 110.806 57.7853 110.373C57.4785 109.939 57.2791 109.453 57.1893 108.918C57.0972 108.381 57.0928 107.833 57.1717 107.275C57.2506 106.716 57.3821 106.185 57.564 105.681C58.0176 104.381 58.5983 103.135 59.3039 101.947C60.0095 100.761 60.7239 99.5836 61.4536 98.4196C61.2717 98.534 61.1074 98.6594 60.9583 98.7958C60.8093 98.9323 60.6559 99.0709 60.4982 99.2073C60.1344 99.5264 59.5318 100.092 58.6903 100.902C57.8488 101.712 56.8934 102.695 55.8263 103.848C54.7569 105.001 53.6437 106.269 52.4845 107.651C51.3253 109.033 50.2559 110.454 49.2786 111.915C49.0288 111.915 48.8009 111.858 48.5971 111.744C48.3933 111.629 48.2158 111.486 48.069 111.315C47.9221 111.143 47.8016 110.967 47.7118 110.784C47.6219 110.602 47.5649 110.454 47.5408 110.34C47.4729 110.065 47.5365 109.638 47.7293 109.055C47.9221 108.472 48.1719 107.838 48.4787 107.154C48.7855 106.469 49.1208 105.778 49.4846 105.081C49.8483 104.385 50.1551 103.795 50.4049 103.316C51.1324 101.945 51.8709 100.605 52.6225 99.291C53.372 97.9772 54.1104 96.6591 54.8402 95.3344C54.976 95.0835 55.2324 94.6324 55.6071 93.9811C55.9818 93.3297 56.3916 92.6343 56.8343 91.8928C57.2769 91.1512 57.7086 90.4492 58.1293 89.7868C58.5501 89.1245 58.8853 88.6448 59.1352 88.3477C59.5449 87.846 59.9985 87.4851 60.5004 87.2694C61 87.0516 61.4886 86.9261 61.9664 86.8931C62.4441 86.8579 62.8977 86.8931 63.3316 86.9965C63.7632 87.1 64.127 87.2188 64.4228 87.3552C64.3089 87.4917 64.0306 87.8129 63.5879 88.3147C63.1453 88.8164 62.6961 89.4105 62.2403 90.0949C60.8992 92.1282 59.5515 94.2847 58.1995 96.5689C56.8474 98.8531 55.4756 101.135 54.0885 103.419C54.4304 103.032 54.781 102.649 55.1469 102.273C55.5107 101.896 55.8745 101.514 56.2382 101.126C56.9657 100.396 57.6867 99.6585 58.4033 98.9169C59.1198 98.1753 59.8649 97.4733 60.6384 96.811C60.8422 96.6283 61.092 96.4237 61.3878 96.1948C61.6837 95.966 61.9839 95.7437 62.2907 95.5258C62.5975 95.3102 62.8933 95.1209 63.1782 94.9603C63.463 94.7997 63.6844 94.6984 63.8443 94.6522C64.2081 94.584 64.5653 94.5774 64.9181 94.6346C65.2709 94.6918 65.5886 94.7997 65.8735 94.9603C66.1584 95.1209 66.3841 95.308 66.555 95.5258C66.7259 95.7437 66.8114 95.966 66.8114 96.1948C66.8114 96.241 66.704 96.4567 66.4871 96.8462C66.2701 97.2357 65.9874 97.7264 65.6346 98.3183C65.2818 98.9125 64.8896 99.5748 64.4579 100.305C64.0262 101.036 63.6055 101.756 63.1957 102.464C62.7859 103.173 62.4046 103.846 62.054 104.484C61.7012 105.125 61.4339 105.637 61.252 106.025C60.9342 106.665 60.7677 107.206 60.7567 107.651C60.7458 108.095 60.8312 108.421 61.0131 108.628C61.195 108.833 61.4623 108.925 61.8152 108.903C62.168 108.881 62.5602 108.709 62.9919 108.39C63.9232 107.728 64.8392 106.865 65.7376 105.805C66.6339 104.742 67.3899 103.628 68.0035 102.464Z" fill="url(#paint2_linear)"/>
<path d="M85.2624 102.464C85.9658 102.167 86.3317 102.349 86.3537 103.012C85.6722 104.312 84.9315 105.54 84.136 106.693C83.3406 107.846 82.4421 108.902 81.4407 109.862C81.009 110.273 80.5072 110.656 79.9396 111.008C79.3699 111.363 78.7914 111.614 78.1997 111.761C77.6081 111.908 77.0164 111.922 76.4269 111.796C75.8353 111.671 75.3006 111.323 74.8229 110.751C74.4131 110.295 74.1633 109.769 74.0735 109.175C73.9814 108.581 73.988 107.965 74.091 107.325C74.194 106.687 74.3518 106.057 74.5687 105.441C74.7856 104.825 74.996 104.255 75.1998 103.729C75.6534 102.701 76.1837 101.713 76.7863 100.767C77.3889 99.8208 77.9412 98.8328 78.4408 97.8051C77.7812 98.331 77.0712 98.9472 76.3086 99.6536C75.546 100.362 74.904 101.036 74.3824 101.674C73.7009 102.497 73.0523 103.335 72.4387 104.191C71.8252 105.047 71.2225 105.921 70.6309 106.812C70.3351 107.27 70.0502 107.721 69.7785 108.165C69.5045 108.61 69.2438 109.061 68.994 109.519C68.8581 109.723 68.6872 109.981 68.4834 110.289C68.2796 110.597 67.9947 110.74 67.631 110.718C67.357 110.718 67.0853 110.639 66.8114 110.478C66.5375 110.32 66.2942 110.124 66.0773 109.895C65.8626 109.666 65.6916 109.422 65.5667 109.158C65.4418 108.896 65.4024 108.66 65.4484 108.456C65.8122 106.79 66.4323 105.186 67.3066 103.643C68.181 102.103 69.075 100.611 69.9844 99.1739C70.3701 98.5797 70.7404 97.9636 71.0933 97.3232C71.4461 96.685 71.8383 96.0667 72.27 95.4725C72.4738 95.1755 72.7411 94.9708 73.072 94.8564C73.4007 94.742 73.8609 94.8564 74.4526 95.1997C74.7265 95.3603 74.9347 95.5144 75.0837 95.6618C75.2305 95.8114 75.305 95.9941 75.305 96.2097C75.305 96.4276 75.2195 96.696 75.0486 97.0151C74.8777 97.3342 74.6213 97.7347 74.2816 98.2144C73.9639 98.6479 73.6286 99.1739 73.2758 99.79C72.923 100.406 72.6228 100.967 72.373 101.469C72.7367 101.058 73.175 100.567 73.6856 99.9969C74.1962 99.4269 74.7374 98.8548 75.305 98.2848C75.8725 97.7149 76.4467 97.189 77.0274 96.7092C77.6081 96.2295 78.1471 95.8642 78.6468 95.6134C79.2603 95.2943 79.9813 95.1799 80.8118 95.2701C81.6423 95.3625 82.3852 95.7278 83.0469 96.366C83.2288 96.5486 83.3077 96.7026 83.2858 96.8281C83.2639 96.9535 83.1938 97.1317 83.082 97.3584C82.8782 97.8381 82.6394 98.3178 82.3654 98.7976C82.0915 99.2993 81.8088 99.7966 81.513 100.287C81.2172 100.778 80.9323 101.286 80.6606 101.812C80.2727 102.521 79.8586 103.269 79.4159 104.057C78.9733 104.845 78.592 105.628 78.2742 106.403C77.9324 107.34 77.836 108.024 77.985 108.458C78.1318 108.891 78.4276 109.103 78.8725 109.092C79.3151 109.081 79.8673 108.858 80.5269 108.423C81.1865 107.989 81.8571 107.36 82.5386 106.539C83.0163 105.945 83.4808 105.318 83.9366 104.655C84.3858 103.993 84.8307 103.262 85.2624 102.464Z" fill="url(#paint3_linear)"/>
<path d="M90.2411 104.209C89.9912 104.233 89.7349 104.237 89.4741 104.226C89.2133 104.215 88.9569 104.187 88.7071 104.141C88.2973 105.419 88.179 106.469 88.3499 107.292C88.5209 108.115 88.9065 108.685 89.5091 109.004C90.1118 109.323 90.8897 109.38 91.8451 109.175C92.8005 108.971 93.8677 108.491 95.051 107.736C96.0064 107.074 96.8632 106.269 97.6258 105.322C98.3884 104.374 99.0305 103.421 99.552 102.462C99.8018 102.371 100.034 102.33 100.251 102.343C100.466 102.354 100.597 102.578 100.643 103.01C100.12 104.015 99.4315 105.043 98.5791 106.093C97.7266 107.142 96.7887 108.113 95.7654 109.004C94.1285 110.375 92.5135 111.286 90.9226 111.744C89.3317 112.199 87.9665 112.063 86.8292 111.332C85.9658 110.738 85.2996 109.968 84.8329 109.019C84.3661 108.071 84.1557 107.085 84.2018 106.057C84.2237 105.098 84.4012 104.134 84.7299 103.164C85.0608 102.193 85.4968 101.262 86.0425 100.371C86.5881 99.4799 87.2236 98.6635 87.9533 97.9219C88.6808 97.1803 89.4653 96.5818 90.3068 96.1241C91.1483 95.6685 92.119 95.3143 93.2235 95.0612C94.3257 94.8103 95.3556 94.8103 96.311 95.0612C96.7887 95.1756 97.1854 95.3759 97.5053 95.6597C97.823 95.9458 98.0553 96.2759 98.2043 96.6522C98.3512 97.0285 98.4147 97.4356 98.3928 97.8691C98.3709 98.3026 98.2788 98.7361 98.1189 99.1696C97.731 100.197 97.1131 101.064 96.2606 101.773C95.4082 102.481 94.4922 103.029 93.5149 103.417C92.4236 103.879 91.3323 104.141 90.2411 104.209ZM93.1752 97.6336C92.3338 98.3642 91.5668 99.1982 90.8722 100.133C90.1775 101.071 89.5924 102.052 89.1147 103.08C89.4566 102.99 89.8422 102.864 90.2739 102.704C90.9554 102.453 91.615 102.151 92.2527 101.797C92.8882 101.443 93.4689 101.016 93.9926 100.512C94.4462 100.1 94.8669 99.6207 95.2548 99.0728C95.6405 98.5248 95.8114 97.9197 95.7654 97.2573C95.7654 96.892 95.6514 96.6874 95.4235 96.6412C95.1956 96.595 94.9349 96.6302 94.639 96.7446C94.3432 96.859 94.0583 97.0065 93.7866 97.1891C93.5149 97.3718 93.3111 97.5192 93.1752 97.6336Z" fill="url(#paint4_linear)"/>
<path d="M109.102 96.0253C109.398 95.9109 109.761 95.8889 110.193 95.9571C110.853 96.0935 111.387 96.4368 111.797 96.9848C112.207 97.5327 112.49 98.1158 112.65 98.732C112.807 99.3944 112.864 100.068 112.821 100.752C112.775 101.436 112.656 102.123 112.463 102.807C112.271 103.492 112.025 104.154 111.729 104.794C111.433 105.435 111.116 106.027 110.774 106.575C110.41 107.147 110 107.717 109.547 108.287C109.091 108.857 108.591 109.383 108.046 109.862C107.5 110.342 106.915 110.736 106.288 111.044C105.661 111.352 104.987 111.528 104.259 111.574C103.51 111.621 102.826 111.511 102.212 111.249C101.599 110.987 101.064 110.611 100.608 110.118C100.152 109.627 99.7887 109.061 99.517 108.421C99.2431 107.783 99.0744 107.107 99.0064 106.401C98.9385 105.602 98.9714 104.797 99.1094 103.987C99.2453 103.177 99.4666 102.383 99.7756 101.606C100.082 100.829 100.464 100.099 100.917 99.4142C101.371 98.7298 101.884 98.1136 102.451 97.5635C103.019 97.0376 103.65 96.5931 104.344 96.2278C105.037 95.8625 105.771 95.6446 106.545 95.5764C106.93 95.5302 107.347 95.5368 107.789 95.594C108.232 95.6512 108.635 95.7723 109.001 95.9527L109.102 96.0253ZM110.467 99.2447C110.353 98.8574 110.189 98.5427 109.972 98.3029C109.755 98.063 109.488 97.8298 109.17 97.6009C108.76 97.5789 108.374 97.6119 108.011 97.7043C107.647 97.7968 107.294 97.9332 106.952 98.1158C106.385 98.4129 105.85 98.853 105.348 99.434C104.848 100.017 104.41 100.666 104.036 101.386C103.661 102.105 103.354 102.854 103.115 103.628C102.876 104.405 102.74 105.142 102.705 105.838C102.67 106.535 102.745 107.151 102.927 107.688C103.109 108.225 103.437 108.608 103.915 108.835C104.507 109.132 105.195 109.132 105.979 108.835C106.764 108.538 107.509 107.957 108.214 107.087C109.146 105.945 109.829 104.713 110.261 103.388C110.465 102.726 110.596 102.042 110.653 101.333C110.71 100.627 110.649 99.9291 110.467 99.2447Z" fill="url(#paint5_linear)"/>
<path d="M89.5113 55.5572C90.2126 54.0762 90.5982 52.5776 90.4558 50.9866C90.3901 50.2627 90.2739 49.5475 89.7502 48.982C89.1739 48.3614 88.1505 48.291 87.4975 48.8961C86.8796 49.4683 86.7678 50.124 87.2784 50.8898C88.2338 52.329 89.2615 53.7439 89.5113 55.5572Z" fill="url(#paint6_linear)"/>
<path d="M94.2775 49.3026C93.3549 49.1243 92.7523 49.6084 92.3579 50.383C92.0971 50.8914 91.9678 51.4459 91.8692 52.0158C91.604 53.5518 91.3499 55.1098 90.6421 56.5093C88.7531 60.2415 85.4924 62.3078 81.6971 63.5929C78.2918 64.746 74.8448 64.6271 71.4066 63.5643C71.8909 63.7755 72.3686 64.0044 72.8595 64.198C73.6746 64.5171 74.5183 64.735 75.3839 64.8626C82.5079 65.9167 90.0175 63.9032 94.0057 56.7096C94.9677 54.9756 95.7347 53.1469 95.7018 51.0938C95.6821 50.1366 95.2395 49.4874 94.2775 49.3026Z" fill="url(#paint7_linear)"/>
<path d="M77.1457 63.019L77.1611 63.0102C80.7088 62.8473 84.0221 62.0111 86.5268 59.2538C87.5458 58.1338 88.0454 56.7122 87.8745 55.1454C87.7583 54.076 87.0352 53.308 86.1543 53.3388C85.1616 53.374 84.8658 54.153 84.6532 54.9452C84.5458 55.3457 84.5371 55.7726 84.4669 56.1841C84.3355 56.9675 84.2412 57.7575 83.8337 58.4727C82.2822 61.2123 79.7885 62.3566 76.7425 62.7725L74.5337 63.019H77.1457Z" fill="url(#paint8_linear)"/>
<path d="M73.2079 72.9774C72.3554 72.5417 71.4986 72.1082 70.6265 71.7055C69.3665 71.1245 68.0824 70.6008 66.7873 70.1035C63.4346 68.6577 60.0424 67.3198 56.4311 66.6288C54.5137 66.2613 52.5831 66.1117 50.4334 66.6178C52.3925 67.2208 54.1368 67.7357 55.8679 68.2924C61.5829 70.1299 66.7084 73.1314 71.7156 76.375C75.4912 78.822 79.2932 81.236 83.5553 82.7698C85.9745 83.6412 88.4332 84.4136 91.0584 83.7908C93.7932 83.1417 95.4937 81.3196 96.7449 78.7274C96.6704 78.8814 95.2351 78.8484 95.0313 78.8572C94.4462 78.8858 93.8611 78.8968 93.2739 78.8924C92.1278 78.8814 90.9817 78.8066 89.8422 78.6724C87.6071 78.4083 85.4048 77.911 83.2551 77.2464C81.0988 76.5797 78.9996 75.7456 76.9419 74.8192C75.6731 74.2493 74.4438 73.6089 73.2079 72.9774Z" fill="url(#paint9_linear)"/>
<path d="M104.559 66.556C104.482 63.9813 103.102 61.8424 101.066 61.1536C99.6572 60.6761 99.3153 60.9292 99.3701 62.4123C99.3745 62.54 99.3832 62.6654 99.3876 62.793C99.5673 68.5717 96.208 72.5964 90.5369 73.4084C86.9124 73.9278 83.3405 73.5251 79.8081 72.7175C77.5028 72.1893 75.2282 71.5336 72.9405 70.935C72.9339 70.9504 72.9471 70.9196 72.9405 70.935C70.9486 70.4333 69.0991 70.0284 69.2196 70.1032C69.476 70.2595 77.1566 73.2104 77.3034 73.2676C79.3326 74.1192 81.3552 74.9928 83.437 75.6882C88.0979 77.2484 92.8597 77.5587 97.6148 76.1283C102.291 74.7222 104.699 71.3223 104.559 66.556Z" fill="url(#paint10_linear)"/>
<path d="M95.1322 22.1816C99.0831 22.3731 105.344 29.9099 105.129 34.0272C104.54 33.4726 103.937 32.9071 103.334 32.3393C103.31 32.3812 103.286 32.4252 103.262 32.467C103.483 33.4352 103.79 34.3924 103.904 35.3739C104.022 36.3949 103.536 37.3258 103.225 38.3644C102.813 37.6691 102.464 37.0859 102.131 36.527C101.752 37.5546 101.395 38.5251 101.038 39.4933C100.957 39.4911 100.876 39.4889 100.797 39.4845C100.643 38.8793 100.488 38.2742 100.334 37.6691C100.163 38.6989 99.6069 39.5197 98.8706 40.1249C98.0905 40.7652 97.1986 41.3308 96.2673 41.7114C94.2535 42.5345 92.1827 43.2188 90.1338 43.9626C88.8869 44.4159 87.6335 44.8516 86.3975 45.3335C85.9023 45.5272 85.4443 45.8199 84.8746 45.9607C85.1616 45.6086 85.3939 45.1861 85.7445 44.9198C86.9673 43.989 88.1791 43.0252 89.4939 42.2418C90.4888 41.6476 91.6326 41.3065 92.7108 40.8576C95.8553 39.5461 97.5755 37.0617 97.9415 33.7895C98.3469 30.1762 97.7727 26.6597 95.8509 23.469C95.6143 23.0729 95.4017 22.6636 95.1322 22.1816ZM101.682 33.8401C101.73 33.7719 101.776 33.7015 101.824 33.6333C101.086 32.3856 100.512 31.0322 99.3921 30.009C99.7603 31.1819 100.209 32.3173 100.762 33.4C100.884 33.6399 101.367 33.6971 101.682 33.8401ZM99.0021 26.5805C98.8531 27.0558 99.1379 27.2473 99.3899 27.4717C99.7931 27.8304 100.201 28.1891 100.562 28.5874C100.998 29.0649 101.388 29.5843 101.798 30.0838C101.849 30.0398 101.899 29.9958 101.947 29.954C101.268 28.6028 100.35 27.4541 99.0021 26.5805ZM99.482 34.1812C99.081 35.3475 99.2453 35.8866 99.9991 35.979C99.8194 35.3541 99.6507 34.7665 99.482 34.1812Z" fill="url(#paint11_linear)"/>
<path d="M88.3565 16.2817C92.2439 13.8215 100.291 13.4188 103.391 15.6744C102.804 15.6744 102.111 15.6524 101.419 15.681C100.547 15.7162 99.8742 16.1541 99.4337 16.8891C99.2431 17.206 99.0743 17.2324 98.7544 17.1443C97.8077 16.8847 96.8611 16.6228 95.8991 16.4314C95.0335 16.2597 94.2205 16.5436 93.4207 16.8891C96.7844 17.0761 100.03 17.7231 103.023 19.2899C104.134 19.873 105.136 20.6674 106.187 21.3672C106.172 21.4354 106.157 21.5014 106.139 21.5696C105.944 21.6092 105.749 21.6841 105.556 21.6841C104.903 21.6797 104.323 21.8513 103.838 22.309C103.525 22.6039 103.253 22.5951 102.922 22.2672C101.099 20.4518 98.7544 19.6442 96.379 18.9048C96.2628 18.8696 96.1445 18.8366 96.024 18.8278C95.7895 18.8124 95.5529 18.8146 95.2789 18.8696C100.115 21.0987 104.787 23.5325 107.748 28.2703C106.954 28.1889 106.139 27.927 105.401 28.0722C104.121 28.3231 103.571 27.7179 102.931 26.7475C101.373 24.3797 99.1685 22.7051 96.6178 21.5278C95.9561 21.2219 95.1781 21.1647 94.4901 21.0041C93.1665 18.5637 90.8459 17.3908 88.3565 16.2817Z" fill="url(#paint12_linear)"/>
<path d="M80.3034 39.5547C80.4831 37.8603 80.6036 36.2297 80.8491 34.6211C81.0068 33.5869 81.2588 32.546 81.627 31.569C82.0609 30.4115 82.5035 29.2232 83.4436 28.3386C83.5027 28.2835 83.6167 28.2879 83.7635 28.2483C83.1083 30.7878 82.4005 33.2634 82.9681 35.8424C83.0448 35.8578 83.1215 35.8732 83.1982 35.8864C83.2507 35.7324 83.3143 35.5827 83.3559 35.4265C83.8446 33.5516 84.2719 31.6592 84.8438 29.8107C85.098 28.9899 85.6393 28.2571 86.1521 27.531C85.1594 30.1716 84.537 32.8497 84.8175 35.6928C85.7532 33.0147 86.6517 30.3234 87.9489 27.7796C87.2631 30.4621 87.9248 32.9553 88.9044 35.4463C88.9942 32.9179 89.0841 30.4247 89.1739 27.9315C89.5464 29.6831 90.3068 31.2103 91.6917 32.3898C90.9116 30.3036 90.3265 28.1823 90.3265 25.9268C90.572 26.5781 90.8218 27.2273 91.0628 27.8808C91.7553 29.7491 92.7173 31.4457 94.1679 32.8343C94.2841 32.9443 94.398 33.1269 94.5273 33.1423C95.154 33.215 95.0949 33.7035 94.8911 33.9719C94.3914 34.6299 93.7976 35.2263 93.1906 35.7896C93.0723 35.8996 92.6384 35.8336 92.4784 35.6972C91.9328 35.2329 91.4419 34.7047 90.9335 34.1942C90.7363 33.9962 90.5522 33.7871 90.217 33.6265C90.217 35.9304 90.217 38.2344 90.217 40.5406C88.9701 40.0058 87.5238 37.1869 86.6999 33.6331C86.1871 34.7157 86.3142 35.8028 86.2134 36.8437C86.1126 37.8999 86.0819 38.965 86.0206 40.0256C85.9548 40.041 85.8891 40.0564 85.8234 40.0741C85.5998 39.6692 85.3741 39.2643 85.1506 38.8594C84.4516 37.6006 82.3479 37.2508 81.3005 38.252C80.9455 38.5843 80.6957 39.0288 80.3034 39.5547Z" fill="url(#paint13_linear)"/>
<path d="M66.2307 21.121C67.0108 19.3583 67.7537 17.6067 69.4169 16.5196C69.5988 16.4008 69.8398 16.0839 69.7916 15.9651C69.7083 15.7582 69.4454 15.5712 69.2153 15.4832C68.5162 15.2191 67.8698 15.4458 67.3088 16.3788C66.7391 17.325 66.3994 18.4077 65.8757 19.3847C65.4418 20.1945 64.894 20.9471 64.3812 21.7107C64.3045 21.8251 64.1314 21.8757 64.0021 21.9572C63.9429 21.9219 63.886 21.8867 63.8268 21.8537C63.9473 21.5369 64.0328 21.2002 64.1928 20.9075C64.8282 19.75 65.3607 18.5705 65.593 17.2458C65.685 16.7177 66.0751 16.2269 66.3819 15.7538C67.0174 14.768 67.6901 13.8041 68.3453 12.8315C68.5031 12.596 68.6784 12.3694 68.8121 12.1185C69.1189 11.5464 69.4191 10.9787 70.1948 10.8928C70.2868 11.4386 70.69 11.5332 71.1699 11.5662C72.476 11.6564 73.5585 11.1085 74.6191 10.4373C75.7936 9.69573 76.9638 8.93655 78.1931 8.30059C78.7738 7.99912 79.4926 7.96831 80.1741 7.9375C79.2932 8.3622 78.3509 8.69449 77.5511 9.23802C76.7315 9.79696 76.0522 10.5627 75.3554 11.3043C81.9447 8.65708 88.0212 8.99376 93.3374 14.1606C93.2344 14.0968 93.1336 14.0242 93.024 13.9714C92.3316 13.6457 91.6479 13.2958 90.9401 13.0054C89.6888 12.4948 88.4179 12.0767 87.0483 11.9601C84.8657 11.773 82.7117 11.8435 80.5379 12.1625C78.1384 12.5146 75.9514 13.4014 73.8543 14.5347C71.9084 15.5866 70.2496 17.0169 68.7923 18.696C68.1328 19.4551 67.3877 20.1373 66.6689 20.8437C66.5506 20.9669 66.3775 21.0307 66.2307 21.121Z" fill="url(#paint14_linear)"/>
<path d="M76.6 19.1624C78.3487 18.7575 79.8914 18.0951 80.3822 16.3721C81.7606 16.4051 83.0074 16.4359 84.3836 16.4711C84.2565 16.6669 84.1842 16.8298 84.068 16.9464C83.3602 17.655 83.1411 18.632 83.6758 19.4374C83.8927 19.7653 84.4165 19.8973 84.8175 20.0866C84.9687 20.1592 85.1637 20.1394 85.3741 20.2824C84.9928 20.4211 84.5983 20.5311 84.2324 20.7027C83.2397 21.1737 82.2536 21.6578 81.2829 22.1727C81.1141 22.2607 81.0352 22.5182 80.9147 22.6964C81.1076 22.8263 81.2851 23.0243 81.4976 23.0727C82.8124 23.3742 84.1272 23.4028 85.4442 23.0419C85.8737 22.9253 86.3339 22.9143 86.8554 22.8439C86.6034 23.8825 86.0819 24.6505 85.4398 25.3239C84.5063 26.3031 83.5312 27.267 82.2273 27.7379C80.7504 28.2704 79.2471 28.4685 77.7505 27.7775C77.6321 27.7225 77.5313 27.6279 77.3122 27.476C78.5634 27.6917 79.6503 27.7269 80.7416 27.2802C81.8745 26.8181 82.5275 25.9818 82.968 24.9168C82.9307 24.8574 82.8913 24.7958 82.8541 24.7363C81.9929 25.2205 81.1339 25.7024 80.2179 26.2173C80.3165 25.6804 80.4436 25.2645 80.4502 24.8442C80.4524 24.6549 80.2201 24.4613 80.093 24.2698C79.9352 24.4085 79.7029 24.5163 79.635 24.6879C79.4509 25.1544 79.2603 25.6408 79.2164 26.1337C79.166 26.6816 78.9447 26.8004 78.4451 26.7762C76.9156 26.7036 75.3816 26.6706 73.8499 26.6266C73.7096 26.6222 73.565 26.62 73.4248 26.642C72.7783 26.7432 72.7477 26.631 72.8572 26.0193C73.072 24.831 74.1632 24.9124 74.893 24.4701C75.5087 24.096 76.2078 23.8143 76.7337 23.339C77.8272 22.3487 77.7811 21.4751 77.1018 20.0382C76.9638 19.7521 76.7841 19.4836 76.6 19.1624ZM80.8819 19.6091C79.7314 19.9215 78.3224 21.8668 77.9521 23.4314C78.8571 22.472 79.944 21.3189 81.09 20.1042C81.0637 20.0404 80.9717 19.8225 80.8819 19.6091Z" fill="url(#paint15_linear)"/>
<path d="M92.6165 11.5418C91.4201 11.0643 90.2192 10.655 89.0907 10.0983C88.7028 9.90684 88.407 9.38311 88.2273 8.94521C87.8373 7.99897 88.0169 6.99552 88.1134 6.00968C88.144 5.6884 88.1857 5.36712 88.2317 4.95122C87.055 6.28475 87.0396 7.89335 86.7745 9.44033C85.8935 8.03638 85.9483 6.4894 86.0294 4.92041C84.9337 6.16372 84.8461 7.67989 84.8351 9.22908C84.0156 7.55446 84.3289 5.78083 84.3048 4.02479C83.2968 5.61579 83.0645 7.35201 83.2881 9.25328C83.1741 9.09044 83.0098 8.94521 82.9528 8.76256C82.0784 5.99428 82.4926 3.32282 83.6036 0.712976C83.6934 0.501724 83.8841 0.334482 84.1427 0C84.1734 0.308076 84.204 0.457713 84.2018 0.60735C84.1887 1.51397 84.4736 1.91887 85.3194 2.27316C87.1229 3.02575 88.9285 3.01034 90.7408 2.32377C90.8679 2.27536 90.9993 2.24015 91.2776 2.14993C90.927 2.77268 90.6772 3.31182 90.3441 3.79374C89.1805 5.47715 88.9987 7.23538 89.8686 9.09264C89.9015 9.16086 89.9519 9.22247 90.0943 9.44253C90.4668 7.39162 90.8613 5.47935 92.6165 4.30426C91.9307 5.39133 91.6699 6.31116 91.6195 8.18162C92.2922 6.69625 93.1666 5.58938 94.7903 5.14487C93.859 6.11531 93.3068 7.18917 92.9781 8.47209C95.0533 6.62583 95.9079 6.24954 96.3374 6.96032C94.3324 7.83613 93.7012 9.85403 92.6165 11.5418Z" fill="url(#paint16_linear)"/>
<path d="M67.4141 26.3139C65.7245 25.4865 64.8436 23.9968 64.3133 22.1109C64.7275 22.1725 65.0934 22.2715 65.4572 22.2671C65.7596 22.2649 66.1212 22.2253 66.3556 22.0581C67.6595 21.1295 68.7814 20.0204 69.8333 18.7969C70.7602 17.7208 71.9194 16.845 73.0041 15.912C73.9661 15.0846 74.9347 14.2528 76.2078 13.9249C77.1326 13.6872 78.0573 13.4496 78.9821 13.2119C78.9974 13.2647 79.0149 13.3197 79.0303 13.3726C78.9908 13.4078 78.9536 13.4694 78.9119 13.4716C77.2421 13.5728 76.2363 14.6841 75.3182 15.8944C74.8558 16.5061 75.1144 17.1003 75.8901 17.1003C76.5103 17.1003 77.1874 16.9704 77.7352 16.6932C78.5328 16.2883 79.2385 15.7007 80.0668 15.133C79.9112 15.5269 79.8148 15.8966 79.6263 16.2113C79.3984 16.5875 79.0785 16.9088 78.8199 17.2675C77.9938 18.4052 76.8324 18.6847 75.5833 18.3392C73.587 17.789 71.9611 18.3986 70.6528 19.8377C69.7632 20.8148 68.948 21.9129 68.3432 23.0857C67.8545 24.032 67.7296 25.1631 67.4141 26.3139Z" fill="url(#paint17_linear)"/>
<path d="M95.1278 38.2716C94.7772 38.1242 94.5668 38.0604 94.3784 37.9548C93.5413 37.486 93.4558 37.1692 94.0015 36.4078C95.1629 34.7882 96.0044 33.0365 96.1336 31.0164C96.2388 29.377 95.9079 27.7948 95.279 26.2897C94.9613 25.5283 94.6041 24.7581 93.8305 24.3224C93.5216 24.1485 93.1929 24.0143 92.8423 23.8493C92.8642 23.8163 92.9014 23.7524 92.9452 23.6952C93.9248 22.4563 94.1264 22.4783 95.141 23.7282C96.0832 24.8879 96.6267 26.2171 97.0014 27.6452C97.6128 29.9756 97.558 32.3258 96.9138 34.6011C96.5456 35.8907 95.7348 37.0547 95.1278 38.2716Z" fill="url(#paint18_linear)"/>
<path d="M87.9183 21.8335C86.2266 22.3726 84.7321 22.476 83.2815 21.6838C84.6817 21.8225 85.7577 21.1403 86.8117 20.3723C88.2163 19.3469 89.7371 19.4569 91.2645 20.0246C91.5537 20.1324 91.7707 20.4295 91.9942 20.7486C91.2776 20.4493 90.6312 20.632 90.0329 20.9246C89.6495 21.1117 89.2857 21.4044 89.0118 21.7322C88.7313 22.0689 88.8606 22.476 89.2726 22.6169C89.8401 22.8127 90.4383 22.9689 91.0322 23.0174C91.282 23.0372 91.5581 22.7379 91.8211 22.5839C91.6348 22.4408 91.4617 22.2736 91.2579 22.1569C90.973 21.9941 90.6662 21.8687 90.3156 21.7036C90.9665 21.3537 91.6392 21.3471 92.2681 21.6222C92.7107 21.8159 92.9496 22.2252 92.8444 22.7775C92.6209 23.9416 91.6633 24.6458 90.4449 24.2343C89.1696 23.803 88.1944 24.0384 87.2653 24.9252C87.0352 25.1431 86.7087 25.2597 86.3471 25.471C86.735 24.857 87.1185 24.3861 87.3508 23.847C87.5984 23.2836 87.697 22.6565 87.9183 21.8335Z" fill="url(#paint19_linear)"/>
<path d="M79.2056 14.0701C82.3524 12.1623 86.7526 11.7794 90.1666 13.9095C89.9957 13.9865 89.8511 14.0195 89.7481 14.1031C89.106 14.6115 88.4815 15.144 87.8285 15.6369C87.6817 15.7492 87.3771 15.8482 87.2609 15.7734C85.3348 14.5389 83.1632 14.266 80.9587 14.1208C80.4109 14.0855 79.863 14.0877 79.2056 14.0701Z" fill="url(#paint20_linear)"/>
<path d="M68.0868 26.6246C67.666 24.6419 70.3526 20.791 72.7017 19.8359C72.6184 20.3905 72.5176 20.9186 72.465 21.4511C72.3708 22.4018 73.3218 23.139 74.2356 22.8573C74.5512 22.7605 74.893 22.7451 75.2042 22.6416C75.5176 22.5382 75.809 22.371 76.1706 22.2939C75.8528 22.8925 75.3773 23.3744 74.8076 23.6935C74.2663 23.995 73.644 24.0808 72.9953 24.1644C71.6411 24.3382 70.2167 24.5121 69.1956 25.652C68.8735 26.0107 68.4659 26.2967 68.0868 26.6246Z" fill="url(#paint21_linear)"/>
<path d="M94.7772 31.8469C94.225 31.145 93.7451 30.5838 93.3199 29.9809C92.8313 29.2877 92.3557 28.5791 91.9372 27.8397C91.6217 27.283 91.2513 26.6823 91.1987 26.0749C91.1659 25.6832 91.6063 25.1903 91.9416 24.8492C92.2287 24.5565 92.6165 24.5455 93.0241 24.8602C94.867 26.2818 95.2067 28.2578 95.1322 30.399C95.1234 30.6388 95.0752 30.8787 95.0226 31.1141C94.9853 31.2924 94.9108 31.4596 94.7772 31.8469Z" fill="url(#paint22_linear)"/>
<path d="M91.0913 40.7238C90.6793 38.8599 90.3922 37.0335 90.9094 35.0596C92.1146 36.3095 93.2322 37.467 94.341 38.6134C93.7713 39.6015 92.176 40.6379 91.0913 40.7238Z" fill="url(#paint23_linear)"/>
<path d="M67.5477 7.82693C68.376 8.48709 68.4922 9.87563 67.8238 10.6656C67.0327 11.6009 66.0204 12.14 64.8721 12.4657C64.7954 12.4877 64.7165 12.5119 64.642 12.5383C63.6252 12.9058 63.0927 13.5197 63.1278 14.2811C63.1672 15.0975 63.9079 15.9733 64.7866 16.2374C64.9598 16.2902 65.1351 16.3386 65.4199 16.4222C65.3104 16.9152 65.203 17.4081 65.0759 17.9824C63.9715 17.4191 62.9876 16.8337 62.4923 15.8193C61.4975 13.7816 62.672 12.151 64.5193 11.4908C65.558 11.1189 66.5682 10.6634 67.5915 10.2475C68.1372 10.0253 68.2182 9.58516 68.0736 9.09884C67.9421 8.65873 67.7362 8.24063 67.563 7.81152L67.5477 7.82693Z" fill="url(#paint24_linear)"/>
<path d="M77.516 34.6937C78.1449 34.9732 78.7366 34.8874 79.3173 34.5925C80.1565 34.1656 80.4217 32.8365 79.8958 31.9254C79.8257 31.8022 79.7336 31.6922 79.6701 31.5645C79.1617 30.5435 78.7409 30.3498 77.6825 31.0738C75.5197 32.5548 72.6118 31.4787 71.6564 29.0185C71.2313 27.9226 71.0998 26.7123 70.8522 25.5483C70.828 25.436 70.896 25.2182 70.9793 25.183C71.4723 24.9739 71.9741 24.7209 72.5482 25.0135C72.1209 26.3008 72.2436 27.5552 72.6271 28.8007C73.2933 30.9726 75.5964 31.4985 77.3736 30.933C77.5445 30.878 77.6979 30.7569 77.871 30.7327C78.4911 30.6403 79.1288 30.2398 79.6547 31.0364C80.3253 32.0531 80.7131 33.1027 80.0207 34.1986C79.5386 34.9666 78.1493 35.3407 77.516 34.6937Z" fill="url(#paint25_linear)"/>
<path d="M89.6648 19.0854C88.9943 19.114 88.3216 19.1954 87.6554 19.1558C87.1339 19.125 86.7767 18.7355 86.6342 18.2447C86.4787 17.699 86.4151 17.1137 86.8139 16.634C86.9323 16.4909 87.261 16.3523 87.3771 16.4183C87.708 16.6031 88.1331 16.843 88.2405 17.1577C88.5144 17.9609 88.9088 18.6034 89.6648 19.0854Z" fill="url(#paint26_linear)"/>
<path d="M74.8164 19.1553C74.6542 19.514 74.4504 19.8638 74.3453 20.2423C74.2839 20.4668 74.3825 20.7331 74.411 20.9817C74.6126 20.9509 74.926 20.9861 74.9917 20.8761C75.0969 20.7001 75.0377 20.425 75.0552 20.0245C75.2459 20.0487 75.671 19.9827 75.8178 20.1565C76.0063 20.3788 76.0632 20.8057 76.0107 21.1182C75.9252 21.6309 75.5702 21.9654 75.0224 22.0424C74.4044 22.1304 73.9289 21.8597 73.506 21.4482C73.4643 21.4064 73.4161 21.3602 73.3986 21.3074C73.1444 20.5284 73.9859 19.2609 74.8164 19.1553Z" fill="url(#paint27_linear)"/>
<path d="M86.7678 19.5296C86.1258 19.5582 85.4684 19.6616 84.8307 19.5934C84.0418 19.5098 83.7175 18.3699 84.25 17.6965C84.399 17.5073 84.5787 17.329 84.7803 17.2014C85.063 17.021 85.3194 16.9704 85.4771 17.4105C85.6546 17.9034 85.8891 18.3831 86.1499 18.8386C86.2989 19.0939 86.5487 19.2919 86.7678 19.5296Z" fill="url(#paint28_linear)"/>
<path d="M86.8797 42.5871C87.2412 41.5066 87.6028 40.4262 87.9644 39.3457C88.0301 39.3545 88.098 39.3633 88.1638 39.3743C88.4596 39.8716 88.7423 40.3778 89.0557 40.8641C89.2529 41.17 89.1718 41.368 88.9176 41.5793C88.5319 41.8983 88.1879 42.2746 87.7825 42.5651C87.5875 42.7037 87.2916 42.6971 87.0418 42.7565C86.9892 42.7015 86.9345 42.6443 86.8797 42.5871Z" fill="url(#paint29_linear)"/>
<path d="M85.6524 16.5549C84.7913 16.2908 83.9673 16.0356 83.1434 15.7847C83.207 15.1091 83.7767 14.702 84.3574 14.9243C84.6576 15.0409 84.9403 15.2016 85.2405 15.3204C86.0644 15.6461 86.0907 15.7121 85.6524 16.5549Z" fill="url(#paint30_linear)"/>
<path d="M92.4719 20.5613C92.2725 20.3016 92.1169 19.9781 91.8605 19.7955C91.2732 19.3796 90.6421 19.0187 90.0154 18.66C89.6341 18.4421 89.3865 18.1737 89.6253 17.7336C89.8795 17.267 90.2082 17.5311 90.4887 17.7204C91.477 18.3827 92.1585 19.2981 92.6932 20.3324C92.6187 20.4094 92.5464 20.4864 92.4719 20.5613Z" fill="url(#paint31_linear)"/>
<path d="M83.2113 14.8754C82.9834 15.3507 82.7905 15.7578 82.5867 16.1825C81.8702 15.8635 81.1865 15.5598 80.5028 15.2539C80.5115 15.1879 80.5181 15.1219 80.5269 15.0537C81.399 14.9392 82.2558 14.6664 83.2113 14.8754Z" fill="url(#paint32_linear)"/>
<path d="M70.7185 26.8733C69.9888 26.9834 69.281 27.089 68.5732 27.1968C68.5425 27.1374 68.514 27.0758 68.4834 27.0164C69.029 26.4949 69.5746 25.9733 70.2167 25.3594C70.4117 25.9447 70.5564 26.3804 70.7185 26.8733Z" fill="url(#paint33_linear)"/>
<path d="M67.5609 7.81629C66.8399 7.30356 66.1278 6.85685 65.1767 7.30796C64.7494 7.51041 64.4076 7.75687 64.4382 8.21899C64.4536 8.45885 64.7143 8.73171 64.9335 8.89895C65.2841 9.16962 65.6566 9.0706 65.9744 8.77792C66.0291 8.72731 66.0861 8.6833 66.2461 8.54907C65.6566 9.38087 64.9225 9.40508 64.3747 8.72511C64.1139 8.40163 64.2235 7.74367 64.5916 7.42019C65.4046 6.70502 66.8312 6.81724 67.539 7.65785C67.5675 7.69306 67.5456 7.77228 67.5477 7.82949C67.5477 7.82729 67.5609 7.81629 67.5609 7.81629Z" fill="url(#paint34_linear)"/>
<path d="M77.9214 33.8445C78.0529 33.521 78.2786 33.2328 78.2129 33.0501C78.1515 32.8719 77.7045 32.6408 77.5774 32.7112C77.3013 32.8631 77.0405 33.1579 76.9266 33.455C76.8433 33.6729 77.0055 33.9853 77.0624 34.2758C76.4532 33.5496 76.6461 32.7508 77.5073 32.5352C77.722 32.4802 78.0485 32.6276 78.237 32.786C78.3904 32.9159 78.5197 33.2328 78.4671 33.411C78.4167 33.5848 78.1274 33.6927 77.9214 33.8445Z" fill="url(#paint35_linear)"/>
<path d="M59.4354 36.1815C60.8116 35.9835 62.2052 35.8602 63.5945 35.836C64.9926 35.8096 66.3972 35.8999 67.7931 36.0231C69.1649 36.1441 70.5301 36.3686 71.8975 36.5468C64.8589 34.7644 57.9782 35.0636 51.31 38.1334C52.6467 37.7571 53.9746 37.3434 55.3223 37.0177C56.6831 36.6876 58.0527 36.3796 59.4354 36.1815Z" fill="url(#paint36_linear)"/>
<path d="M67.9991 38.2285C67.7953 38.2945 67.5894 38.3275 67.4184 38.4222C66.9166 38.6994 66.9144 39.3046 67.4075 39.5907C67.7866 39.8129 68.1832 39.8085 68.5667 39.595C68.8516 39.4366 68.9502 39.2188 68.902 38.9107C68.4418 39.0053 68.043 38.9261 67.9991 38.2285Z" fill="url(#paint37_linear)"/>
<path d="M67.677 35.8493C67.3527 35.7745 67.0262 35.7084 66.6975 35.649C65.661 35.4664 64.6157 35.374 63.5661 35.341C63.1103 35.3277 62.6567 35.352 62.2009 35.3718C61.4777 35.4048 60.759 35.484 60.0424 35.5918C59.1374 35.7304 58.2455 35.9263 57.369 36.1706C56.8058 35.9329 55.8942 35.418 54.9783 34.3595C53.3282 32.4516 51.6518 34.8084 51.1347 32.7949C51.1347 32.7949 50.9506 34.2077 52.1011 34.3991C52.5459 34.4717 52.5941 34.76 52.0068 34.8216C51.4393 34.881 50.9572 34.5818 50.9572 34.5818C50.9572 34.5818 51.3363 35.4422 52.6226 35.2067C53.3392 35.0747 54.1258 35.1847 54.1149 35.6996C54.0974 36.384 52.6971 35.9769 50.9966 35.7833C49.2962 35.5896 48.286 36.9099 47.2933 35.9351C47.2933 35.9351 47.0084 37.229 48.7374 37.1256C49.2743 37.0926 48.9193 38.0388 45.7572 37.8958C45.7572 37.8958 46.671 39.4582 48.4854 39.6826L48.4174 39.7134C47.8148 39.6914 47.1355 39.8015 46.454 40.1887C46.454 40.1887 47.2319 40.312 46.9514 41.047C46.6622 41.8039 45.7616 42.3717 44.8083 43.0363C43.5505 43.9143 43.0443 45.6615 43.625 46.8454C43.625 46.8454 43.6206 45.7517 43.934 45.8155C44.1137 45.8529 44.0545 46.4537 44.0545 46.4537L44.8565 48.8105C44.8631 49.332 44.9069 49.8513 44.9946 50.3729C45.2203 51.7328 45.7133 52.9893 46.408 54.171C46.4233 54.3404 46.5417 54.4571 46.6271 54.5891C46.6447 54.6177 46.6775 54.6375 46.7082 54.6111C46.7214 54.6023 46.7257 54.5649 46.717 54.5517C46.6293 54.4065 46.6337 54.215 46.5 54.0918C46.4825 54.0368 46.4672 53.9796 46.4474 53.9245C46.0223 52.7274 45.7331 51.5017 45.6608 50.2254C45.6257 49.5873 45.6673 48.9601 45.755 48.333C45.9566 46.9136 46.5044 45.6329 47.313 44.4578C47.5869 44.0595 47.885 43.6854 48.2027 43.3267H48.2005C48.1983 43.3311 54.5707 35.3828 67.677 35.8493Z" fill="url(#paint38_linear)"/>
<path d="M102.313 46.2023C102.285 45.9031 102.245 45.606 102.193 45.3089C102.035 44.4155 101.745 43.5089 101.123 42.8509C100.501 42.1929 99.484 41.8475 98.6623 42.2259C98.029 42.5164 97.6258 43.1722 97.4615 43.8521C97.2971 44.5321 97.3387 45.2407 97.3782 45.9383C97.5447 48.8826 97.6324 51.9215 96.6112 54.6876C95.7128 57.128 93.9926 59.2009 91.9875 60.8491C88.6304 63.6064 84.3814 65.1996 80.0623 65.4703C76.3743 65.7013 72.6578 65.1292 69.842 62.5568C68.5863 61.4103 65.536 58.6288 66.1978 56.6747C66.281 56.4304 66.4498 56.228 66.6251 56.041C67.9925 54.571 70.0019 54.0715 71.4307 52.7005C71.4964 52.6389 71.5731 52.5883 71.6695 52.5135C71.0121 52.5135 70.4249 52.4783 69.8442 52.5223C68.8033 52.5993 67.7733 52.8018 66.8552 53.3123C65.742 53.9306 64.5631 54.2761 63.303 54.3663C61.9663 54.461 60.6559 54.3333 59.4047 53.8206C58.5588 53.4751 57.8335 52.9756 57.404 52.1284C57.2287 51.7851 57.2309 51.7829 56.8364 51.8643C55.6465 52.1086 54.6473 52.7137 53.7795 53.5433C52.8964 54.3861 52.2587 55.3654 52.2303 56.6527C52.2062 56.6373 52.1952 56.6329 52.193 56.6263C52.1842 56.6021 52.1755 56.5779 52.1711 56.5537C51.9388 55.5546 52.1492 54.6392 52.7167 53.8008C53.2536 53.0086 53.9877 52.4299 54.7963 51.9413C56.5669 50.8719 58.504 50.2403 60.5069 49.8068C61.5872 49.5714 62.6895 49.4437 63.7786 49.2523C65.3081 48.9838 66.7763 48.4909 68.227 47.9452C68.354 47.8967 68.4943 47.8527 68.628 47.8593C69.3095 47.8967 69.9932 47.9342 70.6725 48.0068C71.4438 48.0882 72.2108 48.2092 73.0106 48.3171C72.5176 47.6503 71.9588 47.0847 71.2838 46.605C72.7367 45.8568 74.0646 44.9964 75.2436 43.9182C76.4839 42.7827 77.4985 41.4844 78.0353 39.8692C78.1887 39.4071 78.2895 38.9097 78.3136 38.4234C78.3399 37.8755 77.8688 37.5102 77.3385 37.6312C77.0449 37.6972 76.7205 37.8117 76.5036 38.0075C76.1223 38.353 75.8111 38.7755 75.4781 39.1694C75.2261 39.4665 75.0025 39.7899 74.7286 40.0628C74.5621 40.2257 74.321 40.3137 74.0603 40.4655C74.1457 39.8934 74.1896 39.4093 74.2991 38.9361C74.3933 38.5246 74.5292 38.1175 74.7023 37.7346C74.8557 37.4002 75.1537 37.2109 75.5438 37.2329C75.6643 37.2395 75.7826 37.2769 75.9295 37.3055C75.5482 36.9777 75.1778 36.9028 74.7878 37.1427C74.5051 37.3165 74.229 37.5366 74.0274 37.7985C73.6658 38.2628 73.3568 38.7689 73.0347 39.2618C72.6885 39.7899 72.3729 40.3423 71.9982 40.8506C71.6849 41.2753 71.308 41.6516 70.9595 42.0499C71.308 41.4712 71.6761 40.9166 72.0158 40.3445C72.2743 39.9066 72.3576 39.4203 72.3028 38.9119C72.2261 38.1814 71.6914 37.8227 71.0187 38.1021C70.7492 38.2122 70.5103 38.4234 70.2934 38.6281C70.0545 38.8525 69.8595 39.1254 69.636 39.3674C69.1868 39.8538 68.6258 40.087 67.9684 40.0848C67.2847 40.0804 66.91 39.8098 66.6799 39.165C66.6163 38.9845 66.5593 38.8019 66.4783 38.6303C66.3556 38.3684 66.1561 38.2562 65.8844 38.342C65.6083 38.4278 65.3081 38.5246 65.089 38.7029C64.6047 39.0924 64.162 39.5347 63.7084 39.9616C63.6054 40.0584 63.5222 40.175 63.3907 40.3247C63.4148 39.911 63.4345 39.5589 63.4542 39.2068C63.3797 39.253 63.3469 39.3036 63.3184 39.3564C62.7399 40.4171 62.5755 41.546 62.7377 42.7365C63.0072 44.717 64.528 46.3696 66.4695 46.7789C67.8457 47.0671 69.1714 46.8493 70.4731 46.385C70.5147 46.3696 70.5541 46.352 70.5958 46.341C70.633 46.33 70.6747 46.3278 70.7141 46.3234C69.1846 47.1001 67.5915 47.5777 65.8647 47.3532C63.8991 47.0979 62.4572 46.1011 61.699 44.2262C61.1183 42.7893 61.1906 41.3171 61.5719 39.8472C61.7034 39.341 61.8831 38.8459 62.043 38.3464C60.428 40.2521 59.924 42.3844 60.7523 44.7918C59.4529 43.6409 59.1702 42.0345 58.7999 40.4677C58.1929 43.0247 59.2798 44.948 61.092 46.6028C60.7107 46.4884 60.3447 46.3542 59.97 46.2727C59.5909 46.1891 59.2031 46.1363 58.8152 46.1055C57.2396 45.9801 55.7057 46.2243 54.2046 46.6842C52.1448 47.3136 50.2493 48.2576 48.6694 49.7606C48.2968 50.1149 47.9725 50.522 47.6087 50.9225C47.6679 50.3107 47.8761 49.7606 48.1763 49.2545C48.4721 48.755 48.7855 48.262 49.1449 47.8065C49.5086 47.3444 49.9162 46.9109 50.3457 46.5082C50.7665 46.1099 51.2201 45.7402 51.6912 45.4057C52.1601 45.0712 52.6707 44.7962 53.2295 44.4573C50.6306 45.2407 48.4546 46.55 46.8593 48.6955C45.3385 50.742 45.0471 52.9316 46.3093 55.2378C46.3531 55.317 46.329 55.471 46.2808 55.5568C45.5577 56.7825 45.4021 58.0853 45.7593 59.4518C45.9258 60.0922 46.2063 60.6841 46.6226 61.265C46.7673 59.7841 47.5079 58.8092 48.8074 58.3273C48.5094 58.0038 48.2004 57.698 47.9243 57.3657C47.646 57.0312 47.3984 56.6681 47.1376 56.3182C47.1551 56.3028 47.1749 56.2874 47.1924 56.272C47.4641 56.5229 47.7337 56.7715 48.0054 57.0202C48.6847 57.643 49.3618 58.2657 50.1814 58.7014C51.7569 59.5354 53.4574 59.8369 55.2148 59.8809C56.6063 59.9161 57.9737 59.6939 59.3477 59.5068C59.8144 59.443 60.2834 59.3902 60.7523 59.3506C62.5755 59.1921 63.6274 60.8844 64.769 61.9736C66.1211 63.2631 67.6397 64.3744 69.2678 65.281C78.5525 70.4545 90.7757 68.342 97.5031 60.0415C99.5827 57.4757 101.108 54.4544 101.881 51.235C102.263 49.5758 102.469 47.8747 102.313 46.2023ZM69.5637 44.6729C67.1642 44.5211 65.6083 42.7959 65.777 40.3159C65.8055 39.8934 65.8976 39.4753 65.9611 39.055C65.9655 39.0242 65.9896 38.9955 66.0247 38.9207C66.0553 39.33 66.0422 39.7019 66.1167 40.054C66.2416 40.6438 66.3556 41.2533 66.5944 41.8012C67.2978 43.3988 68.7507 43.9886 70.3065 43.8147C72.0683 43.6167 73.5146 42.7431 74.8448 41.6274C74.8908 41.59 74.9324 41.5482 74.9784 41.5064C74.641 42.2347 74.1435 42.8399 73.5278 43.3416C72.3729 44.2813 71.056 44.7698 69.5637 44.6729Z" fill="url(#paint39_linear)"/>
<path d="M75.2918 80.7621C69.373 77.0894 63.5441 73.2582 57.0578 70.6176C51.8797 68.5095 46.5744 67.1077 40.8989 67.6271C36.4549 68.0342 31.9276 69.6185 28.6121 72.7015C25.9058 75.2189 24.4683 78.6804 22.7766 81.8932C20.8877 85.4757 18.8366 88.9789 16.8754 92.5218C14.855 96.1681 13.0493 100.169 10.6542 103.591C10.4723 103.841 10.297 104.081 10.1261 104.31C9.95517 104.539 9.77987 104.779 9.59799 105.03C9.48404 105.008 9.33722 104.95 9.15534 104.858C8.08597 104.471 6.93333 104.264 5.69304 104.242C4.45275 104.22 3.34394 104.436 2.36661 104.893C1.4331 105.327 0.775703 105.943 0.387838 106.744C-2.71529e-05 107.543 -0.0964456 108.331 0.0985826 109.107C0.291419 109.884 0.780085 110.551 1.56458 111.112C2.34908 111.671 3.44474 111.917 4.85595 111.849C5.94724 111.759 6.97497 111.484 7.94353 111.026C8.90991 110.571 9.80178 110.01 10.6213 109.347C11.4628 110.17 12.2802 111.015 13.0778 111.882C13.8733 112.749 14.6819 113.616 15.4992 114.485C16.1128 115.148 16.7614 115.775 17.4429 116.369C18.1244 116.963 18.841 117.505 19.5926 117.995C20.3421 118.486 21.1331 118.904 21.9636 119.245C22.7942 119.588 23.6751 119.815 24.6064 119.93C26.5172 120.158 28.0862 119.848 29.3134 119.005C30.5405 118.16 31.279 116.847 31.531 115.066C30.2118 115.568 28.8641 115.768 27.4902 115.665C26.114 115.561 24.8233 115.236 23.6181 114.688C22.4589 114.208 21.3829 113.596 20.3947 112.855C19.4064 112.113 18.4334 111.319 17.478 110.474C16.7505 109.858 16.0339 109.246 15.3283 108.641C14.6227 108.036 13.8733 107.47 13.0778 106.944C13.6235 106.328 14.1472 105.694 14.6468 105.043C15.1464 104.392 15.6241 103.747 16.0799 103.109C16.4284 102.6 20.5678 95.0788 24.4771 87.9623C27.2513 82.9142 31.6077 77.7011 36.525 74.6732C46.6402 68.4391 57.4763 76.0529 66.3797 81.0658C69.2306 82.6722 72.1779 84.0563 75.4233 84.6549C77.4305 85.0268 79.4268 85.1082 81.364 84.2654C79.2844 83.0749 77.2508 81.979 75.2918 80.7621ZM6.03051 108.3C5.4498 108.632 4.8187 108.887 4.1372 109.07C3.49952 109.231 2.98894 109.231 2.60327 109.07C2.2154 108.911 1.96559 108.687 1.85384 108.403C1.73989 108.117 1.77495 107.794 1.95683 107.426C2.13871 107.061 2.46741 106.753 2.94512 106.502C3.67264 106.137 4.45056 106.04 5.28107 106.211C6.11159 106.383 6.91142 106.684 7.68496 107.118C7.16342 107.576 6.61121 107.97 6.03051 108.3Z" fill="url(#paint40_linear)"/>
</g>
<defs>
<linearGradient id="paint0_linear" x1="57.2987" y1="-8.28694" x2="26.8189" y2="112.242" gradientUnits="userSpaceOnUse">
<stop offset="0.0757" stop-color="#F6D46B"/>
<stop offset="0.12" stop-color="#BF8033"/>
<stop offset="0.2182" stop-color="#9E6031"/>
<stop offset="0.3091" stop-color="#C88B30"/>
<stop offset="0.5273" stop-color="#F2DA75"/>
<stop offset="0.6909" stop-color="#27AAE1"/>
<stop offset="0.8135" stop-color="#8BCBF0"/>
<stop offset="0.8848" stop-color="#00AEEF"/>
<stop offset="1" stop-color="#2B3990"/>
</linearGradient>
<linearGradient id="paint1_linear" x1="69.5049" y1="-5.2007" x2="39.025" y2="115.328" gradientUnits="userSpaceOnUse">
<stop offset="0.0757" stop-color="#F6D46B"/>
<stop offset="0.12" stop-color="#BF8033"/>
<stop offset="0.2182" stop-color="#9E6031"/>
<stop offset="0.3091" stop-color="#C88B30"/>
<stop offset="0.5273" stop-color="#F2DA75"/>
<stop offset="0.6909" stop-color="#27AAE1"/>
<stop offset="0.8135" stop-color="#8BCBF0"/>
<stop offset="0.8848" stop-color="#00AEEF"/>
<stop offset="1" stop-color="#2B3990"/>
</linearGradient>
<linearGradient id="paint2_linear" x1="85.2948" y1="-1.20713" x2="54.8149" y2="119.322" gradientUnits="userSpaceOnUse">
<stop offset="0.0757" stop-color="#F6D46B"/>
<stop offset="0.12" stop-color="#BF8033"/>
<stop offset="0.2182" stop-color="#9E6031"/>
<stop offset="0.3091" stop-color="#C88B30"/>
<stop offset="0.5273" stop-color="#F2DA75"/>
<stop offset="0.6909" stop-color="#27AAE1"/>
<stop offset="0.8135" stop-color="#8BCBF0"/>
<stop offset="0.8848" stop-color="#00AEEF"/>
<stop offset="1" stop-color="#2B3990"/>
</linearGradient>
<linearGradient id="paint3_linear" x1="101.674" y1="2.93446" x2="71.1945" y2="123.464" gradientUnits="userSpaceOnUse">
<stop offset="0.0757" stop-color="#F6D46B"/>
<stop offset="0.12" stop-color="#BF8033"/>
<stop offset="0.2182" stop-color="#9E6031"/>
<stop offset="0.3091" stop-color="#C88B30"/>
<stop offset="0.5273" stop-color="#F2DA75"/>
<stop offset="0.6909" stop-color="#27AAE1"/>
<stop offset="0.8135" stop-color="#8BCBF0"/>
<stop offset="0.8848" stop-color="#00AEEF"/>
<stop offset="1" stop-color="#2B3990"/>
</linearGradient>
<linearGradient id="paint4_linear" x1="116.825" y1="6.76605" x2="86.3454" y2="127.295" gradientUnits="userSpaceOnUse">
<stop offset="0.0757" stop-color="#F6D46B"/>
<stop offset="0.12" stop-color="#BF8033"/>
<stop offset="0.2182" stop-color="#9E6031"/>
<stop offset="0.3091" stop-color="#C88B30"/>
<stop offset="0.5273" stop-color="#F2DA75"/>
<stop offset="0.6909" stop-color="#27AAE1"/>
<stop offset="0.8135" stop-color="#8BCBF0"/>
<stop offset="0.8848" stop-color="#00AEEF"/>
<stop offset="1" stop-color="#2B3990"/>
</linearGradient>
<linearGradient id="paint5_linear" x1="129.216" y1="9.89963" x2="98.7358" y2="130.429" gradientUnits="userSpaceOnUse">
<stop offset="0.0757" stop-color="#F6D46B"/>
<stop offset="0.12" stop-color="#BF8033"/>
<stop offset="0.2182" stop-color="#9E6031"/>
<stop offset="0.3091" stop-color="#C88B30"/>
<stop offset="0.5273" stop-color="#F2DA75"/>
<stop offset="0.6909" stop-color="#27AAE1"/>
<stop offset="0.8135" stop-color="#8BCBF0"/>
<stop offset="0.8848" stop-color="#00AEEF"/>
<stop offset="1" stop-color="#2B3990"/>
</linearGradient>
<linearGradient id="paint6_linear" x1="100.876" y1="2.73269" x2="70.3957" y2="123.262" gradientUnits="userSpaceOnUse">
<stop offset="0.0757" stop-color="#F6D46B"/>
<stop offset="0.12" stop-color="#BF8033"/>
<stop offset="0.2182" stop-color="#9E6031"/>
<stop offset="0.3091" stop-color="#C88B30"/>
<stop offset="0.5273" stop-color="#F2DA75"/>
<stop offset="0.6909" stop-color="#27AAE1"/>
<stop offset="0.8135" stop-color="#8BCBF0"/>
<stop offset="0.8848" stop-color="#00AEEF"/>
<stop offset="1" stop-color="#2B3990"/>
</linearGradient>
<linearGradient id="paint7_linear" x1="97.5942" y1="1.90226" x2="67.1143" y2="122.431" gradientUnits="userSpaceOnUse">
<stop offset="0.0757" stop-color="#F6D46B"/>
<stop offset="0.12" stop-color="#BF8033"/>
<stop offset="0.2182" stop-color="#9E6031"/>
<stop offset="0.3091" stop-color="#C88B30"/>
<stop offset="0.5273" stop-color="#F2DA75"/>
<stop offset="0.6909" stop-color="#27AAE1"/>
<stop offset="0.8135" stop-color="#8BCBF0"/>
<stop offset="0.8848" stop-color="#00AEEF"/>
<stop offset="1" stop-color="#2B3990"/>
</linearGradient>
<linearGradient id="paint8_linear" x1="95.8287" y1="1.45621" x2="65.3488" y2="121.985" gradientUnits="userSpaceOnUse">
<stop offset="0.0757" stop-color="#F6D46B"/>
<stop offset="0.12" stop-color="#BF8033"/>
<stop offset="0.2182" stop-color="#9E6031"/>
<stop offset="0.3091" stop-color="#C88B30"/>
<stop offset="0.5273" stop-color="#F2DA75"/>
<stop offset="0.6909" stop-color="#27AAE1"/>
<stop offset="0.8135" stop-color="#8BCBF0"/>
<stop offset="0.8848" stop-color="#00AEEF"/>
<stop offset="1" stop-color="#2B3990"/>
</linearGradient>
<linearGradient id="paint9_linear" x1="91.7085" y1="0.415266" x2="61.2286" y2="120.944" gradientUnits="userSpaceOnUse">
<stop offset="0.0757" stop-color="#F6D46B"/>
<stop offset="0.12" stop-color="#BF8033"/>
<stop offset="0.2182" stop-color="#9E6031"/>
<stop offset="0.3091" stop-color="#C88B30"/>
<stop offset="0.5273" stop-color="#F2DA75"/>
<stop offset="0.6909" stop-color="#27AAE1"/>
<stop offset="0.8135" stop-color="#8BCBF0"/>
<stop offset="0.8848" stop-color="#00AEEF"/>
<stop offset="1" stop-color="#2B3990"/>
</linearGradient>
<linearGradient id="paint10_linear" x1="103.409" y1="3.37376" x2="72.9287" y2="123.903" gradientUnits="userSpaceOnUse">
<stop offset="0.0757" stop-color="#F6D46B"/>
<stop offset="0.12" stop-color="#BF8033"/>
<stop offset="0.2182" stop-color="#9E6031"/>
<stop offset="0.3091" stop-color="#C88B30"/>
<stop offset="0.5273" stop-color="#F2DA75"/>
<stop offset="0.6909" stop-color="#27AAE1"/>
<stop offset="0.8135" stop-color="#8BCBF0"/>
<stop offset="0.8848" stop-color="#00AEEF"/>
<stop offset="1" stop-color="#2B3990"/>
</linearGradient>
<linearGradient id="paint11_linear" x1="101.579" y1="8.03705" x2="76.3154" y2="129.779" gradientUnits="userSpaceOnUse">
<stop offset="0.0757" stop-color="#F6D46B"/>
<stop offset="0.12" stop-color="#BF8033"/>
<stop offset="0.2182" stop-color="#9E6031"/>
<stop offset="0.3091" stop-color="#C88B30"/>
<stop offset="0.5273" stop-color="#F2DA75"/>
<stop offset="0.6909" stop-color="#27AAE1"/>
<stop offset="0.8135" stop-color="#8BCBF0"/>
<stop offset="0.8848" stop-color="#00AEEF"/>
<stop offset="1" stop-color="#2B3990"/>
</linearGradient>
<linearGradient id="paint12_linear" x1="101.01" y1="7.91869" x2="75.7463" y2="129.661" gradientUnits="userSpaceOnUse">
<stop offset="0.0757" stop-color="#F6D46B"/>
<stop offset="0.12" stop-color="#BF8033"/>
<stop offset="0.2182" stop-color="#9E6031"/>
<stop offset="0.3091" stop-color="#C88B30"/>
<stop offset="0.5273" stop-color="#F2DA75"/>
<stop offset="0.6909" stop-color="#27AAE1"/>
<stop offset="0.8135" stop-color="#8BCBF0"/>
<stop offset="0.8848" stop-color="#00AEEF"/>
<stop offset="1" stop-color="#2B3990"/>
</linearGradient>
<linearGradient id="paint13_linear" x1="93.6373" y1="6.38869" x2="68.3733" y2="128.131" gradientUnits="userSpaceOnUse">
<stop offset="0.0757" stop-color="#F6D46B"/>
<stop offset="0.12" stop-color="#BF8033"/>
<stop offset="0.2182" stop-color="#9E6031"/>
<stop offset="0.3091" stop-color="#C88B30"/>
<stop offset="0.5273" stop-color="#F2DA75"/>
<stop offset="0.6909" stop-color="#27AAE1"/>
<stop offset="0.8135" stop-color="#8BCBF0"/>
<stop offset="0.8848" stop-color="#00AEEF"/>
<stop offset="1" stop-color="#2B3990"/>
</linearGradient>
<linearGradient id="paint14_linear" x1="81.4943" y1="3.86895" x2="56.2303" y2="125.611" gradientUnits="userSpaceOnUse">
<stop offset="0.0757" stop-color="#F6D46B"/>
<stop offset="0.12" stop-color="#BF8033"/>
<stop offset="0.2182" stop-color="#9E6031"/>
<stop offset="0.3091" stop-color="#C88B30"/>
<stop offset="0.5273" stop-color="#F2DA75"/>
<stop offset="0.6909" stop-color="#27AAE1"/>
<stop offset="0.8135" stop-color="#8BCBF0"/>
<stop offset="0.8848" stop-color="#00AEEF"/>
<stop offset="1" stop-color="#2B3990"/>
</linearGradient>
<linearGradient id="paint15_linear" x1="83.9832" y1="4.38535" x2="58.7192" y2="126.127" gradientUnits="userSpaceOnUse">
<stop offset="0.0757" stop-color="#F6D46B"/>
<stop offset="0.12" stop-color="#BF8033"/>
<stop offset="0.2182" stop-color="#9E6031"/>
<stop offset="0.3091" stop-color="#C88B30"/>
<stop offset="0.5273" stop-color="#F2DA75"/>
<stop offset="0.6909" stop-color="#27AAE1"/>
<stop offset="0.8135" stop-color="#8BCBF0"/>
<stop offset="0.8848" stop-color="#00AEEF"/>
<stop offset="1" stop-color="#2B3990"/>
</linearGradient>
<linearGradient id="paint16_linear" x1="89.4664" y1="5.52318" x2="64.2025" y2="127.265" gradientUnits="userSpaceOnUse">
<stop offset="0.0757" stop-color="#F6D46B"/>
<stop offset="0.12" stop-color="#BF8033"/>
<stop offset="0.2182" stop-color="#9E6031"/>
<stop offset="0.3091" stop-color="#C88B30"/>
<stop offset="0.5273" stop-color="#F2DA75"/>
<stop offset="0.6909" stop-color="#27AAE1"/>
<stop offset="0.8135" stop-color="#8BCBF0"/>
<stop offset="0.8848" stop-color="#00AEEF"/>
<stop offset="1" stop-color="#2B3990"/>
</linearGradient>
<linearGradient id="paint17_linear" x1="75.4858" y1="2.62177" x2="50.2218" y2="124.364" gradientUnits="userSpaceOnUse">
<stop offset="0.0757" stop-color="#F6D46B"/>
<stop offset="0.12" stop-color="#BF8033"/>
<stop offset="0.2182" stop-color="#9E6031"/>
<stop offset="0.3091" stop-color="#C88B30"/>
<stop offset="0.5273" stop-color="#F2DA75"/>
<stop offset="0.6909" stop-color="#27AAE1"/>
<stop offset="0.8135" stop-color="#8BCBF0"/>
<stop offset="0.8848" stop-color="#00AEEF"/>
<stop offset="1" stop-color="#2B3990"/>
</linearGradient>
<linearGradient id="paint18_linear" x1="99.3525" y1="7.57452" x2="74.0885" y2="129.317" gradientUnits="userSpaceOnUse">
<stop offset="0.0757" stop-color="#F6D46B"/>
<stop offset="0.12" stop-color="#BF8033"/>
<stop offset="0.2182" stop-color="#9E6031"/>
<stop offset="0.3091" stop-color="#C88B30"/>
<stop offset="0.5273" stop-color="#F2DA75"/>
<stop offset="0.6909" stop-color="#27AAE1"/>
<stop offset="0.8135" stop-color="#8BCBF0"/>
<stop offset="0.8848" stop-color="#00AEEF"/>
<stop offset="1" stop-color="#2B3990"/>
</linearGradient>
<linearGradient id="paint19_linear" x1="91.4205" y1="5.92837" x2="66.1565" y2="127.67" gradientUnits="userSpaceOnUse">
<stop offset="0.0757" stop-color="#F6D46B"/>
<stop offset="0.12" stop-color="#BF8033"/>
<stop offset="0.2182" stop-color="#9E6031"/>
<stop offset="0.3091" stop-color="#C88B30"/>
<stop offset="0.5273" stop-color="#F2DA75"/>
<stop offset="0.6909" stop-color="#27AAE1"/>
<stop offset="0.8135" stop-color="#8BCBF0"/>
<stop offset="0.8848" stop-color="#00AEEF"/>
<stop offset="1" stop-color="#2B3990"/>
</linearGradient>
<linearGradient id="paint20_linear" x1="86.5537" y1="4.9186" x2="61.2897" y2="126.66" gradientUnits="userSpaceOnUse">
<stop offset="0.0757" stop-color="#F6D46B"/>
<stop offset="0.12" stop-color="#BF8033"/>
<stop offset="0.2182" stop-color="#9E6031"/>
<stop offset="0.3091" stop-color="#C88B30"/>
<stop offset="0.5273" stop-color="#F2DA75"/>
<stop offset="0.6909" stop-color="#27AAE1"/>
<stop offset="0.8135" stop-color="#8BCBF0"/>
<stop offset="0.8848" stop-color="#00AEEF"/>
<stop offset="1" stop-color="#2B3990"/>
</linearGradient>
<linearGradient id="paint21_linear" x1="76.4817" y1="2.82884" x2="51.2177" y2="124.571" gradientUnits="userSpaceOnUse">
<stop offset="0.0757" stop-color="#F6D46B"/>
<stop offset="0.12" stop-color="#BF8033"/>
<stop offset="0.2182" stop-color="#9E6031"/>
<stop offset="0.3091" stop-color="#C88B30"/>
<stop offset="0.5273" stop-color="#F2DA75"/>
<stop offset="0.6909" stop-color="#27AAE1"/>
<stop offset="0.8135" stop-color="#8BCBF0"/>
<stop offset="0.8848" stop-color="#00AEEF"/>
<stop offset="1" stop-color="#2B3990"/>
</linearGradient>
<linearGradient id="paint22_linear" x1="97.5084" y1="7.19274" x2="72.2444" y2="128.935" gradientUnits="userSpaceOnUse">
<stop offset="0.0757" stop-color="#F6D46B"/>
<stop offset="0.12" stop-color="#BF8033"/>
<stop offset="0.2182" stop-color="#9E6031"/>
<stop offset="0.3091" stop-color="#C88B30"/>
<stop offset="0.5273" stop-color="#F2DA75"/>
<stop offset="0.6909" stop-color="#27AAE1"/>
<stop offset="0.8135" stop-color="#8BCBF0"/>
<stop offset="0.8848" stop-color="#00AEEF"/>
<stop offset="1" stop-color="#2B3990"/>
</linearGradient>
<linearGradient id="paint23_linear" x1="98.6705" y1="7.4338" x2="73.4066" y2="129.176" gradientUnits="userSpaceOnUse">
<stop offset="0.0757" stop-color="#F6D46B"/>
<stop offset="0.12" stop-color="#BF8033"/>
<stop offset="0.2182" stop-color="#9E6031"/>
<stop offset="0.3091" stop-color="#C88B30"/>
<stop offset="0.5273" stop-color="#F2DA75"/>
<stop offset="0.6909" stop-color="#27AAE1"/>
<stop offset="0.8135" stop-color="#8BCBF0"/>
<stop offset="0.8848" stop-color="#00AEEF"/>
<stop offset="1" stop-color="#2B3990"/>
</linearGradient>
<linearGradient id="paint24_linear" x1="67.4408" y1="0.952021" x2="42.1768" y2="122.694" gradientUnits="userSpaceOnUse">
<stop offset="0.0757" stop-color="#F6D46B"/>
<stop offset="0.12" stop-color="#BF8033"/>
<stop offset="0.2182" stop-color="#9E6031"/>
<stop offset="0.3091" stop-color="#C88B30"/>
<stop offset="0.5273" stop-color="#F2DA75"/>
<stop offset="0.6909" stop-color="#27AAE1"/>
<stop offset="0.8135" stop-color="#8BCBF0"/>
<stop offset="0.8848" stop-color="#00AEEF"/>
<stop offset="1" stop-color="#2B3990"/>
</linearGradient>
<linearGradient id="paint25_linear" x1="80.8857" y1="3.74247" x2="55.6217" y2="125.484" gradientUnits="userSpaceOnUse">
<stop offset="0.0757" stop-color="#F6D46B"/>
<stop offset="0.12" stop-color="#BF8033"/>
<stop offset="0.2182" stop-color="#9E6031"/>
<stop offset="0.3091" stop-color="#C88B30"/>
<stop offset="0.5273" stop-color="#F2DA75"/>
<stop offset="0.6909" stop-color="#27AAE1"/>
<stop offset="0.8135" stop-color="#8BCBF0"/>
<stop offset="0.8848" stop-color="#00AEEF"/>
<stop offset="1" stop-color="#2B3990"/>
</linearGradient>
<linearGradient id="paint26_linear" x1="90.6531" y1="5.76949" x2="65.389" y2="127.511" gradientUnits="userSpaceOnUse">
<stop offset="0.0757" stop-color="#F6D46B"/>
<stop offset="0.12" stop-color="#BF8033"/>
<stop offset="0.2182" stop-color="#9E6031"/>
<stop offset="0.3091" stop-color="#C88B30"/>
<stop offset="0.5273" stop-color="#F2DA75"/>
<stop offset="0.6909" stop-color="#27AAE1"/>
<stop offset="0.8135" stop-color="#8BCBF0"/>
<stop offset="0.8848" stop-color="#00AEEF"/>
<stop offset="1" stop-color="#2B3990"/>
</linearGradient>
<linearGradient id="paint27_linear" x1="78.3407" y1="3.21391" x2="53.0766" y2="124.956" gradientUnits="userSpaceOnUse">
<stop offset="0.0757" stop-color="#F6D46B"/>
<stop offset="0.12" stop-color="#BF8033"/>
<stop offset="0.2182" stop-color="#9E6031"/>
<stop offset="0.3091" stop-color="#C88B30"/>
<stop offset="0.5273" stop-color="#F2DA75"/>
<stop offset="0.6909" stop-color="#27AAE1"/>
<stop offset="0.8135" stop-color="#8BCBF0"/>
<stop offset="0.8848" stop-color="#00AEEF"/>
<stop offset="1" stop-color="#2B3990"/>
</linearGradient>
<linearGradient id="paint28_linear" x1="88.1947" y1="5.25904" x2="62.9306" y2="127.001" gradientUnits="userSpaceOnUse">
<stop offset="0.0757" stop-color="#F6D46B"/>
<stop offset="0.12" stop-color="#BF8033"/>
<stop offset="0.2182" stop-color="#9E6031"/>
<stop offset="0.3091" stop-color="#C88B30"/>
<stop offset="0.5273" stop-color="#F2DA75"/>
<stop offset="0.6909" stop-color="#27AAE1"/>
<stop offset="0.8135" stop-color="#8BCBF0"/>
<stop offset="0.8848" stop-color="#00AEEF"/>
<stop offset="1" stop-color="#2B3990"/>
</linearGradient>
<linearGradient id="paint29_linear" x1="95.2639" y1="6.72625" x2="70" y2="128.468" gradientUnits="userSpaceOnUse">
<stop offset="0.0757" stop-color="#F6D46B"/>
<stop offset="0.12" stop-color="#BF8033"/>
<stop offset="0.2182" stop-color="#9E6031"/>
<stop offset="0.3091" stop-color="#C88B30"/>
<stop offset="0.5273" stop-color="#F2DA75"/>
<stop offset="0.6909" stop-color="#27AAE1"/>
<stop offset="0.8135" stop-color="#8BCBF0"/>
<stop offset="0.8848" stop-color="#00AEEF"/>
<stop offset="1" stop-color="#2B3990"/>
</linearGradient>
<linearGradient id="paint30_linear" x1="86.7736" y1="4.96458" x2="61.5093" y2="126.707" gradientUnits="userSpaceOnUse">
<stop offset="0.0757" stop-color="#F6D46B"/>
<stop offset="0.12" stop-color="#BF8033"/>
<stop offset="0.2182" stop-color="#9E6031"/>
<stop offset="0.3091" stop-color="#C88B30"/>
<stop offset="0.5273" stop-color="#F2DA75"/>
<stop offset="0.6909" stop-color="#27AAE1"/>
<stop offset="0.8135" stop-color="#8BCBF0"/>
<stop offset="0.8848" stop-color="#00AEEF"/>
<stop offset="1" stop-color="#2B3990"/>
</linearGradient>
<linearGradient id="paint31_linear" x1="93.7395" y1="6.40933" x2="68.4756" y2="128.151" gradientUnits="userSpaceOnUse">
<stop offset="0.0757" stop-color="#F6D46B"/>
<stop offset="0.12" stop-color="#BF8033"/>
<stop offset="0.2182" stop-color="#9E6031"/>
<stop offset="0.3091" stop-color="#C88B30"/>
<stop offset="0.5273" stop-color="#F2DA75"/>
<stop offset="0.6909" stop-color="#27AAE1"/>
<stop offset="0.8135" stop-color="#8BCBF0"/>
<stop offset="0.8848" stop-color="#00AEEF"/>
<stop offset="1" stop-color="#2B3990"/>
</linearGradient>
<linearGradient id="paint32_linear" x1="84.0459" y1="4.39809" x2="58.782" y2="126.14" gradientUnits="userSpaceOnUse">
<stop offset="0.0757" stop-color="#F6D46B"/>
<stop offset="0.12" stop-color="#BF8033"/>
<stop offset="0.2182" stop-color="#9E6031"/>
<stop offset="0.3091" stop-color="#C88B30"/>
<stop offset="0.5273" stop-color="#F2DA75"/>
<stop offset="0.6909" stop-color="#27AAE1"/>
<stop offset="0.8135" stop-color="#8BCBF0"/>
<stop offset="0.8848" stop-color="#00AEEF"/>
<stop offset="1" stop-color="#2B3990"/>
</linearGradient>
<linearGradient id="paint33_linear" x1="74.6444" y1="2.44766" x2="49.3804" y2="124.19" gradientUnits="userSpaceOnUse">
<stop offset="0.0757" stop-color="#F6D46B"/>
<stop offset="0.12" stop-color="#BF8033"/>
<stop offset="0.2182" stop-color="#9E6031"/>
<stop offset="0.3091" stop-color="#C88B30"/>
<stop offset="0.5273" stop-color="#F2DA75"/>
<stop offset="0.6909" stop-color="#27AAE1"/>
<stop offset="0.8135" stop-color="#8BCBF0"/>
<stop offset="0.8848" stop-color="#00AEEF"/>
<stop offset="1" stop-color="#2B3990"/>
</linearGradient>
<linearGradient id="paint34_linear" x1="67.3485" y1="0.933222" x2="42.0847" y2="122.675" gradientUnits="userSpaceOnUse">
<stop offset="0.0757" stop-color="#F6D46B"/>
<stop offset="0.12" stop-color="#BF8033"/>
<stop offset="0.2182" stop-color="#9E6031"/>
<stop offset="0.3091" stop-color="#C88B30"/>
<stop offset="0.5273" stop-color="#F2DA75"/>
<stop offset="0.6909" stop-color="#27AAE1"/>
<stop offset="0.8135" stop-color="#8BCBF0"/>
<stop offset="0.8848" stop-color="#00AEEF"/>
<stop offset="1" stop-color="#2B3990"/>
</linearGradient>
<linearGradient id="paint35_linear" x1="83.5735" y1="4.30048" x2="58.3096" y2="126.042" gradientUnits="userSpaceOnUse">
<stop offset="0.0757" stop-color="#F6D46B"/>
<stop offset="0.12" stop-color="#BF8033"/>
<stop offset="0.2182" stop-color="#9E6031"/>
<stop offset="0.3091" stop-color="#C88B30"/>
<stop offset="0.5273" stop-color="#F2DA75"/>
<stop offset="0.6909" stop-color="#27AAE1"/>
<stop offset="0.8135" stop-color="#8BCBF0"/>
<stop offset="0.8848" stop-color="#00AEEF"/>
<stop offset="1" stop-color="#2B3990"/>
</linearGradient>
<linearGradient id="paint36_linear" x1="72.1063" y1="-4.54242" x2="41.6264" y2="115.987" gradientUnits="userSpaceOnUse">
<stop offset="0.0757" stop-color="#F6D46B"/>
<stop offset="0.12" stop-color="#BF8033"/>
<stop offset="0.2182" stop-color="#9E6031"/>
<stop offset="0.3091" stop-color="#C88B30"/>
<stop offset="0.5273" stop-color="#F2DA75"/>
<stop offset="0.6909" stop-color="#27AAE1"/>
<stop offset="0.8135" stop-color="#8BCBF0"/>
<stop offset="0.8848" stop-color="#00AEEF"/>
<stop offset="1" stop-color="#2B3990"/>
</linearGradient>
<linearGradient id="paint37_linear" x1="78.4982" y1="-2.92549" x2="48.0183" y2="117.604" gradientUnits="userSpaceOnUse">
<stop offset="0.0757" stop-color="#F6D46B"/>
<stop offset="0.12" stop-color="#BF8033"/>
<stop offset="0.2182" stop-color="#9E6031"/>
<stop offset="0.3091" stop-color="#C88B30"/>
<stop offset="0.5273" stop-color="#F2DA75"/>
<stop offset="0.6909" stop-color="#27AAE1"/>
<stop offset="0.8135" stop-color="#8BCBF0"/>
<stop offset="0.8848" stop-color="#00AEEF"/>
<stop offset="1" stop-color="#2B3990"/>
</linearGradient>
<linearGradient id="paint38_linear" x1="67.1652" y1="-5.79191" x2="36.6854" y2="114.737" gradientUnits="userSpaceOnUse">
<stop offset="0.0757" stop-color="#F6D46B"/>
<stop offset="0.12" stop-color="#BF8033"/>
<stop offset="0.2182" stop-color="#9E6031"/>
<stop offset="0.3091" stop-color="#C88B30"/>
<stop offset="0.5273" stop-color="#F2DA75"/>
<stop offset="0.6909" stop-color="#27AAE1"/>
<stop offset="0.8135" stop-color="#8BCBF0"/>
<stop offset="0.8848" stop-color="#00AEEF"/>
<stop offset="1" stop-color="#2B3990"/>
</linearGradient>
<linearGradient id="paint39_linear" x1="86.7999" y1="-0.827125" x2="56.32" y2="119.702" gradientUnits="userSpaceOnUse">
<stop offset="0.0757" stop-color="#F6D46B"/>
<stop offset="0.12" stop-color="#BF8033"/>
<stop offset="0.2182" stop-color="#9E6031"/>
<stop offset="0.3091" stop-color="#C88B30"/>
<stop offset="0.5273" stop-color="#F2DA75"/>
<stop offset="0.6909" stop-color="#27AAE1"/>
<stop offset="0.8135" stop-color="#8BCBF0"/>
<stop offset="0.8848" stop-color="#00AEEF"/>
<stop offset="1" stop-color="#2B3990"/>
</linearGradient>
<linearGradient id="paint40_linear" x1="66.2866" y1="-6.01433" x2="35.8068" y2="114.515" gradientUnits="userSpaceOnUse">
<stop offset="0.0757" stop-color="#F6D46B"/>
<stop offset="0.12" stop-color="#BF8033"/>
<stop offset="0.2182" stop-color="#9E6031"/>
<stop offset="0.3091" stop-color="#C88B30"/>
<stop offset="0.5273" stop-color="#F2DA75"/>
<stop offset="0.6909" stop-color="#27AAE1"/>
<stop offset="0.8135" stop-color="#8BCBF0"/>
<stop offset="0.8848" stop-color="#00AEEF"/>
<stop offset="1" stop-color="#2B3990"/>
</linearGradient>
<clipPath id="clip0">
<rect width="112.836" height="120" fill="white"/>
</clipPath>
</defs>
</svg>
