<svg width="20" height="13" fill="none" xmlns="http://www.w3.org/2000/svg"><path fill-rule="evenodd" clip-rule="evenodd" d="M5.6 10.207c.266 0 .52-.024.759-.077a1.8 1.8 0 00.638-.261 1.31 1.31 0 00.44-.491c.11-.206.162-.474.162-.798 0-.633-.178-1.084-.533-1.357-.355-.27-.83-.404-1.413-.404H2.71v3.388H5.6zM5.45 4.97c.48 0 .877-.114 1.191-.345.312-.227.463-.603.463-1.119 0-.286-.05-.522-.151-.706a1.117 1.117 0 00-.417-.428 1.682 1.682 0 00-.597-.216 3.612 3.612 0 00-.696-.06H2.708V4.97H5.45zM5.8 0c.588 0 1.12.05 1.605.156a3.48 3.48 0 011.242.508c.343.234.611.545.803.938.188.387.282.87.282 1.443 0 .62-.14 1.137-.422 1.55-.283.413-.7.752-1.255 1.015.757.218 1.318.601 1.69 1.146.373.548.556 1.205.556 1.974 0 .625-.12 1.161-.358 1.613a3.14 3.14 0 01-.973 1.114c-.407.289-.875.5-1.4.638a6.246 6.246 0 01-1.607.207H0V0h5.8zm11.174 5.486c-.291-.322-.784-.496-1.385-.496-.39 0-.714.066-.973.2a1.96 1.96 0 00-.62.49 1.754 1.754 0 00-.328.628c-.062.217-.1.414-.111.588h3.98c-.058-.625-.271-1.086-.563-1.41zm-1.23 5.218c-.686 0-1.215-.18-1.582-.538-.367-.358-.606-1.024-.606-1.728h6.428a6.322 6.322 0 00-.17-1.984 4.846 4.846 0 00-.783-1.69 3.943 3.943 0 00-1.389-1.18c-.566-.296-1.226-.441-1.98-.441-.682 0-1.298.12-1.857.362a4.422 4.422 0 00-1.444.994c-.403.417-.71.915-.932 1.492a5.234 5.234 0 00-.33 1.864c0 .689.108 1.324.32 1.898.216.577.517 1.069.905 1.485a4.05 4.05 0 001.439.958 5.136 5.136 0 001.9.337c1.006 0 1.87-.23 2.579-.694.717-.46 1.243-1.226 1.589-2.298h-2.155c-.083.276-.3.541-.654.79-.358.248-.784.373-1.277.373zm2.3-9.879h-4.987V2.04h4.987V.825z" fill="#fff"/></svg>