<svg width="30" height="22" fill="none" xmlns="http://www.w3.org/2000/svg"><path opacity=".3" fill-rule="evenodd" clip-rule="evenodd" d="M23.355 4.12s0-.23 0 0c-1.15-1.151-2.53-1.612-3.911-1.382 1.38-.23 2.07-.69 2.3-.921 0-.23 0-.46-.23-.46-.69 0-1.38.23-1.84.46.69-.46.92-.691.92-.921-.69 0-1.38.46-2.3 1.151.23-.46.46-.69.23-.921-.46.23-.69.46-.92.921-.691.691-1.151 1.152-1.381 1.843-.92 1.612-1.61 2.994-2.071 4.607h-.23a5.434 5.434 0 00-2.07-1.843C10.93 5.964 9.78 5.502 8.4 4.811 7.02 4.121 5.639 3.43 4.028 2.97c0 1.612.69 2.994 2.301 3.915-.46 0-1.15 0-1.61.23 0 1.383 1.15 2.535 3.22 2.995-.69 0-1.38.23-2.07.691.69 1.382 1.84 1.843 3.681 1.843-.23.23-.69.46-.69.46-.23.231-.46.692-.23 1.152.46.691.92.922 2.07.922-1.61 1.612-3.68 2.534-5.981 2.303-1.381 0-2.992-.69-4.602-2.073 1.61 2.304 3.911 4.146 6.672 5.298 3.222.921 6.443 1.152 9.434.23 2.99-.921 5.752-2.764 7.823-5.297.92-1.383 1.61-2.765 1.84-4.147 1.61 0 2.761-.46 3.452-1.382-.46.23-1.611.23-3.222-.23 1.611-.23 2.761-.691 2.992-1.612-1.15.46-2.301.46-3.452 0-.23-1.613-.92-2.995-2.3-4.147z" fill="#fff"/></svg>