<svg width="17" height="17" fill="none" xmlns="http://www.w3.org/2000/svg"><path fill-rule="evenodd" clip-rule="evenodd" d="M8.5 17C3.813 17 0 13.187 0 8.5 0 3.813 3.813 0 8.5 0 13.187 0 17 3.813 17 8.5c0 4.687-3.813 8.5-8.5 8.5zm7.168-7.336c-.248-.079-2.247-.675-4.522-.31.95 2.609 1.336 4.734 1.41 5.176a7.273 7.273 0 003.113-4.866zm-4.332 5.53c-.108-.637-.53-2.857-1.549-5.505l-.048.016c-4.095 1.427-5.565 4.267-5.695 4.534A7.225 7.225 0 008.5 15.77a7.22 7.22 0 002.836-.577zm-8.23-1.828c.165-.282 2.157-3.581 5.902-4.791.094-.031.19-.06.286-.087a25.158 25.158 0 00-.589-1.232c-3.626 1.085-7.144 1.04-7.462 1.033a7.232 7.232 0 001.863 5.076zM1.393 7.024c.325.004 3.316.017 6.712-.885a46.333 46.333 0 00-2.692-4.198 7.287 7.287 0 00-4.02 5.083zM6.8 1.453c.2.268 1.519 2.064 2.709 4.25 2.581-.968 3.674-2.437 3.805-2.623A7.23 7.23 0 006.8 1.453zm7.32 2.467c-.153.207-1.37 1.766-4.054 2.862a22.453 22.453 0 01.638 1.427c2.416-.304 4.816.183 5.055.234A7.226 7.226 0 0014.12 3.92z" fill="#fff"/></svg>