<svg width="27" height="27" fill="none" xmlns="http://www.w3.org/2000/svg"><path opacity=".3" fill-rule="evenodd" clip-rule="evenodd" d="M24.48.272H3.078A2.306 2.306 0 00.792 2.558v6.364h8.65c1.298-.935 2.675-1.74 4.337-1.74 1.61 0 3.065.805 4.338 1.74h8.65V2.558A2.306 2.306 0 0024.48.272zm.546 6.027c0 .494-.39.91-.883.91H20.74a.92.92 0 01-.909-.91V2.897c0-.494.416-.883.91-.883h3.402c.493 0 .883.39.883.883v3.402zm-6.91 7.818c0-2.39-1.947-4.311-4.337-4.311-2.39 0-4.338 1.922-4.338 4.311a4.345 4.345 0 004.338 4.338 4.345 4.345 0 004.338-4.338zm2.287-1.715c.155.52.207 1.065.207 1.61 0 3.793-3.065 6.858-6.83 6.858-3.767 0-6.832-3.065-6.832-6.857 0-.546.052-1.091.208-1.61H.792V23.96a2.306 2.306 0 002.286 2.286H24.48a2.306 2.306 0 002.286-2.286V12.402h-6.363z" fill="#fff"/></svg>