<svg width="17" height="14" fill="none" xmlns="http://www.w3.org/2000/svg"><path opacity=".7" fill-rule="evenodd" clip-rule="evenodd" d="M7.788.01C7.448.005 7.106 0 6.765 0 5.81 0 4.432.02 3.52.299 1.93.777.827 1.952.827 3.565c0 1.971 1.442 3.086 3.478 3.086 0 .84.09.891.218.965.079.046.173.1.27.35C2.756 7.966 0 8.623 0 10.973 0 13.183 2.333 14 4.347 14c2.333 0 4.814-1.056 4.814-3.565 0-1.46-1.126-2.384-1.916-3.033-.427-.35-.756-.62-.756-.85 0-.252.253-.454.582-.717.609-.486 1.475-1.179 1.475-2.768 0-.777-.233-1.673-.933-2.131.064-.008.14-.015.222-.023C8.355.864 9.16.789 9.16.239c0-.22-.212-.22-.382-.22-.326 0-.657-.004-.991-.009zm-1.49 3.614c0 .817-.34 1.693-1.357 1.693-1.336 0-1.993-1.693-1.993-2.728 0-.797.36-1.693 1.357-1.693 1.336 0 1.993 1.693 1.993 2.728zm-1.654 8.823c1.166 0 2.82-.677 2.82-1.952 0-1.255-1.505-1.792-2.63-1.792-1.23 0-2.82.537-2.82 1.912 0 1.274 1.485 1.832 2.63 1.832zm9.86-6.851V3.605h2.121V2.29h-2.12V.3h-1.421v1.99h-2.12v1.315h2.12v1.991h1.42z" fill="#fff"/></svg>