<svg width="76" height="80" fill="none" xmlns="http://www.w3.org/2000/svg"><g clip-path="url(#clip0)"><path d="M21.62 63.628c-.183.213-.395.51-.637.89-.243.38-.478.776-.706 1.187-.228.411-.443.807-.649 1.187-.204.382-.36.693-.466.936-.211.472-.417.945-.613 1.416a16.41 16.41 0 00-.523 1.439c-.121.456-.178.833-.171 1.131.007.296.095.491.261.582.167.091.41.065.728-.079.318-.145.727-.437 1.227-.879.485-.441.94-.928 1.365-1.46.423-.533.787-1.09 1.09-1.667.41-.198.652-.077.728.365-.349.64-.743 1.275-1.181 1.907-.44.632-.925 1.215-1.456 1.747-.818.867-1.557 1.442-2.217 1.724-.659.282-1.232.316-1.717.103-.515-.213-.86-.56-1.034-1.039a3.921 3.921 0 01-.238-1.473c.03-.943.197-1.876.5-2.797.302-.922.682-1.786 1.136-2.593.273-.487.573-.981.898-1.484a5.614 5.614 0 011.125-1.28 1.67 1.67 0 01.569-.285c.228-.07.466-.099.716-.092.25.008.489.05.715.127.231.075.414.204.55.387zm-.022-2.146a1.814 1.814 0 01-.864-.606c-.242-.296-.325-.659-.25-1.084.06-.366.163-.716.307-1.05.145-.335.407-.54.785-.617.212-.03.42-.03.625 0 .205.03.406.084.602.16.454.153.746.358.875.616.129.26.2.45.216.57.03.306.003.602-.079.891a1.73 1.73 0 01-.444.754c-.242.23-.523.37-.841.423-.319.053-.63.034-.932-.057z" fill="url(#paint0_linear)"/><path d="M34.034 68.31c.47-.199.713-.077.728.364a23.646 23.646 0 01-1.479 2.455 13.573 13.573 0 01-1.797 2.112 6.08 6.08 0 01-1 .765c-.38.236-.766.403-1.16.501a2.596 2.596 0 01-1.182.024c-.394-.084-.75-.316-1.07-.697a1.986 1.986 0 01-.499-1.05 3.935 3.935 0 01.012-1.234 7.27 7.27 0 01.318-1.256c.145-.41.285-.79.42-1.141a14.8 14.8 0 011.059-1.975c.401-.63.77-1.29 1.103-1.974-.44.35-.913.76-1.422 1.232a13.72 13.72 0 00-1.284 1.347 30.406 30.406 0 00-1.296 1.678c-.409.57-.81 1.153-1.205 1.747-.197.305-.387.606-.568.902a19.82 19.82 0 00-.523.903l-.34.513a.598.598 0 01-.569.286c-.183 0-.364-.053-.546-.16a2.167 2.167 0 01-.49-.389 1.911 1.911 0 01-.34-.491c-.083-.175-.11-.332-.079-.468.242-1.11.656-2.18 1.239-3.208a72.486 72.486 0 011.785-2.98c.257-.396.504-.807.74-1.234.234-.425.496-.837.784-1.234a1.05 1.05 0 01.534-.41c.22-.077.526 0 .92.229.183.107.322.21.421.308.098.1.148.221.148.365 0 .145-.057.324-.17.537a7.99 7.99 0 01-.512.8 11.01 11.01 0 00-.67 1.05c-.236.41-.436.785-.603 1.12.243-.275.535-.602.875-.982.34-.38.702-.762 1.08-1.142.378-.38.761-.73 1.148-1.05.387-.32.747-.563 1.08-.73.409-.213.89-.29 1.443-.23.554.062 1.05.306 1.49.731.122.122.174.225.16.308a1.473 1.473 0 01-.136.354c-.136.32-.295.64-.478.96-.183.334-.371.665-.568.992-.198.328-.387.666-.569 1.017-.258.472-.534.971-.83 1.496a14.348 14.348 0 00-.76 1.564c-.228.625-.293 1.081-.193 1.37.098.29.295.43.591.423.296-.007.664-.156 1.103-.446.44-.289.887-.709 1.341-1.256.319-.396.629-.814.932-1.256.301-.441.596-.928.884-1.46z" fill="url(#paint1_linear)"/><path d="M45.336 68.31c.469-.199.713-.077.727.364a18.69 18.69 0 01-1.854 2.923c-.705.914-1.443 1.66-2.217 2.237a1.695 1.695 0 01-.535.308c-.22.084-.451.144-.694.182a3.832 3.832 0 01-.716.046 1.742 1.742 0 01-.625-.127c-.394-.152-.694-.372-.898-.661a2.327 2.327 0 01-.398-.97 3.528 3.528 0 01-.011-1.096 5.27 5.27 0 01.261-1.062c.302-.867.69-1.697 1.16-2.49.47-.79.947-1.575 1.433-2.351a2.4 2.4 0 00-.33.25 41.605 41.605 0 00-1.512 1.404 48.196 48.196 0 00-1.91 1.965 68.039 68.039 0 00-2.227 2.535 32.793 32.793 0 00-2.138 2.843.913.913 0 01-.454-.114 1.29 1.29 0 01-.352-.286 1.703 1.703 0 01-.352-.65c-.045-.184-.003-.468.126-.857.128-.389.295-.811.5-1.267.204-.457.427-.917.67-1.383l.613-1.176c.485-.914.978-1.807 1.479-2.683.5-.876.992-1.755 1.478-2.638a94.183 94.183 0 011.33-2.294c.295-.495.582-.963.863-1.404a9.63 9.63 0 01.67-.96c.274-.334.576-.575.91-.719a2.951 2.951 0 011.888-.181c.288.069.53.148.728.239-.076.09-.262.305-.557.64-.295.334-.595.73-.899 1.186A104.692 104.692 0 0038.8 64.38a470.07 470.07 0 01-2.741 4.567c.228-.258.462-.513.706-.764.242-.251.485-.507.727-.765.485-.487.966-.978 1.444-1.473.477-.494.974-.962 1.49-1.404.136-.121.302-.258.5-.41.197-.153.397-.301.601-.446.205-.144.402-.27.592-.377.19-.107.337-.175.444-.206a2.053 2.053 0 011.353.206c.19.107.34.231.454.377.114.145.17.293.17.446 0 .03-.07.174-.215.434s-.333.587-.569.981l-.784 1.325c-.288.487-.568.967-.842 1.44-.273.472-.527.92-.76 1.346-.236.427-.414.769-.535 1.027-.212.427-.323.788-.33 1.084-.008.296.05.514.17.651.122.137.3.198.535.184.235-.015.497-.13.785-.342.62-.442 1.231-1.017 1.83-1.724a12.492 12.492 0 001.51-2.227z" fill="url(#paint2_linear)"/><path d="M56.842 68.31c.468-.199.712-.077.727.364a23.646 23.646 0 01-1.478 2.455c-.53.769-1.13 1.473-1.797 2.112-.288.275-.622.53-1 .765-.38.236-.766.403-1.16.501a2.596 2.596 0 01-1.183.024c-.394-.084-.75-.316-1.07-.697a1.985 1.985 0 01-.499-1.05 3.935 3.935 0 01.012-1.234c.069-.425.174-.845.319-1.256.144-.41.284-.79.42-1.141a14.86 14.86 0 011.058-1.975c.402-.63.77-1.29 1.103-1.974-.44.35-.913.76-1.422 1.232a13.72 13.72 0 00-1.284 1.347 30.406 30.406 0 00-1.296 1.678c-.409.57-.81 1.153-1.205 1.747-.197.305-.387.606-.568.902a19.82 19.82 0 00-.523.903l-.34.513a.598.598 0 01-.569.286c-.182 0-.364-.053-.546-.16a2.171 2.171 0 01-.49-.389 1.916 1.916 0 01-.34-.491c-.083-.175-.11-.332-.079-.468.243-1.11.656-2.18 1.24-3.208a72.486 72.486 0 011.784-2.98c.257-.396.504-.807.74-1.234.235-.425.496-.837.784-1.234a1.05 1.05 0 01.535-.41c.219-.077.526 0 .92.229.183.107.321.21.42.308.099.1.148.221.148.365 0 .145-.057.324-.17.537a7.99 7.99 0 01-.512.8 11.01 11.01 0 00-.67 1.05c-.236.41-.436.785-.602 1.12.242-.275.534-.602.875-.982.34-.38.701-.762 1.08-1.142.378-.38.76-.73 1.148-1.05a5.82 5.82 0 011.08-.73c.408-.213.889-.29 1.442-.23.554.062 1.05.306 1.49.731.122.122.175.225.16.308a1.473 1.473 0 01-.136.354c-.136.32-.295.64-.478.96-.182.334-.37.665-.568.992-.197.328-.387.666-.568 1.017-.259.472-.535.971-.83 1.496a14.18 14.18 0 00-.761 1.564c-.228.625-.292 1.081-.193 1.37.098.29.295.43.592.423.295-.007.663-.156 1.103-.446.44-.289.886-.709 1.34-1.256a17.041 17.041 0 001.816-2.717z" fill="url(#paint3_linear)"/><path d="M60.16 69.473a3.689 3.689 0 01-1.022-.046c-.273.852-.352 1.552-.238 2.1.114.55.371.93.773 1.142.401.213.92.251 1.557.115.637-.137 1.349-.457 2.137-.96a8.206 8.206 0 001.717-1.61c.508-.631.936-1.267 1.284-1.906.166-.06.321-.088.466-.08.143.008.23.157.261.445a12.24 12.24 0 01-1.376 2.055c-.568.7-1.193 1.347-1.875 1.941-1.092.914-2.168 1.522-3.229 1.827-1.06.303-1.97.212-2.729-.275a3.968 3.968 0 01-1.33-1.541 4 4 0 01-.421-1.975c.014-.64.132-1.282.352-1.93a9.31 9.31 0 012.148-3.494 6.644 6.644 0 011.57-1.198 7.662 7.662 0 011.944-.709c.735-.167 1.421-.167 2.058 0 .319.076.583.21.797.4.211.19.366.41.466.66.097.252.14.523.125.812a2.923 2.923 0 01-.182.867 4.106 4.106 0 01-1.24 1.736 6.74 6.74 0 01-1.83 1.096 6.631 6.631 0 01-2.182.528zm1.957-4.384a10.44 10.44 0 00-1.536 1.667 11.253 11.253 0 00-1.171 1.964c.228-.06.485-.144.773-.25a9.408 9.408 0 001.319-.605 5.59 5.59 0 001.16-.857c.302-.274.583-.594.841-.96.257-.365.371-.768.34-1.21 0-.243-.075-.38-.227-.41-.152-.031-.326-.008-.523.069a2.871 2.871 0 00-.569.296 5.25 5.25 0 00-.407.296z" fill="url(#paint4_linear)"/><path d="M72.735 64.017c.197-.076.44-.091.727-.046.44.091.796.32 1.07.685.273.366.461.754.568 1.165.105.442.143.89.114 1.347-.031.456-.11.914-.238 1.37a8.938 8.938 0 01-.49 1.325c-.197.427-.409.821-.637 1.187-.242.381-.516.761-.818 1.141-.304.38-.637.73-1 1.05-.364.32-.754.583-1.172.788a3.54 3.54 0 01-1.353.354c-.5.03-.955-.043-1.364-.217a3.094 3.094 0 01-1.07-.754 3.864 3.864 0 01-.727-1.132 4.485 4.485 0 01-.34-1.346 6.344 6.344 0 01.068-1.61c.09-.54.238-1.069.444-1.587a7.869 7.869 0 01.761-1.461 7.424 7.424 0 011.023-1.234c.378-.35.799-.647 1.262-.89a3.837 3.837 0 011.467-.434c.257-.031.534-.027.83.011.295.038.563.119.807.24l.068.048zm.91 2.146a1.59 1.59 0 00-.33-.628 3.383 3.383 0 00-.535-.468 2.565 2.565 0 00-.773.07 3.126 3.126 0 00-.706.273 3.695 3.695 0 00-1.069.88 6.857 6.857 0 00-.875 1.3 9 9 0 00-.614 1.495 6.06 6.06 0 00-.273 1.473c-.023.465.027.876.148 1.234s.34.613.659.764c.394.198.853.198 1.376 0 .523-.198 1.02-.585 1.49-1.165a7.62 7.62 0 001.364-2.466 6.36 6.36 0 00.262-1.37 4.1 4.1 0 00-.124-1.392z" fill="url(#paint5_linear)"/><path d="M59.674 37.038c.468-.987.725-1.986.63-3.047-.044-.483-.121-.96-.47-1.336a1.073 1.073 0 00-1.502-.058c-.412.382-.487.819-.146 1.33.636.959 1.322 1.902 1.488 3.111z" fill="url(#paint6_linear)"/><path d="M62.852 32.869c-.615-.12-1.017.204-1.28.72-.174.339-.26.709-.326 1.089-.177 1.024-.346 2.062-.818 2.995-1.26 2.488-3.433 3.866-5.963 4.723-2.27.768-4.569.69-6.86-.02.322.141.64.294.968.423a7.675 7.675 0 001.683.443c4.75.703 9.756-.64 12.414-5.435.642-1.156 1.153-2.375 1.131-3.744-.013-.638-.308-1.071-.95-1.194z" fill="url(#paint7_linear)"/><path d="M51.43 42.013l.01-.006c2.366-.109 4.575-.666 6.245-2.504a3.43 3.43 0 00.898-2.74c-.078-.712-.56-1.224-1.147-1.204-.662.024-.859.543-1 1.071-.072.267-.078.552-.125.826-.087.522-.15 1.05-.422 1.526-1.034 1.826-2.697 2.59-4.727 2.867l-1.473.164h1.742z" fill="url(#paint8_linear)"/><path d="M48.805 48.651c-.568-.29-1.14-.58-1.72-.848a42.446 42.446 0 00-2.56-1.068c-2.235-.964-4.497-1.856-6.904-2.316-1.279-.245-2.566-.345-3.999-.008 1.306.402 2.47.746 3.623 1.117 3.81 1.225 7.227 3.226 10.565 5.388 2.517 1.632 5.052 3.24 7.894 4.263 1.612.581 3.252 1.096 5.002.681 1.823-.433 2.956-1.647 3.79-3.376-.049.103-1.006.081-1.142.087a20.786 20.786 0 01-3.46-.123 24.701 24.701 0 01-4.39-.95 36.64 36.64 0 01-4.21-1.619c-.845-.38-1.665-.807-2.489-1.228z" fill="url(#paint9_linear)"/><path d="M69.706 44.37c-.051-1.716-.971-3.142-2.329-3.601-.939-.319-1.167-.15-1.13.839l.011.254c.12 3.852-2.12 6.535-5.9 7.077-2.416.346-4.798.077-7.153-.461-1.536-.352-3.053-.79-4.578-1.188-.004.01.004-.01 0 0-1.328-.335-2.56-.605-2.48-.555.17.104 5.29 2.072 5.389 2.11 1.352.568 2.7 1.15 4.089 1.614 3.107 1.04 6.281 1.246 9.452.293 3.117-.938 4.723-3.204 4.63-6.382z" fill="url(#paint10_linear)"/><path d="M63.421 14.788c2.634.127 6.808 5.152 6.665 7.897l-1.197-1.125-.048.085c.148.645.352 1.283.428 1.938.08.68-.245 1.3-.453 1.993l-.728-1.225-.73 1.978a5.928 5.928 0 01-.16-.006l-.308-1.21c-.114.686-.486 1.233-.976 1.637a6.915 6.915 0 01-1.736 1.058c-1.342.548-2.723 1.004-4.089 1.5-.831.302-1.667.593-2.49.914-.33.13-.636.325-1.016.418.191-.234.346-.516.58-.694.815-.62 1.623-1.263 2.5-1.785.663-.396 1.425-.623 2.144-.923 2.096-.874 3.243-2.53 3.487-4.712.27-2.409-.112-4.753-1.393-6.88-.158-.264-.3-.537-.48-.858zm4.367 7.772l.095-.138c-.492-.832-.875-1.734-1.622-2.416.246.782.545 1.539.913 2.26.082.16.404.199.614.294zm-1.787-4.84c-.099.317.09.445.259.594.269.24.54.479.781.744.291.319.551.665.824.998l.1-.087c-.453-.9-1.065-1.666-1.964-2.249zm.32 5.067c-.267.778-.157 1.137.345 1.199l-.345-1.199z" fill="url(#paint11_linear)"/><path d="M58.904 10.854c2.592-1.64 7.956-1.908 10.023-.404-.391 0-.853-.015-1.314.004-.582.023-1.03.316-1.324.805-.127.212-.24.23-.453.17-.63-.172-1.262-.347-1.903-.475-.577-.114-1.12.075-1.653.305 2.243.125 4.406.556 6.402 1.601.74.389 1.408.918 2.11 1.385-.01.045-.02.09-.033.135-.13.026-.26.076-.388.076-.435-.003-.823.112-1.145.417-.21.196-.39.19-.611-.028-1.216-1.21-2.779-1.749-4.362-2.242a1.106 1.106 0 00-.237-.051 1.82 1.82 0 00-.497.028c3.224 1.486 6.339 3.108 8.313 6.267-.53-.054-1.073-.229-1.565-.132-.853.167-1.22-.236-1.646-.883-1.039-1.579-2.509-2.695-4.21-3.48-.44-.204-.959-.242-1.418-.35-.882-1.626-2.43-2.408-4.089-3.148z" fill="url(#paint12_linear)"/><path d="M53.536 26.37c.12-1.13.2-2.217.363-3.29.105-.689.273-1.383.519-2.034.29-.772.584-1.564 1.211-2.154.04-.036.115-.033.213-.06-.436 1.693-.908 3.344-.53 5.063l.153.03c.035-.103.078-.203.106-.307.325-1.25.61-2.512.992-3.744.169-.547.53-1.036.872-1.52-.662 1.76-1.077 3.546-.89 5.441.624-1.785 1.223-3.58 2.088-5.275-.458 1.788-.017 3.45.637 5.11l.18-5.009c.248 1.168.755 2.186 1.678 2.972-.52-1.39-.91-2.805-.91-4.308.163.434.33.866.49 1.302.462 1.246 1.104 2.377 2.07 3.303.078.073.154.195.24.205.418.048.379.374.243.553-.333.439-.73.836-1.134 1.212-.079.073-.368.03-.475-.062-.364-.31-.69-.661-1.03-1.002-.131-.132-.254-.271-.477-.378v4.61c-.832-.357-1.796-2.237-2.345-4.606-.342.722-.257 1.447-.324 2.14-.068.705-.088 1.415-.129 2.122-.044.01-.088.02-.131.032l-.449-.81c-.466-.839-1.868-1.072-2.567-.405-.236.222-.403.518-.664.869z" fill="url(#paint13_linear)"/><path d="M44.154 14.08c.52-1.175 1.015-2.342 2.124-3.067.121-.08.282-.29.25-.37-.056-.138-.231-.262-.384-.321-.466-.176-.898-.025-1.271.597-.38.63-.607 1.353-.956 2.004-.29.54-.654 1.042-.996 1.55-.051.077-.167.11-.253.165-.04-.024-.077-.047-.117-.069.08-.211.137-.436.244-.63.424-.772.779-1.559.934-2.442.061-.352.321-.68.526-.995.423-.657.872-1.3 1.308-1.948.106-.157.223-.308.312-.475.204-.382.404-.76.922-.817.06.364.33.427.65.449.87.06 1.592-.305 2.299-.753.783-.494 1.563-1 2.383-1.424.387-.201.866-.222 1.32-.242-.587.283-1.215.504-1.748.867-.547.372-1 .883-1.464 1.377 4.393-1.765 8.444-1.54 11.988 1.904-.069-.042-.136-.09-.209-.126-.462-.217-.917-.45-1.39-.644-.834-.34-1.68-.619-2.594-.697a18.69 18.69 0 00-4.34.135c-1.6.235-3.058.826-4.456 1.582-1.297.701-2.403 1.655-3.374 2.774-.44.506-.937.96-1.416 1.432-.079.082-.194.124-.292.184z" fill="url(#paint14_linear)"/><path d="M51.067 12.775c1.166-.27 2.194-.712 2.521-1.86.92.022 1.75.042 2.668.066-.085.13-.133.239-.21.317-.472.472-.619 1.123-.262 1.66.145.219.494.307.761.433.1.049.23.035.371.13-.254.093-.517.166-.761.28-.662.315-1.32.637-1.966.98-.113.06-.166.231-.246.35.129.086.247.219.389.25.876.202 1.753.22 2.63-.02.287-.078.594-.085.942-.132-.168.693-.516 1.205-.944 1.654-.623.652-1.273 1.295-2.142 1.609-.984.355-1.987.487-2.984.026-.08-.036-.147-.1-.293-.2.835.143 1.56.167 2.287-.131.755-.308 1.19-.866 1.484-1.576l-.076-.12-1.757.987c.065-.358.15-.635.154-.915.002-.126-.153-.255-.238-.383-.105.092-.26.164-.305.279-.123.31-.25.635-.279.963-.034.366-.181.445-.514.429-1.02-.049-2.043-.07-3.064-.1a1.528 1.528 0 00-.283.01c-.431.068-.452-.007-.379-.415.144-.792.871-.738 1.358-1.033.41-.249.876-.437 1.227-.754.729-.66.698-1.242.245-2.2-.092-.19-.212-.37-.334-.584zm2.854.298c-.767.208-1.706 1.505-1.953 2.548l2.092-2.218-.139-.33z" fill="url(#paint15_linear)"/><path d="M61.744 7.695c-.797-.319-1.598-.592-2.35-.963-.259-.127-.456-.477-.576-.769-.26-.63-.14-1.3-.076-1.957.02-.214.048-.428.08-.705-.785.889-.796 1.961-.972 2.993-.588-.936-.551-1.968-.497-3.014-.73.83-.789 1.84-.796 2.873-.547-1.117-.338-2.3-.354-3.47-.672 1.06-.827 2.218-.678 3.486-.076-.109-.185-.206-.223-.327-.583-1.846-.307-3.627.434-5.367.06-.14.187-.252.36-.475.02.205.04.305.039.405-.01.604.18.874.745 1.11 1.202.502 2.406.492 3.614.034.085-.032.172-.056.358-.116-.234.415-.4.775-.623 1.096-.775 1.122-.897 2.295-.317 3.533.022.045.056.086.15.233.25-1.367.512-2.642 1.682-3.425-.457.724-.63 1.337-.664 2.584.448-.99 1.031-1.728 2.114-2.024-.621.647-.99 1.363-1.209 2.218 1.384-1.23 1.954-1.482 2.24-1.008-1.337.584-1.757 1.93-2.48 3.055z" fill="url(#paint16_linear)"/><path d="M44.943 17.543c-1.127-.552-1.714-1.545-2.067-2.802.276.04.52.107.762.104.202-.002.443-.028.6-.14.868-.619 1.616-1.358 2.318-2.174.617-.717 1.39-1.3 2.113-1.923.642-.552 1.288-1.106 2.136-1.325l1.85-.475.032.107c-.026.024-.051.065-.079.066-1.113.068-1.784.808-2.396 1.615-.308.408-.136.804.381.804.414 0 .865-.086 1.23-.271.532-.27 1.003-.662 1.555-1.04-.104.262-.168.509-.294.719-.152.25-.365.465-.537.704-.551.758-1.325.944-2.158.714-1.331-.367-2.415.04-3.287 1-.593.65-1.137 1.383-1.54 2.165-.326.63-.409 1.385-.62 2.152z" fill="url(#paint17_linear)"/><path d="M63.419 25.515c-.234-.099-.374-.141-.5-.212-.558-.312-.615-.523-.251-1.031.774-1.08 1.335-2.247 1.421-3.594.07-1.093-.15-2.148-.57-3.151-.212-.508-.45-1.021-.965-1.312-.206-.116-.425-.205-.66-.315.015-.022.04-.065.07-.103.653-.826.787-.811 1.463.022.628.773.99 1.66 1.24 2.611a8.717 8.717 0 01-.058 4.638c-.245.86-.786 1.635-1.19 2.447z" fill="url(#paint18_linear)"/><path d="M58.612 14.556c-1.128.36-2.124.428-3.091-.1.933.093 1.65-.362 2.353-.874.937-.684 1.95-.61 2.969-.232.193.072.337.27.486.483-.477-.2-.908-.078-1.307.117-.256.125-.498.32-.68.538-.188.225-.102.496.173.59.378.13.777.235 1.173.267.167.013.35-.186.526-.289-.124-.095-.24-.207-.375-.284-.19-.11-.395-.193-.629-.303a1.438 1.438 0 011.302-.054c.295.13.454.402.384.77-.149.776-.787 1.246-1.6.971-.85-.287-1.5-.13-2.12.461-.153.145-.37.223-.611.364.258-.41.514-.723.669-1.083.165-.375.23-.793.378-1.342z" fill="url(#paint19_linear)"/><path d="M52.804 9.38c2.098-1.272 5.031-1.527 7.307-.107-.114.051-.21.073-.279.13-.428.338-.844.693-1.28 1.022-.098.074-.3.14-.378.09-1.284-.822-2.732-1.004-4.202-1.101-.365-.024-.73-.022-1.168-.034z" fill="url(#paint20_linear)"/><path d="M45.391 17.75c-.28-1.322 1.51-3.89 3.077-4.526-.056.37-.123.722-.158 1.077-.063.633.571 1.125 1.18.937.21-.064.439-.075.646-.144.209-.069.403-.18.644-.231-.212.399-.529.72-.908.933-.361.2-.776.258-1.209.313-.902.116-1.852.232-2.533.992-.214.24-.486.43-.739.649z" fill="url(#paint21_linear)"/><path d="M63.185 21.23c-.368-.467-.688-.841-.972-1.243a17.216 17.216 0 01-.922-1.428c-.21-.37-.457-.771-.492-1.176-.022-.261.272-.59.495-.817.192-.195.45-.203.722.007 1.229.948 1.455 2.265 1.405 3.692-.005.16-.038.32-.073.477-.024.12-.074.23-.163.489z" fill="url(#paint22_linear)"/><path d="M60.727 27.149c-.274-1.243-.465-2.46-.12-3.776.803.833 1.548 1.605 2.287 2.369-.38.659-1.443 1.35-2.166 1.407z" fill="url(#paint23_linear)"/><path d="M45.032 5.218c.552.44.63 1.366.184 1.893-.528.623-1.202.983-1.968 1.2-.051.014-.104.03-.153.048-.678.245-1.033.654-1.01 1.162.026.544.52 1.128 1.106 1.304.115.035.232.068.422.123-.073.329-.144.658-.23 1.04-.735-.375-1.391-.765-1.722-1.441-.663-1.359.12-2.446 1.352-2.886.692-.248 1.366-.552 2.048-.829.364-.148.418-.442.321-.766-.087-.293-.225-.572-.34-.858l-.01.01z" fill="url(#paint24_linear)"/><path d="M51.677 23.13c.42.186.814.128 1.201-.068.56-.285.736-1.171.386-1.778-.047-.082-.108-.156-.15-.24-.34-.682-.62-.81-1.326-.328-1.442.987-3.38.27-4.017-1.37-.284-.73-.371-1.538-.536-2.314-.016-.075.029-.22.084-.243.33-.14.664-.308 1.046-.113-.284.858-.203 1.694.053 2.525.444 1.447 1.98 1.798 3.164 1.421.114-.037.217-.117.332-.134.413-.061.838-.328 1.19.203.446.678.705 1.378.243 2.108-.321.512-1.248.762-1.67.33z" fill="url(#paint25_linear)"/><path d="M59.776 12.723c-.447.02-.895.074-1.34.047-.347-.02-.585-.28-.68-.607-.104-.364-.146-.754.12-1.074.079-.095.298-.188.375-.144.221.124.504.284.576.493.183.536.446.964.95 1.285z" fill="url(#paint26_linear)"/><path d="M49.878 12.77c-.109.24-.244.473-.315.725-.04.15.025.327.044.493.135-.02.344.003.387-.07.07-.118.031-.301.043-.568.127.016.41-.028.508.088.126.148.164.433.129.641-.057.342-.294.565-.66.616-.411.059-.728-.122-1.01-.396-.028-.028-.06-.059-.072-.094-.17-.52.392-1.364.946-1.434z" fill="url(#paint27_linear)"/><path d="M57.845 13.02c-.428.019-.866.088-1.291.042-.526-.055-.742-.815-.387-1.264.099-.126.219-.245.353-.33.189-.12.36-.154.465.14.118.328.274.648.448.951.1.17.266.302.412.46z" fill="url(#paint28_linear)"/><path d="M57.92 28.391l.723-2.16c.044.005.089.011.133.018.197.332.385.67.594.994.132.204.078.336-.092.477-.257.212-.486.463-.756.657-.13.092-.328.088-.494.127a43.266 43.266 0 00-.108-.113z" fill="url(#paint29_linear)"/><path d="M57.102 11.037c-.574-.177-1.124-.347-1.673-.514.042-.45.422-.722.81-.574.2.078.388.185.588.264.55.218.567.262.275.824z" fill="url(#paint30_linear)"/><path d="M61.648 13.708c-.133-.173-.237-.389-.408-.51-.391-.278-.812-.518-1.23-.758-.254-.145-.419-.324-.26-.617.17-.311.389-.135.576-.009.659.442 1.113 1.052 1.47 1.741l-.148.153z" fill="url(#paint31_linear)"/><path d="M55.474 9.917l-.416.872-1.39-.62c.006-.044.01-.088.017-.133.581-.076 1.152-.258 1.79-.119z" fill="url(#paint32_linear)"/><path d="M47.146 17.915l-1.43.216-.06-.12 1.155-1.105c.13.39.227.68.335 1.01z" fill="url(#paint33_linear)"/><path d="M45.04 5.21c-.48-.34-.955-.639-1.589-.338-.285.135-.513.3-.492.607.01.16.184.342.33.454.234.18.482.114.694-.081.036-.034.074-.063.181-.153-.393.555-.882.571-1.248.118-.173-.216-.1-.655.145-.87.542-.477 1.493-.402 1.965.158.019.024.004.077.006.115 0-.002.009-.01.009-.01z" fill="url(#paint34_linear)"/><path d="M51.948 22.563c.087-.216.238-.408.194-.53-.041-.119-.339-.273-.424-.226a1.025 1.025 0 00-.434.496c-.055.145.053.354.09.547-.405-.484-.277-1.016.297-1.16.144-.037.361.062.487.167.102.087.188.298.153.417-.033.116-.226.188-.363.289z" fill="url(#paint35_linear)"/><path d="M39.624 24.12a22.204 22.204 0 012.772-.23c.932-.017 1.869.043 2.8.125.914.08 1.824.23 2.736.35-4.693-1.189-9.28-.99-13.725 1.057.89-.25 1.776-.527 2.675-.744.907-.22 1.82-.425 2.742-.557z" fill="url(#paint36_linear)"/><path d="M45.333 25.485c-.136.044-.273.066-.387.13-.335.184-.336.588-.008.778a.74.74 0 00.773.003c.19-.105.256-.25.224-.456-.307.063-.573.01-.602-.455z" fill="url(#paint37_linear)"/><path d="M45.118 23.9a13.02 13.02 0 00-.653-.134 14.66 14.66 0 00-2.088-.205c-.303-.01-.606.007-.91.02-.482.022-.961.075-1.439.147a15.31 15.31 0 00-1.782.385c-.375-.158-.983-.501-1.594-1.207-1.1-1.272-2.217.3-2.562-1.043 0 0-.123.942.644 1.07.297.048.329.24-.063.281-.378.04-.7-.16-.7-.16s.253.574 1.11.417c.478-.088 1.003-.015.996.329-.012.456-.946.184-2.08.055-1.133-.129-1.806.752-2.468.102 0 0-.19.862.963.793.358-.022.12.609-1.987.514 0 0 .609 1.041 1.819 1.19l-.046.021a2.429 2.429 0 00-1.309.317s.519.082.332.572c-.193.505-.793.884-1.429 1.327-.838.585-1.176 1.75-.789 2.54 0 0-.003-.73.206-.688.12.026.08.426.08.426l.535 1.571c.005.348.034.694.092 1.042.15.906.48 1.744.943 2.532.01.113.089.19.146.279.011.019.033.032.054.014.009-.006.012-.03.006-.04-.059-.096-.056-.224-.145-.306-.012-.037-.022-.075-.035-.111-.283-.799-.476-1.616-.524-2.467a6.497 6.497 0 01.062-1.261c.135-.946.5-1.8 1.039-2.584.183-.265.381-.515.593-.754h-.001c-.002.003 4.246-5.296 12.984-4.985z" fill="url(#paint38_linear)"/><path d="M68.209 30.802a7.462 7.462 0 00-.08-.596c-.106-.596-.299-1.2-.714-1.639-.415-.438-1.092-.669-1.64-.416-.422.194-.691.63-.8 1.084-.11.453-.082.926-.056 1.39.11 1.964.17 3.99-.511 5.834-.6 1.627-1.746 3.008-3.083 4.107-2.238 1.838-5.07 2.9-7.95 3.081-2.459.154-4.937-.227-6.814-1.942-.837-.765-2.87-2.619-2.43-3.922.056-.163.169-.297.286-.422.911-.98 2.25-1.313 3.203-2.227.044-.041.095-.075.16-.125-.439 0-.83-.023-1.217.006-.694.051-1.38.186-1.993.527a5.635 5.635 0 01-2.368.702c-.891.063-1.765-.022-2.599-.363-.564-.23-1.047-.564-1.334-1.129-.117-.228-.115-.23-.378-.176-.793.163-1.46.567-2.038 1.12-.589.562-1.014 1.214-1.033 2.073-.016-.01-.023-.014-.025-.018a.29.29 0 01-.014-.048c-.155-.666-.015-1.277.364-1.836.357-.528.847-.914 1.386-1.24 1.18-.712 2.472-1.133 3.807-1.422.72-.157 1.455-.242 2.181-.37 1.02-.179 1.998-.508 2.966-.871a.684.684 0 01.267-.058c.454.025.91.05 1.363.099.514.054 1.026.135 1.559.206a5.07 5.07 0 00-1.151-1.14c.968-.5 1.853-1.073 2.64-1.792.826-.757 1.503-1.623 1.86-2.7.103-.307.17-.639.186-.963.018-.366-.297-.609-.65-.528-.196.044-.412.12-.557.25-.254.23-.461.512-.683.775-.168.198-.317.414-.5.596-.111.108-.272.167-.446.268.058-.381.087-.704.16-1.02.063-.274.153-.545.268-.8a.553.553 0 01.561-.335c.08.005.16.03.258.049-.255-.219-.501-.269-.761-.109a1.889 1.889 0 00-.507.437c-.241.31-.447.647-.662.976-.231.352-.441.72-.691 1.059-.21.283-.46.534-.693.8.233-.386.478-.756.705-1.137.172-.292.227-.617.19-.955-.05-.488-.407-.727-.855-.54-.18.073-.34.214-.484.35-.159.15-.289.332-.438.493-.3.324-.673.48-1.112.478-.456-.002-.705-.183-.859-.613-.042-.12-.08-.242-.134-.356-.082-.175-.215-.25-.396-.193-.184.058-.384.122-.53.241-.323.26-.618.555-.92.84-.07.064-.125.142-.213.241.017-.275.03-.51.043-.745a.238.238 0 00-.09.1c-.386.707-.496 1.46-.388 2.253.18 1.32 1.194 2.422 2.488 2.695.917.192 1.801.047 2.669-.262.028-.01.054-.023.082-.03.025-.007.052-.009.079-.012-1.02.518-2.082.837-3.233.687-1.31-.17-2.272-.835-2.777-2.085-.388-.958-.34-1.94-.085-2.919.088-.338.207-.668.314-1-1.077 1.27-1.413 2.691-.86 4.296-.867-.767-1.055-1.838-1.302-2.882-.405 1.704.32 2.986 1.528 4.09-.254-.077-.498-.166-.748-.22a5.644 5.644 0 00-.77-.112c-1.05-.083-2.073.08-3.074.386-1.373.42-2.637 1.049-3.69 2.05-.248.237-.464.508-.707.776a2.67 2.67 0 01.378-1.112c.198-.334.407-.662.646-.966a7.85 7.85 0 01.8-.865c.281-.266.584-.512.898-.735.312-.223.653-.407 1.025-.633-1.732.523-3.183 1.395-4.246 2.826-1.014 1.364-1.209 2.824-.367 4.361.03.053.013.156-.02.213-.481.817-.585 1.686-.347 2.597.111.427.298.821.576 1.209.096-.988.59-1.638 1.456-1.959-.198-.216-.404-.42-.588-.641-.186-.223-.351-.465-.525-.698l.037-.031c.18.167.36.333.542.499.453.415.904.83 1.45 1.12 1.05.556 2.184.757 3.356.787.927.023 1.84-.125 2.755-.25.311-.042.624-.077.937-.104 1.215-.105 1.916 1.023 2.677 1.749.902.86 1.914 1.6 3 2.205 6.19 3.449 14.338 2.04 18.823-3.493a14.9 14.9 0 002.919-5.871c.254-1.106.391-2.24.288-3.355zm-21.833-1.02c-1.6-.101-2.637-1.251-2.525-2.905.02-.281.08-.56.123-.84.003-.02.02-.04.042-.09.02.273.012.521.062.756.083.393.159.8.318 1.165.47 1.065 1.438 1.458 2.475 1.342 1.175-.132 2.139-.714 3.026-1.458.03-.025.058-.053.089-.08a3.434 3.434 0 01-.967 1.223c-.77.626-1.648.952-2.643.887z" fill="url(#paint39_linear)"/><path d="M50.194 53.841c-3.945-2.448-7.831-5.002-12.156-6.763-3.452-1.405-6.988-2.34-10.772-1.993-2.963.271-5.98 1.327-8.191 3.383-1.804 1.678-2.763 3.986-3.89 6.127-1.26 2.389-2.627 4.724-3.935 7.086-1.347 2.431-2.55 5.098-4.147 7.38-.121.167-.238.326-.352.48-.114.152-.231.312-.352.479a1.202 1.202 0 01-.295-.115 7.1 7.1 0 00-2.309-.41c-.827-.015-1.566.129-2.217.434-.623.289-1.06.7-1.32 1.234-.258.532-.322 1.057-.192 1.575.128.518.454.963.977 1.337.523.372 1.253.537 2.194.491a5.916 5.916 0 002.059-.549 8.798 8.798 0 001.785-1.119 44.625 44.625 0 011.638 1.69c.53.578 1.069 1.156 1.614 1.736.409.441.841.86 1.296 1.255.454.397.932.757 1.433 1.085.5.327 1.027.605 1.58.833a6.74 6.74 0 001.762.456c1.274.153 2.32-.054 3.138-.616.818-.563 1.31-1.44 1.479-2.626a6.188 6.188 0 01-2.694.399 7.554 7.554 0 01-2.582-.651 9.833 9.833 0 01-2.149-1.222 31.217 31.217 0 01-1.944-1.588c-.485-.41-.963-.818-1.433-1.222-.47-.403-.97-.78-1.5-1.13a24.77 24.77 0 001.046-1.268c.333-.435.651-.864.955-1.29.232-.339 2.992-5.353 5.598-10.098 1.85-3.365 4.754-6.84 8.032-8.859 6.743-4.156 13.968.92 19.903 4.262 1.9 1.07 3.866 1.994 6.03 2.393 1.337.248 2.668.302 3.96-.26-1.387-.794-2.742-1.524-4.049-2.336zM4.02 72.2a5.281 5.281 0 01-1.262.513c-.425.107-.765.107-1.022 0-.26-.105-.426-.255-.5-.444-.076-.191-.053-.407.069-.652.12-.243.34-.449.658-.616a2.325 2.325 0 011.558-.193 5.564 5.564 0 011.602.604 6.655 6.655 0 01-1.103.788z" fill="url(#paint40_linear)"/></g><defs><linearGradient id="paint0_linear" x1="38.199" y1="-5.525" x2="17.879" y2="74.828" gradientUnits="userSpaceOnUse"><stop offset=".076" stop-color="#F6D46B"/><stop offset=".12" stop-color="#BF8033"/><stop offset=".218" stop-color="#9E6031"/><stop offset=".309" stop-color="#C88B30"/><stop offset=".527" stop-color="#F2DA75"/><stop offset=".691" stop-color="#27AAE1"/><stop offset=".814" stop-color="#8BCBF0"/><stop offset=".885" stop-color="#00AEEF"/><stop offset="1" stop-color="#2B3990"/></linearGradient><linearGradient id="paint1_linear" x1="46.337" y1="-3.467" x2="26.017" y2="76.886" gradientUnits="userSpaceOnUse"><stop offset=".076" stop-color="#F6D46B"/><stop offset=".12" stop-color="#BF8033"/><stop offset=".218" stop-color="#9E6031"/><stop offset=".309" stop-color="#C88B30"/><stop offset=".527" stop-color="#F2DA75"/><stop offset=".691" stop-color="#27AAE1"/><stop offset=".814" stop-color="#8BCBF0"/><stop offset=".885" stop-color="#00AEEF"/><stop offset="1" stop-color="#2B3990"/></linearGradient><linearGradient id="paint2_linear" x1="56.863" y1="-.805" x2="36.543" y2="79.548" gradientUnits="userSpaceOnUse"><stop offset=".076" stop-color="#F6D46B"/><stop offset=".12" stop-color="#BF8033"/><stop offset=".218" stop-color="#9E6031"/><stop offset=".309" stop-color="#C88B30"/><stop offset=".527" stop-color="#F2DA75"/><stop offset=".691" stop-color="#27AAE1"/><stop offset=".814" stop-color="#8BCBF0"/><stop offset=".885" stop-color="#00AEEF"/><stop offset="1" stop-color="#2B3990"/></linearGradient><linearGradient id="paint3_linear" x1="67.783" y1="1.956" x2="47.463" y2="82.309" gradientUnits="userSpaceOnUse"><stop offset=".076" stop-color="#F6D46B"/><stop offset=".12" stop-color="#BF8033"/><stop offset=".218" stop-color="#9E6031"/><stop offset=".309" stop-color="#C88B30"/><stop offset=".527" stop-color="#F2DA75"/><stop offset=".691" stop-color="#27AAE1"/><stop offset=".814" stop-color="#8BCBF0"/><stop offset=".885" stop-color="#00AEEF"/><stop offset="1" stop-color="#2B3990"/></linearGradient><linearGradient id="paint4_linear" x1="77.883" y1="4.511" x2="57.564" y2="84.864" gradientUnits="userSpaceOnUse"><stop offset=".076" stop-color="#F6D46B"/><stop offset=".12" stop-color="#BF8033"/><stop offset=".218" stop-color="#9E6031"/><stop offset=".309" stop-color="#C88B30"/><stop offset=".527" stop-color="#F2DA75"/><stop offset=".691" stop-color="#27AAE1"/><stop offset=".814" stop-color="#8BCBF0"/><stop offset=".885" stop-color="#00AEEF"/><stop offset="1" stop-color="#2B3990"/></linearGradient><linearGradient id="paint5_linear" x1="86.144" y1="6.6" x2="65.824" y2="86.952" gradientUnits="userSpaceOnUse"><stop offset=".076" stop-color="#F6D46B"/><stop offset=".12" stop-color="#BF8033"/><stop offset=".218" stop-color="#9E6031"/><stop offset=".309" stop-color="#C88B30"/><stop offset=".527" stop-color="#F2DA75"/><stop offset=".691" stop-color="#27AAE1"/><stop offset=".814" stop-color="#8BCBF0"/><stop offset=".885" stop-color="#00AEEF"/><stop offset="1" stop-color="#2B3990"/></linearGradient><linearGradient id="paint6_linear" x1="67.25" y1="1.822" x2="46.931" y2="82.175" gradientUnits="userSpaceOnUse"><stop offset=".076" stop-color="#F6D46B"/><stop offset=".12" stop-color="#BF8033"/><stop offset=".218" stop-color="#9E6031"/><stop offset=".309" stop-color="#C88B30"/><stop offset=".527" stop-color="#F2DA75"/><stop offset=".691" stop-color="#27AAE1"/><stop offset=".814" stop-color="#8BCBF0"/><stop offset=".885" stop-color="#00AEEF"/><stop offset="1" stop-color="#2B3990"/></linearGradient><linearGradient id="paint7_linear" x1="65.063" y1="1.269" x2="44.743" y2="81.621" gradientUnits="userSpaceOnUse"><stop offset=".076" stop-color="#F6D46B"/><stop offset=".12" stop-color="#BF8033"/><stop offset=".218" stop-color="#9E6031"/><stop offset=".309" stop-color="#C88B30"/><stop offset=".527" stop-color="#F2DA75"/><stop offset=".691" stop-color="#27AAE1"/><stop offset=".814" stop-color="#8BCBF0"/><stop offset=".885" stop-color="#00AEEF"/><stop offset="1" stop-color="#2B3990"/></linearGradient><linearGradient id="paint8_linear" x1="63.886" y1=".971" x2="43.566" y2="81.324" gradientUnits="userSpaceOnUse"><stop offset=".076" stop-color="#F6D46B"/><stop offset=".12" stop-color="#BF8033"/><stop offset=".218" stop-color="#9E6031"/><stop offset=".309" stop-color="#C88B30"/><stop offset=".527" stop-color="#F2DA75"/><stop offset=".691" stop-color="#27AAE1"/><stop offset=".814" stop-color="#8BCBF0"/><stop offset=".885" stop-color="#00AEEF"/><stop offset="1" stop-color="#2B3990"/></linearGradient><linearGradient id="paint9_linear" x1="61.139" y1=".276" x2="40.819" y2="80.629" gradientUnits="userSpaceOnUse"><stop offset=".076" stop-color="#F6D46B"/><stop offset=".12" stop-color="#BF8033"/><stop offset=".218" stop-color="#9E6031"/><stop offset=".309" stop-color="#C88B30"/><stop offset=".527" stop-color="#F2DA75"/><stop offset=".691" stop-color="#27AAE1"/><stop offset=".814" stop-color="#8BCBF0"/><stop offset=".885" stop-color="#00AEEF"/><stop offset="1" stop-color="#2B3990"/></linearGradient><linearGradient id="paint10_linear" x1="68.939" y1="2.249" x2="48.619" y2="82.602" gradientUnits="userSpaceOnUse"><stop offset=".076" stop-color="#F6D46B"/><stop offset=".12" stop-color="#BF8033"/><stop offset=".218" stop-color="#9E6031"/><stop offset=".309" stop-color="#C88B30"/><stop offset=".527" stop-color="#F2DA75"/><stop offset=".691" stop-color="#27AAE1"/><stop offset=".814" stop-color="#8BCBF0"/><stop offset=".885" stop-color="#00AEEF"/><stop offset="1" stop-color="#2B3990"/></linearGradient><linearGradient id="paint11_linear" x1="67.72" y1="5.358" x2="50.877" y2="86.519" gradientUnits="userSpaceOnUse"><stop offset=".076" stop-color="#F6D46B"/><stop offset=".12" stop-color="#BF8033"/><stop offset=".218" stop-color="#9E6031"/><stop offset=".309" stop-color="#C88B30"/><stop offset=".527" stop-color="#F2DA75"/><stop offset=".691" stop-color="#27AAE1"/><stop offset=".814" stop-color="#8BCBF0"/><stop offset=".885" stop-color="#00AEEF"/><stop offset="1" stop-color="#2B3990"/></linearGradient><linearGradient id="paint12_linear" x1="67.34" y1="5.279" x2="50.498" y2="86.441" gradientUnits="userSpaceOnUse"><stop offset=".076" stop-color="#F6D46B"/><stop offset=".12" stop-color="#BF8033"/><stop offset=".218" stop-color="#9E6031"/><stop offset=".309" stop-color="#C88B30"/><stop offset=".527" stop-color="#F2DA75"/><stop offset=".691" stop-color="#27AAE1"/><stop offset=".814" stop-color="#8BCBF0"/><stop offset=".885" stop-color="#00AEEF"/><stop offset="1" stop-color="#2B3990"/></linearGradient><linearGradient id="paint13_linear" x1="62.425" y1="4.259" x2="45.582" y2="85.421" gradientUnits="userSpaceOnUse"><stop offset=".076" stop-color="#F6D46B"/><stop offset=".12" stop-color="#BF8033"/><stop offset=".218" stop-color="#9E6031"/><stop offset=".309" stop-color="#C88B30"/><stop offset=".527" stop-color="#F2DA75"/><stop offset=".691" stop-color="#27AAE1"/><stop offset=".814" stop-color="#8BCBF0"/><stop offset=".885" stop-color="#00AEEF"/><stop offset="1" stop-color="#2B3990"/></linearGradient><linearGradient id="paint14_linear" x1="54.33" y1="2.579" x2="37.487" y2="83.74" gradientUnits="userSpaceOnUse"><stop offset=".076" stop-color="#F6D46B"/><stop offset=".12" stop-color="#BF8033"/><stop offset=".218" stop-color="#9E6031"/><stop offset=".309" stop-color="#C88B30"/><stop offset=".527" stop-color="#F2DA75"/><stop offset=".691" stop-color="#27AAE1"/><stop offset=".814" stop-color="#8BCBF0"/><stop offset=".885" stop-color="#00AEEF"/><stop offset="1" stop-color="#2B3990"/></linearGradient><linearGradient id="paint15_linear" x1="55.989" y1="2.924" x2="39.146" y2="84.085" gradientUnits="userSpaceOnUse"><stop offset=".076" stop-color="#F6D46B"/><stop offset=".12" stop-color="#BF8033"/><stop offset=".218" stop-color="#9E6031"/><stop offset=".309" stop-color="#C88B30"/><stop offset=".527" stop-color="#F2DA75"/><stop offset=".691" stop-color="#27AAE1"/><stop offset=".814" stop-color="#8BCBF0"/><stop offset=".885" stop-color="#00AEEF"/><stop offset="1" stop-color="#2B3990"/></linearGradient><linearGradient id="paint16_linear" x1="59.644" y1="3.682" x2="42.802" y2="84.843" gradientUnits="userSpaceOnUse"><stop offset=".076" stop-color="#F6D46B"/><stop offset=".12" stop-color="#BF8033"/><stop offset=".218" stop-color="#9E6031"/><stop offset=".309" stop-color="#C88B30"/><stop offset=".527" stop-color="#F2DA75"/><stop offset=".691" stop-color="#27AAE1"/><stop offset=".814" stop-color="#8BCBF0"/><stop offset=".885" stop-color="#00AEEF"/><stop offset="1" stop-color="#2B3990"/></linearGradient><linearGradient id="paint17_linear" x1="50.324" y1="1.748" x2="33.481" y2="82.909" gradientUnits="userSpaceOnUse"><stop offset=".076" stop-color="#F6D46B"/><stop offset=".12" stop-color="#BF8033"/><stop offset=".218" stop-color="#9E6031"/><stop offset=".309" stop-color="#C88B30"/><stop offset=".527" stop-color="#F2DA75"/><stop offset=".691" stop-color="#27AAE1"/><stop offset=".814" stop-color="#8BCBF0"/><stop offset=".885" stop-color="#00AEEF"/><stop offset="1" stop-color="#2B3990"/></linearGradient><linearGradient id="paint18_linear" x1="66.235" y1="5.05" x2="49.392" y2="86.211" gradientUnits="userSpaceOnUse"><stop offset=".076" stop-color="#F6D46B"/><stop offset=".12" stop-color="#BF8033"/><stop offset=".218" stop-color="#9E6031"/><stop offset=".309" stop-color="#C88B30"/><stop offset=".527" stop-color="#F2DA75"/><stop offset=".691" stop-color="#27AAE1"/><stop offset=".814" stop-color="#8BCBF0"/><stop offset=".885" stop-color="#00AEEF"/><stop offset="1" stop-color="#2B3990"/></linearGradient><linearGradient id="paint19_linear" x1="60.947" y1="3.952" x2="44.104" y2="85.114" gradientUnits="userSpaceOnUse"><stop offset=".076" stop-color="#F6D46B"/><stop offset=".12" stop-color="#BF8033"/><stop offset=".218" stop-color="#9E6031"/><stop offset=".309" stop-color="#C88B30"/><stop offset=".527" stop-color="#F2DA75"/><stop offset=".691" stop-color="#27AAE1"/><stop offset=".814" stop-color="#8BCBF0"/><stop offset=".885" stop-color="#00AEEF"/><stop offset="1" stop-color="#2B3990"/></linearGradient><linearGradient id="paint20_linear" x1="57.702" y1="3.279" x2="40.86" y2="84.44" gradientUnits="userSpaceOnUse"><stop offset=".076" stop-color="#F6D46B"/><stop offset=".12" stop-color="#BF8033"/><stop offset=".218" stop-color="#9E6031"/><stop offset=".309" stop-color="#C88B30"/><stop offset=".527" stop-color="#F2DA75"/><stop offset=".691" stop-color="#27AAE1"/><stop offset=".814" stop-color="#8BCBF0"/><stop offset=".885" stop-color="#00AEEF"/><stop offset="1" stop-color="#2B3990"/></linearGradient><linearGradient id="paint21_linear" x1="50.988" y1="1.886" x2="34.145" y2="83.047" gradientUnits="userSpaceOnUse"><stop offset=".076" stop-color="#F6D46B"/><stop offset=".12" stop-color="#BF8033"/><stop offset=".218" stop-color="#9E6031"/><stop offset=".309" stop-color="#C88B30"/><stop offset=".527" stop-color="#F2DA75"/><stop offset=".691" stop-color="#27AAE1"/><stop offset=".814" stop-color="#8BCBF0"/><stop offset=".885" stop-color="#00AEEF"/><stop offset="1" stop-color="#2B3990"/></linearGradient><linearGradient id="paint22_linear" x1="65.005" y1="4.795" x2="48.163" y2="85.956" gradientUnits="userSpaceOnUse"><stop offset=".076" stop-color="#F6D46B"/><stop offset=".12" stop-color="#BF8033"/><stop offset=".218" stop-color="#9E6031"/><stop offset=".309" stop-color="#C88B30"/><stop offset=".527" stop-color="#F2DA75"/><stop offset=".691" stop-color="#27AAE1"/><stop offset=".814" stop-color="#8BCBF0"/><stop offset=".885" stop-color="#00AEEF"/><stop offset="1" stop-color="#2B3990"/></linearGradient><linearGradient id="paint23_linear" x1="65.78" y1="4.956" x2="48.938" y2="86.117" gradientUnits="userSpaceOnUse"><stop offset=".076" stop-color="#F6D46B"/><stop offset=".12" stop-color="#BF8033"/><stop offset=".218" stop-color="#9E6031"/><stop offset=".309" stop-color="#C88B30"/><stop offset=".527" stop-color="#F2DA75"/><stop offset=".691" stop-color="#27AAE1"/><stop offset=".814" stop-color="#8BCBF0"/><stop offset=".885" stop-color="#00AEEF"/><stop offset="1" stop-color="#2B3990"/></linearGradient><linearGradient id="paint24_linear" x1="44.961" y1=".635" x2="28.118" y2="81.796" gradientUnits="userSpaceOnUse"><stop offset=".076" stop-color="#F6D46B"/><stop offset=".12" stop-color="#BF8033"/><stop offset=".218" stop-color="#9E6031"/><stop offset=".309" stop-color="#C88B30"/><stop offset=".527" stop-color="#F2DA75"/><stop offset=".691" stop-color="#27AAE1"/><stop offset=".814" stop-color="#8BCBF0"/><stop offset=".885" stop-color="#00AEEF"/><stop offset="1" stop-color="#2B3990"/></linearGradient><linearGradient id="paint25_linear" x1="53.924" y1="2.495" x2="37.081" y2="83.656" gradientUnits="userSpaceOnUse"><stop offset=".076" stop-color="#F6D46B"/><stop offset=".12" stop-color="#BF8033"/><stop offset=".218" stop-color="#9E6031"/><stop offset=".309" stop-color="#C88B30"/><stop offset=".527" stop-color="#F2DA75"/><stop offset=".691" stop-color="#27AAE1"/><stop offset=".814" stop-color="#8BCBF0"/><stop offset=".885" stop-color="#00AEEF"/><stop offset="1" stop-color="#2B3990"/></linearGradient><linearGradient id="paint26_linear" x1="60.435" y1="3.846" x2="43.593" y2="85.008" gradientUnits="userSpaceOnUse"><stop offset=".076" stop-color="#F6D46B"/><stop offset=".12" stop-color="#BF8033"/><stop offset=".218" stop-color="#9E6031"/><stop offset=".309" stop-color="#C88B30"/><stop offset=".527" stop-color="#F2DA75"/><stop offset=".691" stop-color="#27AAE1"/><stop offset=".814" stop-color="#8BCBF0"/><stop offset=".885" stop-color="#00AEEF"/><stop offset="1" stop-color="#2B3990"/></linearGradient><linearGradient id="paint27_linear" x1="52.227" y1="2.143" x2="35.384" y2="83.304" gradientUnits="userSpaceOnUse"><stop offset=".076" stop-color="#F6D46B"/><stop offset=".12" stop-color="#BF8033"/><stop offset=".218" stop-color="#9E6031"/><stop offset=".309" stop-color="#C88B30"/><stop offset=".527" stop-color="#F2DA75"/><stop offset=".691" stop-color="#27AAE1"/><stop offset=".814" stop-color="#8BCBF0"/><stop offset=".885" stop-color="#00AEEF"/><stop offset="1" stop-color="#2B3990"/></linearGradient><linearGradient id="paint28_linear" x1="58.796" y1="3.506" x2="41.954" y2="84.668" gradientUnits="userSpaceOnUse"><stop offset=".076" stop-color="#F6D46B"/><stop offset=".12" stop-color="#BF8033"/><stop offset=".218" stop-color="#9E6031"/><stop offset=".309" stop-color="#C88B30"/><stop offset=".527" stop-color="#F2DA75"/><stop offset=".691" stop-color="#27AAE1"/><stop offset=".814" stop-color="#8BCBF0"/><stop offset=".885" stop-color="#00AEEF"/><stop offset="1" stop-color="#2B3990"/></linearGradient><linearGradient id="paint29_linear" x1="63.509" y1="4.484" x2="46.667" y2="85.646" gradientUnits="userSpaceOnUse"><stop offset=".076" stop-color="#F6D46B"/><stop offset=".12" stop-color="#BF8033"/><stop offset=".218" stop-color="#9E6031"/><stop offset=".309" stop-color="#C88B30"/><stop offset=".527" stop-color="#F2DA75"/><stop offset=".691" stop-color="#27AAE1"/><stop offset=".814" stop-color="#8BCBF0"/><stop offset=".885" stop-color="#00AEEF"/><stop offset="1" stop-color="#2B3990"/></linearGradient><linearGradient id="paint30_linear" x1="57.849" y1="3.31" x2="41.006" y2="84.471" gradientUnits="userSpaceOnUse"><stop offset=".076" stop-color="#F6D46B"/><stop offset=".12" stop-color="#BF8033"/><stop offset=".218" stop-color="#9E6031"/><stop offset=".309" stop-color="#C88B30"/><stop offset=".527" stop-color="#F2DA75"/><stop offset=".691" stop-color="#27AAE1"/><stop offset=".814" stop-color="#8BCBF0"/><stop offset=".885" stop-color="#00AEEF"/><stop offset="1" stop-color="#2B3990"/></linearGradient><linearGradient id="paint31_linear" x1="62.493" y1="4.273" x2="45.65" y2="85.435" gradientUnits="userSpaceOnUse"><stop offset=".076" stop-color="#F6D46B"/><stop offset=".12" stop-color="#BF8033"/><stop offset=".218" stop-color="#9E6031"/><stop offset=".309" stop-color="#C88B30"/><stop offset=".527" stop-color="#F2DA75"/><stop offset=".691" stop-color="#27AAE1"/><stop offset=".814" stop-color="#8BCBF0"/><stop offset=".885" stop-color="#00AEEF"/><stop offset="1" stop-color="#2B3990"/></linearGradient><linearGradient id="paint32_linear" x1="56.031" y1="2.932" x2="39.188" y2="84.094" gradientUnits="userSpaceOnUse"><stop offset=".076" stop-color="#F6D46B"/><stop offset=".12" stop-color="#BF8033"/><stop offset=".218" stop-color="#9E6031"/><stop offset=".309" stop-color="#C88B30"/><stop offset=".527" stop-color="#F2DA75"/><stop offset=".691" stop-color="#27AAE1"/><stop offset=".814" stop-color="#8BCBF0"/><stop offset=".885" stop-color="#00AEEF"/><stop offset="1" stop-color="#2B3990"/></linearGradient><linearGradient id="paint33_linear" x1="49.763" y1="1.632" x2="32.92" y2="82.793" gradientUnits="userSpaceOnUse"><stop offset=".076" stop-color="#F6D46B"/><stop offset=".12" stop-color="#BF8033"/><stop offset=".218" stop-color="#9E6031"/><stop offset=".309" stop-color="#C88B30"/><stop offset=".527" stop-color="#F2DA75"/><stop offset=".691" stop-color="#27AAE1"/><stop offset=".814" stop-color="#8BCBF0"/><stop offset=".885" stop-color="#00AEEF"/><stop offset="1" stop-color="#2B3990"/></linearGradient><linearGradient id="paint34_linear" x1="44.899" y1=".622" x2="28.056" y2="81.784" gradientUnits="userSpaceOnUse"><stop offset=".076" stop-color="#F6D46B"/><stop offset=".12" stop-color="#BF8033"/><stop offset=".218" stop-color="#9E6031"/><stop offset=".309" stop-color="#C88B30"/><stop offset=".527" stop-color="#F2DA75"/><stop offset=".691" stop-color="#27AAE1"/><stop offset=".814" stop-color="#8BCBF0"/><stop offset=".885" stop-color="#00AEEF"/><stop offset="1" stop-color="#2B3990"/></linearGradient><linearGradient id="paint35_linear" x1="55.716" y1="2.867" x2="38.873" y2="84.028" gradientUnits="userSpaceOnUse"><stop offset=".076" stop-color="#F6D46B"/><stop offset=".12" stop-color="#BF8033"/><stop offset=".218" stop-color="#9E6031"/><stop offset=".309" stop-color="#C88B30"/><stop offset=".527" stop-color="#F2DA75"/><stop offset=".691" stop-color="#27AAE1"/><stop offset=".814" stop-color="#8BCBF0"/><stop offset=".885" stop-color="#00AEEF"/><stop offset="1" stop-color="#2B3990"/></linearGradient><linearGradient id="paint36_linear" x1="48.071" y1="-3.028" x2="27.751" y2="77.324" gradientUnits="userSpaceOnUse"><stop offset=".076" stop-color="#F6D46B"/><stop offset=".12" stop-color="#BF8033"/><stop offset=".218" stop-color="#9E6031"/><stop offset=".309" stop-color="#C88B30"/><stop offset=".527" stop-color="#F2DA75"/><stop offset=".691" stop-color="#27AAE1"/><stop offset=".814" stop-color="#8BCBF0"/><stop offset=".885" stop-color="#00AEEF"/><stop offset="1" stop-color="#2B3990"/></linearGradient><linearGradient id="paint37_linear" x1="52.332" y1="-1.951" x2="32.012" y2="78.402" gradientUnits="userSpaceOnUse"><stop offset=".076" stop-color="#F6D46B"/><stop offset=".12" stop-color="#BF8033"/><stop offset=".218" stop-color="#9E6031"/><stop offset=".309" stop-color="#C88B30"/><stop offset=".527" stop-color="#F2DA75"/><stop offset=".691" stop-color="#27AAE1"/><stop offset=".814" stop-color="#8BCBF0"/><stop offset=".885" stop-color="#00AEEF"/><stop offset="1" stop-color="#2B3990"/></linearGradient><linearGradient id="paint38_linear" x1="44.777" y1="-3.861" x2="24.457" y2="76.491" gradientUnits="userSpaceOnUse"><stop offset=".076" stop-color="#F6D46B"/><stop offset=".12" stop-color="#BF8033"/><stop offset=".218" stop-color="#9E6031"/><stop offset=".309" stop-color="#C88B30"/><stop offset=".527" stop-color="#F2DA75"/><stop offset=".691" stop-color="#27AAE1"/><stop offset=".814" stop-color="#8BCBF0"/><stop offset=".885" stop-color="#00AEEF"/><stop offset="1" stop-color="#2B3990"/></linearGradient><linearGradient id="paint39_linear" x1="57.867" y1="-.551" x2="37.547" y2="79.802" gradientUnits="userSpaceOnUse"><stop offset=".076" stop-color="#F6D46B"/><stop offset=".12" stop-color="#BF8033"/><stop offset=".218" stop-color="#9E6031"/><stop offset=".309" stop-color="#C88B30"/><stop offset=".527" stop-color="#F2DA75"/><stop offset=".691" stop-color="#27AAE1"/><stop offset=".814" stop-color="#8BCBF0"/><stop offset=".885" stop-color="#00AEEF"/><stop offset="1" stop-color="#2B3990"/></linearGradient><linearGradient id="paint40_linear" x1="44.191" y1="-4.01" x2="23.871" y2="76.343" gradientUnits="userSpaceOnUse"><stop offset=".076" stop-color="#F6D46B"/><stop offset=".12" stop-color="#BF8033"/><stop offset=".218" stop-color="#9E6031"/><stop offset=".309" stop-color="#C88B30"/><stop offset=".527" stop-color="#F2DA75"/><stop offset=".691" stop-color="#27AAE1"/><stop offset=".814" stop-color="#8BCBF0"/><stop offset=".885" stop-color="#00AEEF"/><stop offset="1" stop-color="#2B3990"/></linearGradient><clipPath id="clip0"><path fill="#fff" d="M0 0h75.224v80H0z"/></clipPath></defs></svg>