<svg width="113" height="120" fill="none" xmlns="http://www.w3.org/2000/svg"><g clip-path="url(#clip0)"><path d="M32.43 95.442c-.274.32-.592.766-.956 1.336-.364.57-.716 1.164-1.058 1.78-.342.616-.664 1.21-.973 1.78a19.825 19.825 0 00-.7 1.404 85.01 85.01 0 00-.92 2.124 24.554 24.554 0 00-.784 2.159c-.182.684-.268 1.25-.257 1.696.011.445.143.737.393.874.25.136.613.097 1.09-.119.479-.218 1.092-.656 1.842-1.318a18.867 18.867 0 002.046-2.192 15.907 15.907 0 001.637-2.5c.614-.297.978-.114 1.092.548a31.514 31.514 0 01-1.773 2.861 19.447 19.447 0 01-2.183 2.621c-1.227 1.3-2.336 2.163-3.326 2.585-.989.423-1.848.474-2.575.155-.774-.32-1.29-.839-1.551-1.558a5.884 5.884 0 01-.358-2.21 14.94 14.94 0 01.75-4.196 21.7 21.7 0 011.705-3.889c.41-.73.859-1.472 1.347-2.227a8.417 8.417 0 011.688-1.918c.227-.183.51-.326.852-.43a3.34 3.34 0 011.074-.136c.375.011.734.075 1.073.19.347.112.62.305.824.58zm-.033-3.22a2.72 2.72 0 01-1.295-.908c-.364-.444-.49-.988-.375-1.626a6.68 6.68 0 01.46-1.576c.217-.501.61-.81 1.177-.924a3.19 3.19 0 01.938 0c.306.046.609.125.902.24.682.229 1.12.537 1.313.924.193.39.3.673.324.856a3.55 3.55 0 01-.118 1.336c-.125.433-.346.81-.666 1.13a2.37 2.37 0 01-1.262.635c-.478.079-.945.05-1.398-.086z" fill="url(#paint0_linear)"/><path d="M51.051 102.464c.704-.297 1.07-.115 1.092.548a35.507 35.507 0 01-2.218 3.681 20.513 20.513 0 01-2.695 3.169 9.207 9.207 0 01-1.501 1.146 6.035 6.035 0 01-1.74.753 3.891 3.891 0 01-1.773.035c-.592-.125-1.126-.473-1.604-1.045a2.981 2.981 0 01-.75-1.576 5.899 5.899 0 01.018-1.85c.103-.638.26-1.268.478-1.884.217-.616.427-1.186.63-1.712a22.162 22.162 0 011.587-2.962 29.612 29.612 0 001.655-2.962c-.66.526-1.37 1.142-2.132 1.849a20.58 20.58 0 00-1.926 2.02 45.623 45.623 0 00-1.944 2.517 88.975 88.975 0 00-1.808 2.621c-.296.458-.58.909-.852 1.353-.274.445-.535.896-.785 1.354l-.51.77a.897.897 0 01-.853.429 1.6 1.6 0 01-.82-.24 3.234 3.234 0 01-.734-.583 2.872 2.872 0 01-.51-.737c-.125-.262-.165-.498-.119-.702.364-1.666.984-3.27 1.859-4.813a109.13 109.13 0 012.678-4.47c.385-.593.755-1.21 1.108-1.85a17.77 17.77 0 011.177-1.85c.204-.297.471-.502.802-.617.329-.114.789 0 1.38.344.275.16.483.314.632.462.147.15.221.332.221.548 0 .218-.085.486-.256.805-.171.32-.428.72-.767 1.2-.318.433-.653.959-1.006 1.575a32.874 32.874 0 00-.903 1.679c.364-.411.802-.902 1.313-1.472.51-.57 1.051-1.142 1.62-1.712a24.1 24.1 0 011.721-1.576c.581-.48 1.12-.845 1.62-1.096.613-.319 1.334-.433 2.165-.343.83.093 1.573.458 2.235 1.096.182.183.26.337.239.462-.022.126-.092.304-.204.53-.204.48-.443.96-.717 1.44-.273.501-.556.999-.852 1.489a26.7 26.7 0 00-.852 1.525c-.388.709-.802 1.457-1.245 2.245a21.276 21.276 0 00-1.142 2.346c-.342.937-.438 1.621-.289 2.055.147.433.443.645.887.634.443-.011.995-.234 1.655-.669.66-.434 1.33-1.063 2.012-1.884.477-.594.942-1.221 1.398-1.884a25.02 25.02 0 001.325-2.191z" fill="url(#paint1_linear)"/><path d="M68.004 102.464c.703-.297 1.069-.114 1.09.548a28.025 28.025 0 01-2.78 4.384c-1.058 1.371-2.165 2.488-3.326 3.355a2.542 2.542 0 01-.803.463 5.685 5.685 0 01-2.115.341 2.603 2.603 0 01-.937-.19c-.592-.229-1.04-.559-1.348-.992a3.491 3.491 0 01-.596-1.455 5.288 5.288 0 01-.017-1.643c.079-.559.21-1.09.392-1.594a20.567 20.567 0 011.74-3.734 178.05 178.05 0 012.15-3.527c-.182.114-.347.24-.496.376a21.62 21.62 0 01-.46.411 72.386 72.386 0 00-4.672 4.64 101.964 101.964 0 00-3.342 3.804 49.221 49.221 0 00-3.205 4.264c-.25 0-.478-.057-.682-.171a1.958 1.958 0 01-.528-.429 2.56 2.56 0 01-.357-.531 2.01 2.01 0 01-.171-.444c-.068-.275-.005-.702.188-1.285a20.13 20.13 0 01.75-1.901 38.44 38.44 0 011.006-2.073l.92-1.765a144.806 144.806 0 012.218-4.025 312.392 312.392 0 002.217-3.957c.136-.25.392-.702.767-1.353s.785-1.347 1.227-2.088c.443-.742.875-1.444 1.295-2.106.421-.663.756-1.142 1.006-1.44.41-.501.864-.862 1.365-1.078a4.427 4.427 0 012.832-.273c.431.104.795.223 1.09.36-.113.136-.391.457-.834.959a16.634 16.634 0 00-1.348 1.78 157.017 157.017 0 00-4.04 6.474 706.492 706.492 0 01-4.111 6.85c.341-.387.692-.77 1.058-1.146.364-.377.727-.759 1.091-1.147.728-.73 1.449-1.468 2.165-2.21a32.49 32.49 0 012.235-2.105c.204-.183.454-.387.75-.616.296-.229.596-.451.903-.67.306-.215.602-.404.887-.565.285-.16.506-.262.666-.308a3.094 3.094 0 011.074-.017c.353.057.67.165.956.325.284.16.51.348.681.566.17.218.256.44.256.669 0 .046-.107.262-.324.651-.217.39-.5.88-.852 1.472l-1.177 1.987c-.432.731-.852 1.451-1.262 2.159-.41.709-.791 1.382-1.142 2.02a28.42 28.42 0 00-.802 1.541c-.318.64-.484 1.181-.495 1.626-.011.444.074.77.256.977.182.205.45.297.802.275.353-.022.745-.194 1.177-.513.931-.662 1.847-1.525 2.746-2.585a18.74 18.74 0 002.266-3.341z" fill="url(#paint2_linear)"/><path d="M85.262 102.464c.704-.297 1.07-.115 1.092.548a35.507 35.507 0 01-2.218 3.681 20.513 20.513 0 01-2.695 3.169 9.207 9.207 0 01-1.501 1.146 6.035 6.035 0 01-1.74.753 3.891 3.891 0 01-1.773.035c-.592-.125-1.126-.473-1.604-1.045a2.98 2.98 0 01-.75-1.576 5.896 5.896 0 01.018-1.85c.103-.638.26-1.268.478-1.884.217-.616.427-1.186.63-1.712a22.162 22.162 0 011.587-2.962 29.613 29.613 0 001.655-2.962c-.66.526-1.37 1.142-2.132 1.849a20.592 20.592 0 00-1.927 2.02 45.623 45.623 0 00-1.943 2.517 89.169 89.169 0 00-1.808 2.621c-.296.458-.58.909-.853 1.353-.274.445-.534.896-.784 1.354l-.51.77a.897.897 0 01-.853.429 1.6 1.6 0 01-.82-.24 3.234 3.234 0 01-.734-.583 2.875 2.875 0 01-.51-.737c-.125-.262-.165-.498-.119-.702.364-1.666.984-3.27 1.859-4.813a109.13 109.13 0 012.677-4.47c.386-.593.756-1.21 1.11-1.85.352-.638.744-1.256 1.176-1.85.204-.297.471-.502.802-.617.329-.114.789 0 1.38.344.275.16.483.314.632.462.147.15.221.332.221.548 0 .218-.086.486-.256.805-.171.32-.428.72-.767 1.2-.318.433-.653.959-1.006 1.575a32.874 32.874 0 00-.903 1.679c.364-.411.802-.902 1.313-1.472.51-.57 1.051-1.142 1.619-1.712a24.101 24.101 0 011.722-1.576c.581-.48 1.12-.845 1.62-1.096.613-.319 1.334-.433 2.165-.343.83.093 1.573.458 2.235 1.096.182.183.26.337.239.462-.022.126-.092.304-.204.53-.204.48-.443.96-.717 1.44-.273.501-.556.999-.852 1.489a26.7 26.7 0 00-.852 1.525c-.388.709-.802 1.457-1.245 2.245a21.312 21.312 0 00-1.142 2.346c-.342.937-.438 1.621-.289 2.055.147.433.443.645.888.634.442-.011.994-.234 1.654-.669.66-.434 1.33-1.063 2.012-1.884.477-.594.942-1.221 1.398-1.884.449-.662.894-1.393 1.325-2.191z" fill="url(#paint3_linear)"/><path d="M90.241 104.209c-.25.024-.506.028-.767.017a5.52 5.52 0 01-.767-.085c-.41 1.278-.528 2.328-.357 3.151.17.823.556 1.393 1.16 1.712.602.319 1.38.376 2.335.171.956-.204 2.023-.684 3.206-1.439a12.283 12.283 0 002.575-2.414 19.252 19.252 0 001.926-2.86 1.74 1.74 0 01.699-.119c.215.011.346.235.392.667-.523 1.005-1.212 2.033-2.064 3.083a23.531 23.531 0 01-2.814 2.911c-1.636 1.371-3.252 2.282-4.842 2.74-1.591.455-2.957.319-4.094-.412a5.946 5.946 0 01-1.996-2.313 5.995 5.995 0 01-.631-2.962c.022-.959.2-1.923.528-2.893a13.94 13.94 0 013.223-5.242 9.968 9.968 0 012.354-1.798c.841-.456 1.812-.81 2.916-1.063 1.103-.25 2.133-.25 3.088 0 .478.115.874.315 1.194.599.318.286.55.616.7.992.146.376.21.784.188 1.217a4.384 4.384 0 01-.274 1.3 6.162 6.162 0 01-1.858 2.604 10.14 10.14 0 01-2.746 1.644 9.943 9.943 0 01-3.274.792zm2.934-6.575a15.675 15.675 0 00-2.303 2.499 16.924 16.924 0 00-1.757 2.947c.342-.09.727-.216 1.159-.376a14.138 14.138 0 001.979-.907 8.371 8.371 0 001.74-1.285 8.809 8.809 0 001.262-1.44 2.739 2.739 0 00.51-1.815c0-.365-.114-.57-.341-.616-.228-.046-.49-.01-.785.104-.296.114-.58.261-.852.444s-.476.33-.612.445z" fill="url(#paint4_linear)"/><path d="M109.102 96.025c.296-.114.659-.136 1.091-.068.66.137 1.194.48 1.604 1.028.41.548.693 1.13.853 1.747a6.85 6.85 0 01.171 2.02 10.042 10.042 0 01-.358 2.055 13.24 13.24 0 01-.734 1.987 16.12 16.12 0 01-.955 1.781 20.126 20.126 0 01-1.227 1.712c-.456.57-.956 1.096-1.501 1.575a7.994 7.994 0 01-1.758 1.182 5.305 5.305 0 01-2.029.53c-.749.047-1.433-.063-2.047-.325a4.65 4.65 0 01-1.604-1.131 5.802 5.802 0 01-1.091-1.697 6.73 6.73 0 01-.51-2.02 9.52 9.52 0 01.102-2.414c.136-.81.358-1.604.667-2.381.306-.777.688-1.507 1.141-2.192.454-.684.967-1.3 1.534-1.85a8.814 8.814 0 011.893-1.336 5.762 5.762 0 012.201-.652c.385-.046.802-.04 1.244.018.443.057.846.178 1.212.359l.101.072zm1.365 3.22c-.114-.388-.278-.702-.495-.942a5.065 5.065 0 00-.802-.702 3.84 3.84 0 00-1.159.103 4.696 4.696 0 00-1.059.412c-.567.297-1.102.737-1.604 1.318a10.22 10.22 0 00-1.312 1.952 13.376 13.376 0 00-.921 2.242 9.085 9.085 0 00-.41 2.21c-.035.697.04 1.313.222 1.85.182.537.51.92.988 1.147.592.297 1.28.297 2.064 0 .785-.297 1.53-.878 2.235-1.748.932-1.142 1.615-2.374 2.047-3.699a9.55 9.55 0 00.392-2.055 6.15 6.15 0 00-.186-2.088z" fill="url(#paint5_linear)"/><path d="M89.511 55.557c.702-1.48 1.087-2.98.945-4.57-.066-.724-.182-1.44-.706-2.005-.576-.62-1.6-.691-2.252-.086-.618.572-.73 1.228-.22 1.994.956 1.439 1.983 2.854 2.233 4.667z" fill="url(#paint6_linear)"/><path d="M94.278 49.303c-.923-.179-1.526.305-1.92 1.08-.26.508-.39 1.063-.489 1.633-.265 1.536-.52 3.094-1.227 4.493-1.889 3.733-5.15 5.799-8.945 7.084-3.405 1.153-6.852 1.034-10.29-.029.484.212.962.44 1.453.634.815.32 1.658.537 2.524.665 7.124 1.054 14.633-.96 18.622-8.153.962-1.734 1.729-3.563 1.696-5.616-.02-.957-.462-1.607-1.424-1.791z" fill="url(#paint7_linear)"/><path d="M77.146 63.019l.015-.009c3.548-.163 6.861-.999 9.366-3.756 1.019-1.12 1.518-2.542 1.347-4.109-.116-1.069-.839-1.837-1.72-1.806-.992.035-1.288.814-1.5 1.606-.108.4-.117.828-.187 1.24-.132.782-.226 1.572-.633 2.288-1.552 2.74-4.046 3.884-7.091 4.3l-2.21.246h2.613z" fill="url(#paint8_linear)"/><path d="M73.208 72.977a74.438 74.438 0 00-2.582-1.272 63.575 63.575 0 00-3.839-1.602c-3.352-1.445-6.745-2.783-10.356-3.474-1.917-.368-3.848-.517-5.998-.011 1.96.603 3.704 1.118 5.435 1.674 5.715 1.838 10.84 4.84 15.848 8.083 3.775 2.447 7.577 4.861 11.84 6.395 2.419.871 4.877 1.644 7.502 1.02 2.735-.648 4.436-2.47 5.687-5.063-.075.154-1.51.121-1.714.13-.585.029-1.17.04-1.757.035a31.973 31.973 0 01-3.432-.22c-2.235-.264-4.437-.761-6.587-1.426-2.156-.666-4.255-1.5-6.313-2.427-1.269-.57-2.498-1.21-3.734-1.842z" fill="url(#paint9_linear)"/><path d="M104.559 66.556c-.077-2.575-1.457-4.714-3.493-5.402-1.409-.478-1.75-.225-1.696 1.258.004.128.013.253.018.381.18 5.779-3.18 9.803-8.851 10.615-3.625.52-7.197.117-10.729-.69-2.305-.529-4.58-1.184-6.868-1.783-.006.015.007-.015 0 0-1.991-.502-3.84-.907-3.72-.832.256.157 7.937 3.107 8.083 3.165 2.03.851 4.052 1.725 6.134 2.42 4.66 1.56 9.423 1.87 14.178.44 4.676-1.406 7.084-4.806 6.944-9.572z" fill="url(#paint10_linear)"/><path d="M95.132 22.182c3.951.191 10.212 7.728 9.997 11.845l-1.795-1.688-.072.128c.221.968.528 1.925.642 2.907.118 1.02-.368 1.952-.679 2.99-.412-.695-.761-1.278-1.094-1.837l-1.093 2.966a8.535 8.535 0 01-.241-.009l-.463-1.815c-.171 1.03-.727 1.85-1.463 2.456-.78.64-1.672 1.206-2.604 1.586-2.013.824-4.084 1.508-6.133 2.252-1.247.453-2.5.889-3.737 1.37-.495.194-.953.487-1.522.628.287-.352.519-.775.87-1.041 1.222-.931 2.434-1.895 3.749-2.678.995-.594 2.139-.935 3.217-1.384 3.144-1.312 4.865-3.796 5.23-7.069.406-3.613-.168-7.13-2.09-10.32-.237-.396-.45-.805-.719-1.287zm6.55 11.658c.048-.068.094-.139.142-.207-.738-1.247-1.312-2.6-2.432-3.624a21.773 21.773 0 001.37 3.391c.122.24.605.297.92.44zm-2.68-7.26c-.149.476.136.667.388.892.403.358.811.717 1.172 1.115.436.478.826.997 1.236 1.497l.149-.13c-.679-1.351-1.597-2.5-2.945-3.373zm.48 7.601c-.401 1.166-.237 1.706.517 1.798l-.517-1.798z" fill="url(#paint11_linear)"/><path d="M88.356 16.282c3.888-2.46 11.935-2.863 15.035-.608-.587 0-1.28-.022-1.972.007-.872.035-1.545.473-1.985 1.208-.19.317-.36.343-.68.255-.946-.26-1.893-.521-2.855-.713-.865-.171-1.678.113-2.478.458 3.363.187 6.609.834 9.602 2.4 1.111.584 2.113 1.378 3.164 2.078-.015.068-.03.134-.048.203-.195.04-.39.114-.583.114-.653-.004-1.233.167-1.718.625-.313.295-.585.286-.916-.042-1.823-1.815-4.168-2.623-6.543-3.362a1.652 1.652 0 00-.355-.077 2.735 2.735 0 00-.745.042c4.836 2.229 9.508 4.662 12.469 9.4-.794-.081-1.609-.343-2.347-.198-1.28.251-1.83-.354-2.47-1.325-1.558-2.367-3.763-4.042-6.313-5.22-.662-.305-1.44-.362-2.128-.523-1.323-2.44-3.644-3.613-6.133-4.722z" fill="url(#paint12_linear)"/><path d="M80.303 39.555c.18-1.695.3-3.325.546-4.934.158-1.034.41-2.075.778-3.052.434-1.157.877-2.346 1.817-3.23.059-.055.173-.051.32-.09-.656 2.539-1.364 5.014-.796 7.593.077.016.153.031.23.044.053-.154.116-.303.158-.46.489-1.874.916-3.767 1.488-5.615.254-.821.795-1.554 1.308-2.28-.993 2.64-1.615 5.319-1.335 8.162.936-2.678 1.835-5.37 3.132-7.913-.686 2.682-.024 5.175.955 7.666l.27-7.514c.372 1.751 1.133 3.278 2.518 4.458-.78-2.086-1.365-4.208-1.365-6.463.245.651.495 1.3.736 1.954.692 1.868 1.654 3.565 3.105 4.953.116.11.23.293.36.308.626.073.567.561.363.83-.5.658-1.093 1.254-1.7 1.818-.119.11-.553.044-.713-.093-.545-.464-1.036-.992-1.544-1.503-.198-.198-.382-.407-.717-.568v6.915c-1.247-.535-2.693-3.354-3.517-6.908-.513 1.083-.386 2.17-.487 3.21-.1 1.057-.131 2.122-.192 3.183a6.09 6.09 0 00-.198.048l-.672-1.215c-.7-1.258-2.803-1.608-3.85-.607-.356.332-.605.777-.998 1.303z" fill="url(#paint13_linear)"/><path d="M66.23 21.121c.78-1.763 1.524-3.514 3.187-4.601.182-.12.423-.436.375-.555-.084-.207-.347-.394-.577-.482-.699-.264-1.345-.037-1.906.896-.57.946-.91 2.029-1.433 3.006-.434.81-.982 1.562-1.495 2.326-.076.114-.25.165-.379.246-.06-.035-.116-.07-.175-.103.12-.317.206-.654.366-.947.635-1.157 1.168-2.337 1.4-3.661.092-.528.482-1.02.789-1.492.635-.986 1.308-1.95 1.963-2.922.158-.236.333-.463.467-.714.307-.572.607-1.14 1.383-1.225.092.546.495.64.975.673 1.306.09 2.388-.458 3.45-1.129 1.174-.741 2.344-1.5 3.573-2.136.58-.302 1.3-.333 1.981-.364-.88.425-1.823.757-2.623 1.301-.82.559-1.499 1.325-2.196 2.066 6.59-2.647 12.666-2.31 17.982 2.857-.103-.064-.203-.137-.313-.19-.692-.325-1.376-.675-2.084-.966-1.251-.51-2.522-.928-3.892-1.045a28.037 28.037 0 00-6.51.202c-2.4.353-4.587 1.24-6.684 2.373-1.946 1.052-3.604 2.482-5.062 4.161-.66.76-1.404 1.441-2.123 2.148-.118.123-.291.187-.438.277z" fill="url(#paint14_linear)"/><path d="M76.6 19.162c1.749-.404 3.291-1.067 3.782-2.79 1.379.033 2.625.064 4.002.1-.127.195-.2.358-.316.474-.708.709-.927 1.686-.392 2.491.217.328.74.46 1.141.65.152.072.347.052.557.195-.381.14-.776.25-1.142.42-.992.472-1.978.956-2.95 1.47-.168.089-.247.346-.367.524.193.13.37.328.583.377 1.314.301 2.63.33 3.946-.031.43-.117.89-.128 1.411-.198-.252 1.038-.773 1.806-1.415 2.48-.934.98-1.909 1.943-3.213 2.414-1.477.532-2.98.73-4.477.04-.118-.055-.219-.15-.438-.302 1.251.216 2.338.25 3.43-.196 1.132-.462 1.785-1.298 2.226-2.363l-.114-.18-2.636 1.48c.099-.537.226-.952.232-1.373.002-.19-.23-.383-.357-.574-.158.139-.39.246-.458.418-.184.466-.375.953-.419 1.446-.05.548-.271.666-.77.642-1.53-.072-3.064-.105-4.596-.15a2.29 2.29 0 00-.425.016c-.647.101-.677-.011-.568-.623.215-1.188 1.306-1.107 2.036-1.549.616-.374 1.315-.656 1.84-1.131 1.094-.99 1.048-1.864.369-3.3-.138-.287-.318-.555-.502-.877zm4.282.447c-1.15.313-2.56 2.258-2.93 3.822l3.138-3.327-.208-.495z" fill="url(#paint15_linear)"/><path d="M92.617 11.542c-1.197-.478-2.398-.887-3.526-1.444-.388-.191-.684-.715-.864-1.153-.39-.946-.21-1.95-.114-2.935.031-.322.073-.643.119-1.059-1.177 1.334-1.192 2.942-1.457 4.49-.882-1.405-.827-2.952-.746-4.52-1.095 1.243-1.183 2.759-1.194 4.308-.82-1.675-.506-3.448-.53-5.204-1.008 1.59-1.24 3.327-1.017 5.228-.114-.163-.278-.308-.335-.49-.875-2.769-.46-5.44.65-8.05.09-.211.281-.379.54-.713.03.308.061.458.059.607-.013.907.272 1.312 1.117 1.666 1.804.753 3.61.737 5.422.05.127-.048.258-.083.537-.173-.351.623-.6 1.162-.934 1.644C89.181 5.477 89 7.235 89.87 9.093c.032.068.083.13.225.35.373-2.051.767-3.964 2.523-5.139-.686 1.087-.947 2.007-.998 3.878.673-1.486 1.548-2.593 3.171-3.037-.931.97-1.483 2.044-1.812 3.327 2.075-1.846 2.93-2.222 3.36-1.512-2.006.876-2.637 2.894-3.721 4.582z" fill="url(#paint16_linear)"/><path d="M67.414 26.314c-1.69-.828-2.57-2.317-3.1-4.203.414.061.78.16 1.143.156.303-.002.664-.042.899-.209 1.303-.928 2.425-2.038 3.477-3.261.927-1.076 2.086-1.952 3.171-2.885.962-.827 1.93-1.66 3.204-1.987l2.774-.713.048.16c-.04.036-.076.097-.118.1-1.67.1-2.676 1.212-3.594 2.422-.462.612-.204 1.206.572 1.206.62 0 1.297-.13 1.845-.407.798-.405 1.504-.992 2.332-1.56-.156.394-.252.764-.44 1.078-.229.377-.548.698-.807 1.056-.826 1.138-1.988 1.418-3.237 1.072-1.996-.55-3.622.06-4.93 1.499-.89.977-1.705 2.075-2.31 3.248-.489.946-.613 2.077-.929 3.228z" fill="url(#paint17_linear)"/><path d="M95.128 38.272c-.35-.148-.561-.212-.75-.317-.837-.469-.922-.786-.377-1.547 1.162-1.62 2.003-3.372 2.133-5.392.105-1.639-.226-3.221-.855-4.726-.318-.762-.675-1.532-1.448-1.968-.31-.174-.638-.308-.989-.473.022-.033.06-.097.103-.154.98-1.239 1.181-1.217 2.196.033.942 1.16 1.486 2.49 1.86 3.917.612 2.33.557 4.68-.087 6.956-.368 1.29-1.18 2.454-1.786 3.67z" fill="url(#paint18_linear)"/><path d="M87.918 21.834c-1.691.539-3.186.642-4.637-.15 1.4.139 2.477-.544 3.53-1.312 1.405-1.025 2.926-.915 4.453-.347.29.107.507.405.73.724-.716-.3-1.363-.117-1.961.176-.383.187-.747.48-1.021.807-.28.337-.151.744.26.885.568.196 1.166.352 1.76.4.25.02.526-.28.79-.433-.187-.143-.36-.31-.564-.427-.285-.163-.592-.288-.942-.453a2.158 2.158 0 011.952-.082c.443.194.682.603.576 1.155-.223 1.165-1.18 1.869-2.4 1.457-1.274-.431-2.25-.196-3.179.691-.23.218-.556.335-.918.546.388-.614.772-1.085 1.004-1.624.247-.563.346-1.19.567-2.014z" fill="url(#paint19_linear)"/><path d="M79.206 14.07c3.146-1.908 7.547-2.29 10.96-.16-.17.076-.315.11-.418.193-.642.508-1.267 1.041-1.92 1.534-.146.112-.45.211-.567.136-1.926-1.234-4.098-1.507-6.302-1.652-.548-.036-1.096-.033-1.753-.05z" fill="url(#paint20_linear)"/><path d="M68.087 26.625c-.421-1.983 2.266-5.834 4.615-6.79-.084.555-.184 1.084-.237 1.616-.094.95.857 1.688 1.77 1.406.316-.096.658-.112.97-.215.313-.104.604-.271.966-.348a3.458 3.458 0 01-1.363 1.4c-.542.301-1.164.387-1.813.47-1.354.174-2.778.348-3.8 1.488-.321.359-.73.645-1.108.973z" fill="url(#paint21_linear)"/><path d="M94.777 31.847c-.552-.702-1.032-1.263-1.457-1.866a25.81 25.81 0 01-1.383-2.141c-.315-.557-.686-1.158-.738-1.765-.033-.392.407-.885.743-1.226.287-.293.675-.303 1.082.011 1.843 1.422 2.183 3.398 2.108 5.539a3.95 3.95 0 01-.11.715c-.037.178-.111.346-.245.733z" fill="url(#paint22_linear)"/><path d="M91.091 40.724c-.412-1.864-.699-3.69-.182-5.664 1.206 1.25 2.323 2.407 3.432 3.553-.57.989-2.165 2.025-3.25 2.11z" fill="url(#paint23_linear)"/><path d="M67.548 7.827c.828.66.944 2.049.276 2.839-.791.935-1.804 1.474-2.952 1.8a3.995 3.995 0 00-.23.072c-1.017.368-1.55.982-1.514 1.743.04.816.78 1.692 1.659 1.956.173.053.348.102.633.185-.11.493-.217.986-.344 1.56-1.104-.563-2.088-1.148-2.584-2.163-.994-2.037.18-3.668 2.027-4.328 1.039-.372 2.05-.828 3.072-1.243.546-.223.627-.663.483-1.15-.132-.44-.338-.857-.511-1.286l-.015.015z" fill="url(#paint24_linear)"/><path d="M77.516 34.694c.629.28 1.22.193 1.801-.102.84-.426 1.105-1.755.579-2.667-.07-.123-.162-.233-.226-.36-.508-1.021-.93-1.215-1.987-.491-2.163 1.48-5.071.405-6.027-2.056-.425-1.095-.556-2.306-.804-3.47-.024-.112.044-.33.127-.365.493-.21.995-.462 1.57-.17-.428 1.288-.305 2.542.078 3.788.666 2.172 2.97 2.698 4.747 2.132.17-.055.324-.176.497-.2.62-.093 1.258-.493 1.784.303.67 1.017 1.058 2.067.366 3.163-.482.768-1.872 1.142-2.505.495z" fill="url(#paint25_linear)"/><path d="M89.665 19.085c-.67.029-1.343.11-2.01.07-.521-.03-.878-.42-1.02-.91-.156-.546-.22-1.131.179-1.611.118-.143.447-.282.563-.216.331.185.756.425.864.74.273.803.668 1.445 1.424 1.927z" fill="url(#paint26_linear)"/><path d="M74.816 19.155c-.162.359-.366.709-.47 1.087-.062.225.036.491.065.74.202-.031.515.004.58-.106.106-.176.047-.451.064-.852.19.025.616-.041.763.133.188.222.245.649.193.961-.086.513-.44.847-.989.924-.618.088-1.093-.182-1.516-.594-.042-.042-.09-.088-.107-.14-.255-.78.587-2.047 1.417-2.153z" fill="url(#paint27_linear)"/><path d="M86.768 19.53c-.642.028-1.3.132-1.937.063-.79-.083-1.114-1.223-.581-1.896.149-.19.329-.368.53-.496.283-.18.54-.23.697.21.178.492.412.972.673 1.428.149.255.399.453.618.69z" fill="url(#paint28_linear)"/><path d="M86.88 42.587l1.084-3.241c.066.009.134.017.2.028.296.498.578 1.004.892 1.49.197.306.116.504-.138.715-.386.32-.73.696-1.136.986-.194.139-.49.132-.74.192l-.162-.17z" fill="url(#paint29_linear)"/><path d="M85.652 16.555c-.86-.264-1.685-.52-2.509-.77.064-.676.634-1.083 1.214-.86.3.116.583.277.883.395.824.326.85.392.412 1.235z" fill="url(#paint30_linear)"/><path d="M92.472 20.561c-.2-.26-.355-.583-.611-.765-.588-.416-1.219-.777-1.846-1.136-.38-.218-.629-.486-.39-.926.254-.467.583-.203.864-.014.988.663 1.67 1.578 2.204 2.612l-.221.23z" fill="url(#paint31_linear)"/><path d="M83.211 14.875c-.228.476-.42.883-.624 1.308-.717-.32-1.4-.623-2.084-.93l.024-.2c.872-.114 1.729-.387 2.684-.178z" fill="url(#paint32_linear)"/><path d="M70.719 26.873c-.73.11-1.438.216-2.146.324-.03-.06-.059-.121-.09-.18l1.734-1.658c.195.586.34 1.021.502 1.514z" fill="url(#paint33_linear)"/><path d="M67.56 7.816c-.72-.512-1.432-.96-2.383-.508-.428.202-.77.449-.739.911.016.24.276.513.495.68.351.27.724.172 1.041-.121.055-.05.112-.095.272-.229-.59.832-1.323.856-1.871.176-.261-.323-.151-.981.217-1.305.813-.715 2.24-.603 2.947.238.028.035.007.114.009.171a.08.08 0 01.013-.013z" fill="url(#paint34_linear)"/><path d="M77.921 33.844c.132-.323.358-.611.292-.794-.061-.178-.508-.41-.636-.339a1.537 1.537 0 00-.65.744c-.084.218.078.53.135.82-.609-.725-.416-1.524.445-1.74.215-.055.541.093.73.251.153.13.283.447.23.625-.05.174-.34.282-.546.433z" fill="url(#paint35_linear)"/><path d="M59.435 36.181a33.344 33.344 0 014.16-.345c1.398-.026 2.802.064 4.198.187 1.372.121 2.737.346 4.104.524-7.038-1.783-13.919-1.483-20.587 1.586 1.337-.376 2.665-.79 4.012-1.115 1.361-.33 2.73-.638 4.113-.837z" fill="url(#paint36_linear)"/><path d="M68 38.228c-.205.066-.41.1-.582.194-.501.277-.504.883-.01 1.169.379.222.775.218 1.159.004.285-.158.383-.376.335-.684-.46.094-.859.015-.903-.683z" fill="url(#paint37_linear)"/><path d="M67.677 35.85c-.324-.075-.65-.142-.98-.201a22.005 22.005 0 00-3.13-.308c-.457-.013-.91.011-1.366.03a21.45 21.45 0 00-2.159.22 22.83 22.83 0 00-2.673.58c-.563-.238-1.475-.753-2.39-1.812-1.65-1.907-3.327.45-3.844-1.564 0 0-.184 1.413.966 1.604.445.073.493.361-.094.423-.568.059-1.05-.24-1.05-.24s.38.86 1.666.625c.716-.132 1.503-.022 1.492.493-.018.684-1.418.277-3.118.083-1.7-.193-2.711 1.127-3.704.152 0 0-.285 1.294 1.444 1.19.537-.032.182.914-2.98.77 0 0 .914 1.563 2.728 1.788l-.068.03a3.645 3.645 0 00-1.963.476s.778.123.497.858c-.289.757-1.19 1.325-2.143 1.99-1.258.877-1.764 2.624-1.183 3.808 0 0-.004-1.093.309-1.03.18.038.12.639.12.639l.802 2.356c.007.522.05 1.041.139 1.563.225 1.36.718 2.616 1.413 3.798.015.17.134.286.22.418.017.029.05.049.08.022.013-.009.018-.046.009-.06-.088-.145-.083-.336-.217-.46-.017-.054-.033-.111-.053-.166-.425-1.198-.714-2.423-.786-3.7a9.737 9.737 0 01.094-1.892c.202-1.42.75-2.7 1.558-3.875.274-.398.572-.773.89-1.131H48.2c-.002.004 6.37-7.944 19.477-7.478z" fill="url(#paint38_linear)"/><path d="M102.313 46.202a11.26 11.26 0 00-.12-.893c-.158-.893-.448-1.8-1.07-2.458-.622-.658-1.639-1.004-2.46-.625-.634.29-1.037.946-1.201 1.626-.165.68-.123 1.389-.084 2.086.167 2.945.254 5.983-.767 8.75-.898 2.44-2.618 4.513-4.624 6.161-3.357 2.757-7.606 4.35-11.925 4.621-3.688.231-7.404-.34-10.22-2.913-1.256-1.147-4.306-3.928-3.644-5.882.083-.245.252-.447.427-.634 1.368-1.47 3.377-1.97 4.806-3.34.065-.062.142-.113.239-.188-.658 0-1.245-.035-1.826.01-1.04.076-2.07.279-2.989.79a8.453 8.453 0 01-3.552 1.053c-1.337.095-2.647-.033-3.898-.545-.846-.346-1.572-.845-2.001-1.693-.175-.343-.173-.345-.568-.264-1.19.245-2.189.85-3.056 1.68-.884.842-1.521 1.821-1.55 3.109-.024-.016-.035-.02-.037-.027a.456.456 0 01-.022-.072c-.232-1-.022-1.915.546-2.753.537-.792 1.27-1.371 2.08-1.86 1.77-1.07 3.707-1.7 5.71-2.134 1.08-.236 2.183-.363 3.272-.555 1.53-.268 2.997-.761 4.448-1.307.127-.048.267-.092.401-.086.681.038 1.365.075 2.044.148.772.081 1.539.202 2.339.31a7.6 7.6 0 00-1.727-1.712c1.453-.748 2.78-1.609 3.96-2.687 1.24-1.135 2.255-2.434 2.791-4.049.154-.462.255-.96.279-1.446.026-.547-.445-.913-.975-.792-.294.066-.618.18-.835.377-.382.345-.693.767-1.026 1.161-.252.298-.475.62-.75.894-.166.163-.407.25-.668.402.086-.572.13-1.056.24-1.529.093-.411.23-.819.402-1.201a.829.829 0 01.842-.502c.12.007.239.044.386.073-.382-.328-.752-.403-1.142-.163a2.83 2.83 0 00-.76.655c-.362.465-.671.97-.993 1.464-.346.528-.662 1.08-1.037 1.589-.313.424-.69.8-1.038 1.199.348-.579.716-1.133 1.056-1.706.258-.437.342-.924.287-1.432-.077-.73-.612-1.09-1.284-.81-.27.11-.509.321-.726.526-.239.224-.434.497-.657.74-.45.486-1.01.719-1.668.717-.683-.005-1.058-.275-1.288-.92-.064-.18-.12-.363-.202-.535-.122-.262-.322-.374-.594-.288-.276.086-.576.183-.795.36-.484.39-.927.833-1.38 1.26-.104.096-.187.213-.318.363l.063-1.118a.358.358 0 00-.136.15c-.578 1.06-.742 2.189-.58 3.38.27 1.98 1.79 3.633 3.731 4.042 1.377.288 2.702.07 4.004-.394.042-.015.081-.033.123-.044.037-.011.079-.013.118-.018-1.53.777-3.123 1.255-4.85 1.03-1.965-.255-3.407-1.252-4.165-3.127-.58-1.437-.508-2.909-.127-4.379.131-.506.311-1.001.471-1.5-1.615 1.905-2.119 4.037-1.29 6.445-1.3-1.151-1.583-2.758-1.953-4.324-.607 2.557.48 4.48 2.292 6.135-.381-.115-.747-.249-1.122-.33a8.49 8.49 0 00-1.155-.168c-1.575-.125-3.11.12-4.61.58-2.06.629-3.956 1.573-5.536 3.076-.372.354-.697.761-1.06 1.161a3.994 3.994 0 01.567-1.667c.296-.5.61-.993.969-1.449.364-.462.771-.895 1.2-1.298.422-.398.875-.768 1.346-1.102.47-.335.98-.61 1.538-.949-2.598.784-4.774 2.093-6.37 4.239-1.52 2.046-1.812 4.236-.55 6.542.044.079.02.233-.028.319-.723 1.225-.879 2.528-.522 3.895a5.4 5.4 0 00.864 1.813c.144-1.48.885-2.456 2.184-2.938-.298-.323-.607-.629-.883-.961-.278-.335-.526-.698-.786-1.048.017-.015.037-.03.054-.046l.813.748c.68.623 1.357 1.246 2.176 1.681 1.576.834 3.276 1.136 5.034 1.18 1.391.035 2.759-.187 4.133-.374.466-.064.935-.117 1.404-.156 1.823-.159 2.875 1.533 4.017 2.623 1.352 1.29 2.87 2.4 4.499 3.307 9.284 5.173 21.508 3.061 28.235-5.24 2.08-2.565 3.605-5.587 4.378-8.806.382-1.66.588-3.36.432-5.033zm-32.75-1.53c-2.399-.15-3.955-1.876-3.786-4.356.028-.423.12-.84.184-1.261.005-.03.029-.06.064-.134.03.409.017.78.092 1.133.125.59.239 1.2.477 1.747.704 1.598 2.157 2.188 3.713 2.014 1.761-.198 3.208-1.072 4.538-2.188.046-.037.087-.079.133-.12a5.15 5.15 0 01-1.45 1.835c-1.155.94-2.472 1.428-3.964 1.33z" fill="url(#paint39_linear)"/><path d="M75.292 80.762c-5.919-3.673-11.748-7.504-18.234-10.144-5.178-2.108-10.484-3.51-16.16-2.99-4.443.406-8.97 1.99-12.286 5.073-2.706 2.518-4.144 5.98-5.835 9.192-1.89 3.583-3.94 7.086-5.902 10.629-2.02 3.646-3.826 7.647-6.22 11.069-.183.25-.358.49-.529.719-.17.229-.346.469-.528.72a1.821 1.821 0 01-.443-.172 10.657 10.657 0 00-3.462-.616c-1.24-.022-2.35.194-3.326.651-.934.434-1.591 1.05-1.98 1.851-.387.799-.483 1.587-.288 2.363.192.777.681 1.444 1.466 2.005.784.559 1.88.805 3.29.737a8.862 8.862 0 003.089-.823 13.145 13.145 0 002.677-1.679 66.847 66.847 0 012.457 2.535c.795.867 1.604 1.734 2.421 2.603a25.25 25.25 0 001.944 1.884 19.36 19.36 0 002.15 1.626c.75.491 1.54.909 2.37 1.25.831.343 1.712.57 2.643.685 1.911.228 3.48-.082 4.707-.925 1.228-.845 1.966-2.158 2.218-3.939a9.285 9.285 0 01-4.04.599 11.342 11.342 0 01-3.873-.977 14.776 14.776 0 01-3.223-1.833 46.99 46.99 0 01-2.917-2.381 455.594 455.594 0 01-2.15-1.833 22.616 22.616 0 00-2.25-1.697c.546-.616 1.07-1.25 1.569-1.901.5-.651.977-1.296 1.433-1.934.348-.509 4.488-8.03 8.397-15.147 2.774-5.048 7.13-10.26 12.048-13.289 10.115-6.234 20.951 1.38 29.855 6.393 2.85 1.606 5.798 2.99 9.043 3.589 2.007.372 4.004.453 5.941-.39-2.08-1.19-4.113-2.286-6.072-3.503zM6.03 108.3a7.944 7.944 0 01-1.894.77c-.637.161-1.148.161-1.534 0-.388-.159-.637-.383-.75-.667-.113-.286-.078-.609.104-.977.182-.365.51-.673.988-.924.728-.365 1.506-.462 2.336-.291.83.172 1.63.473 2.404.907A9.972 9.972 0 016.03 108.3z" fill="url(#paint40_linear)"/></g><defs><linearGradient id="paint0_linear" x1="57.299" y1="-8.287" x2="26.819" y2="112.242" gradientUnits="userSpaceOnUse"><stop offset=".076" stop-color="#F6D46B"/><stop offset=".12" stop-color="#BF8033"/><stop offset=".218" stop-color="#9E6031"/><stop offset=".309" stop-color="#C88B30"/><stop offset=".527" stop-color="#F2DA75"/><stop offset=".691" stop-color="#27AAE1"/><stop offset=".814" stop-color="#8BCBF0"/><stop offset=".885" stop-color="#00AEEF"/><stop offset="1" stop-color="#2B3990"/></linearGradient><linearGradient id="paint1_linear" x1="69.505" y1="-5.201" x2="39.025" y2="115.328" gradientUnits="userSpaceOnUse"><stop offset=".076" stop-color="#F6D46B"/><stop offset=".12" stop-color="#BF8033"/><stop offset=".218" stop-color="#9E6031"/><stop offset=".309" stop-color="#C88B30"/><stop offset=".527" stop-color="#F2DA75"/><stop offset=".691" stop-color="#27AAE1"/><stop offset=".814" stop-color="#8BCBF0"/><stop offset=".885" stop-color="#00AEEF"/><stop offset="1" stop-color="#2B3990"/></linearGradient><linearGradient id="paint2_linear" x1="85.295" y1="-1.207" x2="54.815" y2="119.322" gradientUnits="userSpaceOnUse"><stop offset=".076" stop-color="#F6D46B"/><stop offset=".12" stop-color="#BF8033"/><stop offset=".218" stop-color="#9E6031"/><stop offset=".309" stop-color="#C88B30"/><stop offset=".527" stop-color="#F2DA75"/><stop offset=".691" stop-color="#27AAE1"/><stop offset=".814" stop-color="#8BCBF0"/><stop offset=".885" stop-color="#00AEEF"/><stop offset="1" stop-color="#2B3990"/></linearGradient><linearGradient id="paint3_linear" x1="101.674" y1="2.934" x2="71.195" y2="123.464" gradientUnits="userSpaceOnUse"><stop offset=".076" stop-color="#F6D46B"/><stop offset=".12" stop-color="#BF8033"/><stop offset=".218" stop-color="#9E6031"/><stop offset=".309" stop-color="#C88B30"/><stop offset=".527" stop-color="#F2DA75"/><stop offset=".691" stop-color="#27AAE1"/><stop offset=".814" stop-color="#8BCBF0"/><stop offset=".885" stop-color="#00AEEF"/><stop offset="1" stop-color="#2B3990"/></linearGradient><linearGradient id="paint4_linear" x1="116.825" y1="6.766" x2="86.345" y2="127.295" gradientUnits="userSpaceOnUse"><stop offset=".076" stop-color="#F6D46B"/><stop offset=".12" stop-color="#BF8033"/><stop offset=".218" stop-color="#9E6031"/><stop offset=".309" stop-color="#C88B30"/><stop offset=".527" stop-color="#F2DA75"/><stop offset=".691" stop-color="#27AAE1"/><stop offset=".814" stop-color="#8BCBF0"/><stop offset=".885" stop-color="#00AEEF"/><stop offset="1" stop-color="#2B3990"/></linearGradient><linearGradient id="paint5_linear" x1="129.216" y1="9.9" x2="98.736" y2="130.429" gradientUnits="userSpaceOnUse"><stop offset=".076" stop-color="#F6D46B"/><stop offset=".12" stop-color="#BF8033"/><stop offset=".218" stop-color="#9E6031"/><stop offset=".309" stop-color="#C88B30"/><stop offset=".527" stop-color="#F2DA75"/><stop offset=".691" stop-color="#27AAE1"/><stop offset=".814" stop-color="#8BCBF0"/><stop offset=".885" stop-color="#00AEEF"/><stop offset="1" stop-color="#2B3990"/></linearGradient><linearGradient id="paint6_linear" x1="100.876" y1="2.733" x2="70.396" y2="123.262" gradientUnits="userSpaceOnUse"><stop offset=".076" stop-color="#F6D46B"/><stop offset=".12" stop-color="#BF8033"/><stop offset=".218" stop-color="#9E6031"/><stop offset=".309" stop-color="#C88B30"/><stop offset=".527" stop-color="#F2DA75"/><stop offset=".691" stop-color="#27AAE1"/><stop offset=".814" stop-color="#8BCBF0"/><stop offset=".885" stop-color="#00AEEF"/><stop offset="1" stop-color="#2B3990"/></linearGradient><linearGradient id="paint7_linear" x1="97.594" y1="1.902" x2="67.114" y2="122.431" gradientUnits="userSpaceOnUse"><stop offset=".076" stop-color="#F6D46B"/><stop offset=".12" stop-color="#BF8033"/><stop offset=".218" stop-color="#9E6031"/><stop offset=".309" stop-color="#C88B30"/><stop offset=".527" stop-color="#F2DA75"/><stop offset=".691" stop-color="#27AAE1"/><stop offset=".814" stop-color="#8BCBF0"/><stop offset=".885" stop-color="#00AEEF"/><stop offset="1" stop-color="#2B3990"/></linearGradient><linearGradient id="paint8_linear" x1="95.829" y1="1.456" x2="65.349" y2="121.985" gradientUnits="userSpaceOnUse"><stop offset=".076" stop-color="#F6D46B"/><stop offset=".12" stop-color="#BF8033"/><stop offset=".218" stop-color="#9E6031"/><stop offset=".309" stop-color="#C88B30"/><stop offset=".527" stop-color="#F2DA75"/><stop offset=".691" stop-color="#27AAE1"/><stop offset=".814" stop-color="#8BCBF0"/><stop offset=".885" stop-color="#00AEEF"/><stop offset="1" stop-color="#2B3990"/></linearGradient><linearGradient id="paint9_linear" x1="91.709" y1=".415" x2="61.229" y2="120.944" gradientUnits="userSpaceOnUse"><stop offset=".076" stop-color="#F6D46B"/><stop offset=".12" stop-color="#BF8033"/><stop offset=".218" stop-color="#9E6031"/><stop offset=".309" stop-color="#C88B30"/><stop offset=".527" stop-color="#F2DA75"/><stop offset=".691" stop-color="#27AAE1"/><stop offset=".814" stop-color="#8BCBF0"/><stop offset=".885" stop-color="#00AEEF"/><stop offset="1" stop-color="#2B3990"/></linearGradient><linearGradient id="paint10_linear" x1="103.409" y1="3.374" x2="72.929" y2="123.903" gradientUnits="userSpaceOnUse"><stop offset=".076" stop-color="#F6D46B"/><stop offset=".12" stop-color="#BF8033"/><stop offset=".218" stop-color="#9E6031"/><stop offset=".309" stop-color="#C88B30"/><stop offset=".527" stop-color="#F2DA75"/><stop offset=".691" stop-color="#27AAE1"/><stop offset=".814" stop-color="#8BCBF0"/><stop offset=".885" stop-color="#00AEEF"/><stop offset="1" stop-color="#2B3990"/></linearGradient><linearGradient id="paint11_linear" x1="101.579" y1="8.037" x2="76.315" y2="129.779" gradientUnits="userSpaceOnUse"><stop offset=".076" stop-color="#F6D46B"/><stop offset=".12" stop-color="#BF8033"/><stop offset=".218" stop-color="#9E6031"/><stop offset=".309" stop-color="#C88B30"/><stop offset=".527" stop-color="#F2DA75"/><stop offset=".691" stop-color="#27AAE1"/><stop offset=".814" stop-color="#8BCBF0"/><stop offset=".885" stop-color="#00AEEF"/><stop offset="1" stop-color="#2B3990"/></linearGradient><linearGradient id="paint12_linear" x1="101.01" y1="7.919" x2="75.746" y2="129.661" gradientUnits="userSpaceOnUse"><stop offset=".076" stop-color="#F6D46B"/><stop offset=".12" stop-color="#BF8033"/><stop offset=".218" stop-color="#9E6031"/><stop offset=".309" stop-color="#C88B30"/><stop offset=".527" stop-color="#F2DA75"/><stop offset=".691" stop-color="#27AAE1"/><stop offset=".814" stop-color="#8BCBF0"/><stop offset=".885" stop-color="#00AEEF"/><stop offset="1" stop-color="#2B3990"/></linearGradient><linearGradient id="paint13_linear" x1="93.637" y1="6.389" x2="68.373" y2="128.131" gradientUnits="userSpaceOnUse"><stop offset=".076" stop-color="#F6D46B"/><stop offset=".12" stop-color="#BF8033"/><stop offset=".218" stop-color="#9E6031"/><stop offset=".309" stop-color="#C88B30"/><stop offset=".527" stop-color="#F2DA75"/><stop offset=".691" stop-color="#27AAE1"/><stop offset=".814" stop-color="#8BCBF0"/><stop offset=".885" stop-color="#00AEEF"/><stop offset="1" stop-color="#2B3990"/></linearGradient><linearGradient id="paint14_linear" x1="81.494" y1="3.869" x2="56.23" y2="125.611" gradientUnits="userSpaceOnUse"><stop offset=".076" stop-color="#F6D46B"/><stop offset=".12" stop-color="#BF8033"/><stop offset=".218" stop-color="#9E6031"/><stop offset=".309" stop-color="#C88B30"/><stop offset=".527" stop-color="#F2DA75"/><stop offset=".691" stop-color="#27AAE1"/><stop offset=".814" stop-color="#8BCBF0"/><stop offset=".885" stop-color="#00AEEF"/><stop offset="1" stop-color="#2B3990"/></linearGradient><linearGradient id="paint15_linear" x1="83.983" y1="4.385" x2="58.719" y2="126.127" gradientUnits="userSpaceOnUse"><stop offset=".076" stop-color="#F6D46B"/><stop offset=".12" stop-color="#BF8033"/><stop offset=".218" stop-color="#9E6031"/><stop offset=".309" stop-color="#C88B30"/><stop offset=".527" stop-color="#F2DA75"/><stop offset=".691" stop-color="#27AAE1"/><stop offset=".814" stop-color="#8BCBF0"/><stop offset=".885" stop-color="#00AEEF"/><stop offset="1" stop-color="#2B3990"/></linearGradient><linearGradient id="paint16_linear" x1="89.466" y1="5.523" x2="64.203" y2="127.265" gradientUnits="userSpaceOnUse"><stop offset=".076" stop-color="#F6D46B"/><stop offset=".12" stop-color="#BF8033"/><stop offset=".218" stop-color="#9E6031"/><stop offset=".309" stop-color="#C88B30"/><stop offset=".527" stop-color="#F2DA75"/><stop offset=".691" stop-color="#27AAE1"/><stop offset=".814" stop-color="#8BCBF0"/><stop offset=".885" stop-color="#00AEEF"/><stop offset="1" stop-color="#2B3990"/></linearGradient><linearGradient id="paint17_linear" x1="75.486" y1="2.622" x2="50.222" y2="124.364" gradientUnits="userSpaceOnUse"><stop offset=".076" stop-color="#F6D46B"/><stop offset=".12" stop-color="#BF8033"/><stop offset=".218" stop-color="#9E6031"/><stop offset=".309" stop-color="#C88B30"/><stop offset=".527" stop-color="#F2DA75"/><stop offset=".691" stop-color="#27AAE1"/><stop offset=".814" stop-color="#8BCBF0"/><stop offset=".885" stop-color="#00AEEF"/><stop offset="1" stop-color="#2B3990"/></linearGradient><linearGradient id="paint18_linear" x1="99.353" y1="7.575" x2="74.088" y2="129.317" gradientUnits="userSpaceOnUse"><stop offset=".076" stop-color="#F6D46B"/><stop offset=".12" stop-color="#BF8033"/><stop offset=".218" stop-color="#9E6031"/><stop offset=".309" stop-color="#C88B30"/><stop offset=".527" stop-color="#F2DA75"/><stop offset=".691" stop-color="#27AAE1"/><stop offset=".814" stop-color="#8BCBF0"/><stop offset=".885" stop-color="#00AEEF"/><stop offset="1" stop-color="#2B3990"/></linearGradient><linearGradient id="paint19_linear" x1="91.421" y1="5.928" x2="66.156" y2="127.67" gradientUnits="userSpaceOnUse"><stop offset=".076" stop-color="#F6D46B"/><stop offset=".12" stop-color="#BF8033"/><stop offset=".218" stop-color="#9E6031"/><stop offset=".309" stop-color="#C88B30"/><stop offset=".527" stop-color="#F2DA75"/><stop offset=".691" stop-color="#27AAE1"/><stop offset=".814" stop-color="#8BCBF0"/><stop offset=".885" stop-color="#00AEEF"/><stop offset="1" stop-color="#2B3990"/></linearGradient><linearGradient id="paint20_linear" x1="86.554" y1="4.919" x2="61.29" y2="126.66" gradientUnits="userSpaceOnUse"><stop offset=".076" stop-color="#F6D46B"/><stop offset=".12" stop-color="#BF8033"/><stop offset=".218" stop-color="#9E6031"/><stop offset=".309" stop-color="#C88B30"/><stop offset=".527" stop-color="#F2DA75"/><stop offset=".691" stop-color="#27AAE1"/><stop offset=".814" stop-color="#8BCBF0"/><stop offset=".885" stop-color="#00AEEF"/><stop offset="1" stop-color="#2B3990"/></linearGradient><linearGradient id="paint21_linear" x1="76.482" y1="2.829" x2="51.218" y2="124.571" gradientUnits="userSpaceOnUse"><stop offset=".076" stop-color="#F6D46B"/><stop offset=".12" stop-color="#BF8033"/><stop offset=".218" stop-color="#9E6031"/><stop offset=".309" stop-color="#C88B30"/><stop offset=".527" stop-color="#F2DA75"/><stop offset=".691" stop-color="#27AAE1"/><stop offset=".814" stop-color="#8BCBF0"/><stop offset=".885" stop-color="#00AEEF"/><stop offset="1" stop-color="#2B3990"/></linearGradient><linearGradient id="paint22_linear" x1="97.508" y1="7.193" x2="72.244" y2="128.935" gradientUnits="userSpaceOnUse"><stop offset=".076" stop-color="#F6D46B"/><stop offset=".12" stop-color="#BF8033"/><stop offset=".218" stop-color="#9E6031"/><stop offset=".309" stop-color="#C88B30"/><stop offset=".527" stop-color="#F2DA75"/><stop offset=".691" stop-color="#27AAE1"/><stop offset=".814" stop-color="#8BCBF0"/><stop offset=".885" stop-color="#00AEEF"/><stop offset="1" stop-color="#2B3990"/></linearGradient><linearGradient id="paint23_linear" x1="98.671" y1="7.434" x2="73.407" y2="129.176" gradientUnits="userSpaceOnUse"><stop offset=".076" stop-color="#F6D46B"/><stop offset=".12" stop-color="#BF8033"/><stop offset=".218" stop-color="#9E6031"/><stop offset=".309" stop-color="#C88B30"/><stop offset=".527" stop-color="#F2DA75"/><stop offset=".691" stop-color="#27AAE1"/><stop offset=".814" stop-color="#8BCBF0"/><stop offset=".885" stop-color="#00AEEF"/><stop offset="1" stop-color="#2B3990"/></linearGradient><linearGradient id="paint24_linear" x1="67.441" y1=".952" x2="42.177" y2="122.694" gradientUnits="userSpaceOnUse"><stop offset=".076" stop-color="#F6D46B"/><stop offset=".12" stop-color="#BF8033"/><stop offset=".218" stop-color="#9E6031"/><stop offset=".309" stop-color="#C88B30"/><stop offset=".527" stop-color="#F2DA75"/><stop offset=".691" stop-color="#27AAE1"/><stop offset=".814" stop-color="#8BCBF0"/><stop offset=".885" stop-color="#00AEEF"/><stop offset="1" stop-color="#2B3990"/></linearGradient><linearGradient id="paint25_linear" x1="80.886" y1="3.742" x2="55.622" y2="125.484" gradientUnits="userSpaceOnUse"><stop offset=".076" stop-color="#F6D46B"/><stop offset=".12" stop-color="#BF8033"/><stop offset=".218" stop-color="#9E6031"/><stop offset=".309" stop-color="#C88B30"/><stop offset=".527" stop-color="#F2DA75"/><stop offset=".691" stop-color="#27AAE1"/><stop offset=".814" stop-color="#8BCBF0"/><stop offset=".885" stop-color="#00AEEF"/><stop offset="1" stop-color="#2B3990"/></linearGradient><linearGradient id="paint26_linear" x1="90.653" y1="5.769" x2="65.389" y2="127.511" gradientUnits="userSpaceOnUse"><stop offset=".076" stop-color="#F6D46B"/><stop offset=".12" stop-color="#BF8033"/><stop offset=".218" stop-color="#9E6031"/><stop offset=".309" stop-color="#C88B30"/><stop offset=".527" stop-color="#F2DA75"/><stop offset=".691" stop-color="#27AAE1"/><stop offset=".814" stop-color="#8BCBF0"/><stop offset=".885" stop-color="#00AEEF"/><stop offset="1" stop-color="#2B3990"/></linearGradient><linearGradient id="paint27_linear" x1="78.341" y1="3.214" x2="53.077" y2="124.956" gradientUnits="userSpaceOnUse"><stop offset=".076" stop-color="#F6D46B"/><stop offset=".12" stop-color="#BF8033"/><stop offset=".218" stop-color="#9E6031"/><stop offset=".309" stop-color="#C88B30"/><stop offset=".527" stop-color="#F2DA75"/><stop offset=".691" stop-color="#27AAE1"/><stop offset=".814" stop-color="#8BCBF0"/><stop offset=".885" stop-color="#00AEEF"/><stop offset="1" stop-color="#2B3990"/></linearGradient><linearGradient id="paint28_linear" x1="88.195" y1="5.259" x2="62.931" y2="127.001" gradientUnits="userSpaceOnUse"><stop offset=".076" stop-color="#F6D46B"/><stop offset=".12" stop-color="#BF8033"/><stop offset=".218" stop-color="#9E6031"/><stop offset=".309" stop-color="#C88B30"/><stop offset=".527" stop-color="#F2DA75"/><stop offset=".691" stop-color="#27AAE1"/><stop offset=".814" stop-color="#8BCBF0"/><stop offset=".885" stop-color="#00AEEF"/><stop offset="1" stop-color="#2B3990"/></linearGradient><linearGradient id="paint29_linear" x1="95.264" y1="6.726" x2="70" y2="128.468" gradientUnits="userSpaceOnUse"><stop offset=".076" stop-color="#F6D46B"/><stop offset=".12" stop-color="#BF8033"/><stop offset=".218" stop-color="#9E6031"/><stop offset=".309" stop-color="#C88B30"/><stop offset=".527" stop-color="#F2DA75"/><stop offset=".691" stop-color="#27AAE1"/><stop offset=".814" stop-color="#8BCBF0"/><stop offset=".885" stop-color="#00AEEF"/><stop offset="1" stop-color="#2B3990"/></linearGradient><linearGradient id="paint30_linear" x1="86.774" y1="4.965" x2="61.509" y2="126.707" gradientUnits="userSpaceOnUse"><stop offset=".076" stop-color="#F6D46B"/><stop offset=".12" stop-color="#BF8033"/><stop offset=".218" stop-color="#9E6031"/><stop offset=".309" stop-color="#C88B30"/><stop offset=".527" stop-color="#F2DA75"/><stop offset=".691" stop-color="#27AAE1"/><stop offset=".814" stop-color="#8BCBF0"/><stop offset=".885" stop-color="#00AEEF"/><stop offset="1" stop-color="#2B3990"/></linearGradient><linearGradient id="paint31_linear" x1="93.74" y1="6.409" x2="68.476" y2="128.151" gradientUnits="userSpaceOnUse"><stop offset=".076" stop-color="#F6D46B"/><stop offset=".12" stop-color="#BF8033"/><stop offset=".218" stop-color="#9E6031"/><stop offset=".309" stop-color="#C88B30"/><stop offset=".527" stop-color="#F2DA75"/><stop offset=".691" stop-color="#27AAE1"/><stop offset=".814" stop-color="#8BCBF0"/><stop offset=".885" stop-color="#00AEEF"/><stop offset="1" stop-color="#2B3990"/></linearGradient><linearGradient id="paint32_linear" x1="84.046" y1="4.398" x2="58.782" y2="126.14" gradientUnits="userSpaceOnUse"><stop offset=".076" stop-color="#F6D46B"/><stop offset=".12" stop-color="#BF8033"/><stop offset=".218" stop-color="#9E6031"/><stop offset=".309" stop-color="#C88B30"/><stop offset=".527" stop-color="#F2DA75"/><stop offset=".691" stop-color="#27AAE1"/><stop offset=".814" stop-color="#8BCBF0"/><stop offset=".885" stop-color="#00AEEF"/><stop offset="1" stop-color="#2B3990"/></linearGradient><linearGradient id="paint33_linear" x1="74.644" y1="2.448" x2="49.38" y2="124.19" gradientUnits="userSpaceOnUse"><stop offset=".076" stop-color="#F6D46B"/><stop offset=".12" stop-color="#BF8033"/><stop offset=".218" stop-color="#9E6031"/><stop offset=".309" stop-color="#C88B30"/><stop offset=".527" stop-color="#F2DA75"/><stop offset=".691" stop-color="#27AAE1"/><stop offset=".814" stop-color="#8BCBF0"/><stop offset=".885" stop-color="#00AEEF"/><stop offset="1" stop-color="#2B3990"/></linearGradient><linearGradient id="paint34_linear" x1="67.349" y1=".933" x2="42.085" y2="122.675" gradientUnits="userSpaceOnUse"><stop offset=".076" stop-color="#F6D46B"/><stop offset=".12" stop-color="#BF8033"/><stop offset=".218" stop-color="#9E6031"/><stop offset=".309" stop-color="#C88B30"/><stop offset=".527" stop-color="#F2DA75"/><stop offset=".691" stop-color="#27AAE1"/><stop offset=".814" stop-color="#8BCBF0"/><stop offset=".885" stop-color="#00AEEF"/><stop offset="1" stop-color="#2B3990"/></linearGradient><linearGradient id="paint35_linear" x1="83.573" y1="4.3" x2="58.31" y2="126.042" gradientUnits="userSpaceOnUse"><stop offset=".076" stop-color="#F6D46B"/><stop offset=".12" stop-color="#BF8033"/><stop offset=".218" stop-color="#9E6031"/><stop offset=".309" stop-color="#C88B30"/><stop offset=".527" stop-color="#F2DA75"/><stop offset=".691" stop-color="#27AAE1"/><stop offset=".814" stop-color="#8BCBF0"/><stop offset=".885" stop-color="#00AEEF"/><stop offset="1" stop-color="#2B3990"/></linearGradient><linearGradient id="paint36_linear" x1="72.106" y1="-4.542" x2="41.626" y2="115.987" gradientUnits="userSpaceOnUse"><stop offset=".076" stop-color="#F6D46B"/><stop offset=".12" stop-color="#BF8033"/><stop offset=".218" stop-color="#9E6031"/><stop offset=".309" stop-color="#C88B30"/><stop offset=".527" stop-color="#F2DA75"/><stop offset=".691" stop-color="#27AAE1"/><stop offset=".814" stop-color="#8BCBF0"/><stop offset=".885" stop-color="#00AEEF"/><stop offset="1" stop-color="#2B3990"/></linearGradient><linearGradient id="paint37_linear" x1="78.498" y1="-2.925" x2="48.018" y2="117.604" gradientUnits="userSpaceOnUse"><stop offset=".076" stop-color="#F6D46B"/><stop offset=".12" stop-color="#BF8033"/><stop offset=".218" stop-color="#9E6031"/><stop offset=".309" stop-color="#C88B30"/><stop offset=".527" stop-color="#F2DA75"/><stop offset=".691" stop-color="#27AAE1"/><stop offset=".814" stop-color="#8BCBF0"/><stop offset=".885" stop-color="#00AEEF"/><stop offset="1" stop-color="#2B3990"/></linearGradient><linearGradient id="paint38_linear" x1="67.165" y1="-5.792" x2="36.685" y2="114.737" gradientUnits="userSpaceOnUse"><stop offset=".076" stop-color="#F6D46B"/><stop offset=".12" stop-color="#BF8033"/><stop offset=".218" stop-color="#9E6031"/><stop offset=".309" stop-color="#C88B30"/><stop offset=".527" stop-color="#F2DA75"/><stop offset=".691" stop-color="#27AAE1"/><stop offset=".814" stop-color="#8BCBF0"/><stop offset=".885" stop-color="#00AEEF"/><stop offset="1" stop-color="#2B3990"/></linearGradient><linearGradient id="paint39_linear" x1="86.8" y1="-.827" x2="56.32" y2="119.702" gradientUnits="userSpaceOnUse"><stop offset=".076" stop-color="#F6D46B"/><stop offset=".12" stop-color="#BF8033"/><stop offset=".218" stop-color="#9E6031"/><stop offset=".309" stop-color="#C88B30"/><stop offset=".527" stop-color="#F2DA75"/><stop offset=".691" stop-color="#27AAE1"/><stop offset=".814" stop-color="#8BCBF0"/><stop offset=".885" stop-color="#00AEEF"/><stop offset="1" stop-color="#2B3990"/></linearGradient><linearGradient id="paint40_linear" x1="66.287" y1="-6.014" x2="35.807" y2="114.515" gradientUnits="userSpaceOnUse"><stop offset=".076" stop-color="#F6D46B"/><stop offset=".12" stop-color="#BF8033"/><stop offset=".218" stop-color="#9E6031"/><stop offset=".309" stop-color="#C88B30"/><stop offset=".527" stop-color="#F2DA75"/><stop offset=".691" stop-color="#27AAE1"/><stop offset=".814" stop-color="#8BCBF0"/><stop offset=".885" stop-color="#00AEEF"/><stop offset="1" stop-color="#2B3990"/></linearGradient><clipPath id="clip0"><path fill="#fff" d="M0 0h112.836v120H0z"/></clipPath></defs></svg>