<svg width="20" height="13" viewBox="0 0 20 13" fill="none" xmlns="http://www.w3.org/2000/svg">
<path fill-rule="evenodd" clip-rule="evenodd" d="M5.59918 10.2071C5.86639 10.2071 6.12005 10.1833 6.35876 10.13C6.60074 10.0768 6.81562 9.99313 6.99687 9.86887C7.17813 9.74975 7.32808 9.58625 7.43739 9.3779C7.5467 9.1719 7.59902 8.90422 7.59902 8.58049C7.59902 7.94658 7.42057 7.49625 7.06601 7.22297C6.71052 6.95343 6.23637 6.81936 5.65337 6.81936H2.7085V10.2071H5.59918ZM5.4497 4.97041C5.92945 4.97041 6.32652 4.85642 6.64138 4.62519C6.95296 4.39816 7.10432 4.02211 7.10432 3.50638C7.10432 3.22049 7.05387 2.98365 6.95296 2.80006C6.84879 2.61647 6.71052 2.47259 6.5358 2.37215C6.36249 2.26751 6.16676 2.19511 5.93926 2.15633C5.71643 2.11242 5.4824 2.09561 5.24275 2.09561H2.7085V4.97041H5.4497ZM5.80005 0C6.38819 0 6.91933 0.0509186 7.40469 0.156026C7.88725 0.25833 8.29927 0.429305 8.64729 0.663811C8.99018 0.89785 9.25832 1.20943 9.45031 1.60183C9.63764 1.98863 9.732 2.47259 9.732 3.04531C9.732 3.66474 9.59139 4.18187 9.31017 4.59529C9.02708 5.00824 8.61086 5.34692 8.05495 5.60993C8.81219 5.82761 9.37277 6.21114 9.74461 6.75583C10.1183 7.30425 10.301 7.96106 10.301 8.73044C10.301 9.35455 10.1814 9.8913 9.94315 10.343C9.7021 10.8004 9.37417 11.1713 8.97009 11.4572C8.56274 11.7459 8.09466 11.9575 7.57053 12.0953C7.052 12.2331 6.51385 12.3022 5.96262 12.3022H0V0H5.80005ZM16.9737 5.48613C16.6826 5.16427 16.1903 4.99003 15.5895 4.99003C15.1985 4.99003 14.8748 5.05589 14.616 5.18996C14.3628 5.32217 14.1549 5.48707 13.9966 5.68093C13.8387 5.87807 13.7307 6.08595 13.6682 6.30831C13.6056 6.52506 13.5682 6.72173 13.5565 6.8955H17.5375C17.4791 6.2714 17.2656 5.81033 16.9737 5.48613ZM15.7446 10.7041C15.0584 10.7041 14.5286 10.5238 14.1624 10.166C13.7947 9.80814 13.5565 9.14153 13.5565 8.43754H19.9844C20.0306 7.74617 19.9741 7.0861 19.8144 6.45405C19.6527 5.82154 19.3944 5.25723 19.0314 4.76346C18.668 4.26922 18.206 3.87449 17.6421 3.58346C17.0764 3.28776 16.4164 3.14294 15.6629 3.14294C14.9804 3.14294 14.3642 3.26393 13.805 3.50544C13.2463 3.74742 12.7666 4.07863 12.3615 4.49859C11.9579 4.91622 11.651 5.41419 11.4287 5.99111C11.2114 6.56617 11.0998 7.1884 11.0998 7.85455C11.0998 8.54359 11.2072 9.17937 11.4198 9.75349C11.6347 10.3304 11.936 10.8218 12.3242 11.2376C12.7227 11.6515 13.1963 11.9691 13.763 12.1957C14.3296 12.419 14.9612 12.533 15.6629 12.533C16.6695 12.533 17.5338 12.3022 18.242 11.8393C18.959 11.3787 19.4846 10.613 19.8307 9.54094H17.6762C17.5926 9.81655 17.3768 10.0824 17.0222 10.3304C16.6644 10.5794 16.2379 10.7041 15.7446 10.7041ZM18.0429 0.825442H13.0562V2.03955H18.0429V0.825442Z" fill="white"/>
</svg>
