<svg width="17" height="17" viewBox="0 0 17 17" fill="none" xmlns="http://www.w3.org/2000/svg">
<path fill-rule="evenodd" clip-rule="evenodd" d="M8.50006 17C3.81314 17 0 13.1869 0 8.50003C0 3.81307 3.81314 0 8.50006 0C13.1869 0 17 3.81307 17 8.50003C17 13.1869 13.1869 17 8.50006 17ZM15.6685 9.66357C15.4201 9.58516 13.4213 8.98898 11.1462 9.35319C12.0958 11.9627 12.4822 14.088 12.5566 14.5297C14.1854 13.4283 15.3449 11.6837 15.6685 9.66357ZM11.3361 15.1944C11.228 14.5574 10.8065 12.3374 9.78722 9.68864C9.77126 9.69411 9.7553 9.69927 9.73935 9.7048C5.64424 11.1318 4.17424 13.9717 4.04355 14.2388C5.27459 15.1987 6.82165 15.7714 8.50006 15.7714C9.50579 15.7714 10.4643 15.5657 11.3361 15.1944ZM3.10617 13.3656C3.27061 13.084 5.2632 9.78481 9.00764 8.57452C9.10226 8.54393 9.19765 8.51518 9.29376 8.48815C9.11146 8.07565 8.91296 7.66273 8.70508 7.256C5.07936 8.34112 1.56106 8.29574 1.24344 8.28926C1.24119 8.36293 1.2397 8.43682 1.2397 8.51108C1.2397 10.3758 1.94661 12.0784 3.10617 13.3656ZM1.39311 7.02408C1.7178 7.02836 4.70899 7.04137 8.10514 6.1395C6.90216 4.00102 5.60473 2.20311 5.41335 1.9406C3.38214 2.89867 1.86385 4.77113 1.39311 7.02408ZM6.79864 1.4526C6.99933 1.72128 8.31799 3.517 9.50768 5.70288C12.0894 4.73525 13.1823 3.26626 13.3129 3.08027C12.0307 1.94274 10.3448 1.25075 8.50006 1.25075C7.91423 1.25075 7.3446 1.32102 6.79864 1.4526ZM14.12 3.91982C13.9669 4.12684 12.7503 5.68649 10.0659 6.78249C10.2348 7.12834 10.3968 7.48007 10.5476 7.83411C10.601 7.95963 10.6531 8.0845 10.704 8.20883C13.1198 7.90504 15.5201 8.39186 15.7595 8.44253C15.7435 6.72885 15.1312 5.1553 14.12 3.91982Z" fill="white"/>
</svg>
