<svg width="30" height="22" viewBox="0 0 30 22" fill="none" xmlns="http://www.w3.org/2000/svg">
<path opacity="0.3" fill-rule="evenodd" clip-rule="evenodd" d="M23.3554 4.12032C23.3554 4.12032 23.3554 3.88997 23.3554 4.12032C22.205 2.9686 20.8245 2.50791 19.444 2.73826C20.8245 2.50791 21.5147 2.04723 21.7448 1.81688C21.7448 1.58654 21.7448 1.35619 21.5147 1.35619C20.8245 1.35619 20.1342 1.58654 19.674 1.81688C20.3643 1.35619 20.5944 1.12585 20.5944 0.895508C19.9041 0.895508 19.2139 1.35619 18.2935 2.04723C18.5236 1.58654 18.7537 1.35619 18.5236 1.12585C18.0634 1.35619 17.8334 1.58654 17.6033 2.04723C16.913 2.73826 16.4528 3.19894 16.2228 3.88997C15.3024 5.50238 14.6122 6.88444 14.152 8.49684H13.9219C13.4617 7.80581 12.7715 7.11478 11.8511 6.6541C10.9308 5.96307 9.78039 5.50238 8.39988 4.81135C7.01937 4.12032 5.63886 3.42929 4.02826 2.9686C4.02826 4.581 4.71852 5.96307 6.32911 6.88444C5.86894 6.88444 5.17869 6.88444 4.71852 7.11478C4.71852 8.49684 5.86894 9.64856 7.93971 10.1092C7.24945 10.1092 6.5592 10.3396 5.86894 10.8003C6.5592 12.1823 7.70962 12.643 9.5503 12.643C9.32022 12.8734 8.86005 13.1037 8.86005 13.1037C8.62996 13.3341 8.39988 13.7947 8.62996 14.2554C9.09013 14.9465 9.5503 15.1768 10.7007 15.1768C9.09013 16.7892 7.01937 17.7106 4.71852 17.4802C3.33801 17.4802 1.72742 16.7892 0.116821 15.4071C1.72742 17.7106 4.02826 19.5533 6.78928 20.7051C10.0105 21.6264 13.2317 21.8568 16.2228 20.9354C19.2139 20.014 21.9749 18.1713 24.0456 15.6375C24.966 14.2554 25.6562 12.8734 25.8863 11.4913C27.4969 11.4913 28.6473 11.0306 29.3376 10.1092C28.8774 10.3396 27.727 10.3396 26.1164 9.8789C27.727 9.64856 28.8774 9.18787 29.1075 8.2665C27.9571 8.72719 26.8067 8.72719 25.6562 8.2665C25.4262 6.6541 24.7359 5.27203 23.3554 4.12032Z" fill="white"/>
</svg>
