<svg width="17" height="14" viewBox="0 0 17 14" fill="none" xmlns="http://www.w3.org/2000/svg">
<path opacity="0.7" fill-rule="evenodd" clip-rule="evenodd" d="M7.78773 0.0100759C7.44847 0.00505801 7.10649 0 6.76451 0C5.81027 0 4.43192 0.0199147 3.52009 0.29872C1.92969 0.776671 0.827009 1.95164 0.827009 3.56472C0.827009 5.53627 2.26897 6.65149 4.30469 6.65149C4.30469 7.49053 4.39423 7.54214 4.52288 7.6163C4.60187 7.66183 4.69561 7.71586 4.79241 7.96586C2.7567 7.96586 0 8.62304 0 10.973C0 13.1835 2.33259 14 4.3471 14C6.67969 14 9.16071 12.9445 9.16071 10.4353C9.16071 8.97439 8.03469 8.05064 7.24463 7.4025C6.81768 7.05224 6.48884 6.78247 6.48884 6.55192C6.48884 6.30023 6.74236 6.09763 7.07139 5.83468C7.67957 5.34863 8.54576 4.65641 8.54576 3.06686C8.54576 2.29018 8.3125 1.39403 7.61272 0.935989C7.67667 0.9278 7.75217 0.920733 7.83485 0.912994C8.35539 0.864272 9.16071 0.788895 9.16071 0.238976C9.16071 0.0199147 8.94866 0.0199147 8.77902 0.0199147C8.45294 0.0199147 8.12165 0.0150147 7.78773 0.0100759ZM6.29799 3.62447C6.29799 4.44097 5.95871 5.31721 4.94085 5.31721C3.60491 5.31721 2.94754 3.62447 2.94754 2.5889C2.94754 1.79232 3.30804 0.896159 4.30469 0.896159C5.64062 0.896159 6.29799 2.5889 6.29799 3.62447ZM4.64397 12.4467C5.81027 12.4467 7.46429 11.7696 7.46429 10.495C7.46429 9.2404 5.95871 8.7027 4.83482 8.7027C3.60491 8.7027 2.01451 9.2404 2.01451 10.6145C2.01451 11.889 3.49888 12.4467 4.64397 12.4467ZM14.5045 5.59602V3.60455H16.625V2.29018H14.5045V0.29872H13.0837V2.29018H10.9632V3.60455H13.0837V5.59602H14.5045Z" fill="white"/>
</svg>
