<svg width="27" height="27" viewBox="0 0 27 27" fill="none" xmlns="http://www.w3.org/2000/svg">
<path opacity="0.3" fill-rule="evenodd" clip-rule="evenodd" d="M24.4804 0.272461H3.07783C1.83108 0.272461 0.792114 1.31142 0.792114 2.55818V8.92181H9.44147C10.7402 7.98675 12.1168 7.18155 13.7791 7.18155C15.3895 7.18155 16.8441 7.98675 18.1168 8.92181H26.7661V2.55818C26.7661 1.31142 25.7272 0.272461 24.4804 0.272461ZM25.026 6.29926C25.026 6.79276 24.6364 7.20835 24.1429 7.20835H20.7403C20.2468 7.20835 19.8312 6.79276 19.8312 6.29926V2.89666C19.8312 2.40315 20.2468 2.01354 20.7403 2.01354H24.1429C24.6364 2.01354 25.026 2.40315 25.026 2.89666V6.29926ZM18.1168 14.1174C18.1168 11.7278 16.1688 9.8057 13.7791 9.8057C11.3895 9.8057 9.44149 11.7278 9.44149 14.1174C9.44149 16.507 11.3895 18.455 13.7791 18.455C16.1688 18.455 18.1168 16.507 18.1168 14.1174ZM20.4026 12.4024C20.5584 12.9219 20.6103 13.4673 20.6103 14.0128C20.6103 17.805 17.5454 20.8699 13.7792 20.8699C10.0129 20.8699 6.94801 17.805 6.94801 14.0128C6.94801 13.4673 6.99995 12.9219 7.1558 12.4024H0.792161V23.9608C0.792161 25.2076 1.83112 26.2465 3.07788 26.2465H24.4805C25.7272 26.2465 26.7662 25.2076 26.7662 23.9608V12.4024H20.4026Z" fill="white"/>
</svg>
